G75*
%MOIN*%
%OFA0B0*%
%FSLAX25Y25*%
%IPPOS*%
%LPD*%
%AMOC8*
5,1,8,0,0,1.08239X$1,22.5*
%
%ADD10C,0.08200*%
%ADD11C,0.08400*%
%ADD12R,0.08400X0.08400*%
%ADD13C,0.04737*%
%ADD14C,0.12800*%
D10*
X0033750Y0068750D03*
X0033750Y0098750D03*
X0108750Y0033750D03*
X0118750Y0033750D03*
X0128750Y0033750D03*
X0138750Y0033750D03*
X0213750Y0068750D03*
X0225750Y0068750D03*
X0225750Y0098750D03*
X0213750Y0098750D03*
X0300750Y0033750D03*
X0310750Y0033750D03*
X0320750Y0033750D03*
X0330750Y0033750D03*
X0405750Y0068750D03*
X0417750Y0068750D03*
X0417750Y0098750D03*
X0405750Y0098750D03*
X0492750Y0033750D03*
X0502750Y0033750D03*
X0512750Y0033750D03*
X0522750Y0033750D03*
X0597750Y0068750D03*
X0597750Y0098750D03*
X0522750Y0195750D03*
X0512750Y0195750D03*
X0502750Y0195750D03*
X0492750Y0195750D03*
X0417750Y0230750D03*
X0405750Y0230750D03*
X0405750Y0260750D03*
X0417750Y0260750D03*
X0330750Y0195750D03*
X0320750Y0195750D03*
X0310750Y0195750D03*
X0300750Y0195750D03*
X0225750Y0230750D03*
X0213750Y0230750D03*
X0213750Y0260750D03*
X0225750Y0260750D03*
X0138750Y0195750D03*
X0128750Y0195750D03*
X0118750Y0195750D03*
X0108750Y0195750D03*
X0033750Y0230750D03*
X0033750Y0260750D03*
X0108750Y0357750D03*
X0118750Y0357750D03*
X0128750Y0357750D03*
X0138750Y0357750D03*
X0213750Y0392750D03*
X0225750Y0392750D03*
X0225750Y0422750D03*
X0213750Y0422750D03*
X0300750Y0357750D03*
X0310750Y0357750D03*
X0320750Y0357750D03*
X0330750Y0357750D03*
X0405750Y0392750D03*
X0417750Y0392750D03*
X0417750Y0422750D03*
X0405750Y0422750D03*
X0492750Y0357750D03*
X0502750Y0357750D03*
X0512750Y0357750D03*
X0522750Y0357750D03*
X0597750Y0392750D03*
X0597750Y0422750D03*
X0597750Y0260750D03*
X0597750Y0230750D03*
X0033750Y0392750D03*
X0033750Y0422750D03*
D11*
X0033750Y0487593D03*
X0213750Y0487593D03*
X0225750Y0487593D03*
X0405750Y0487593D03*
X0417750Y0487593D03*
X0597750Y0487593D03*
X0597750Y0325593D03*
X0417750Y0325593D03*
X0405750Y0325593D03*
X0225750Y0325593D03*
X0213750Y0325593D03*
X0033750Y0325593D03*
X0033750Y0163593D03*
X0213750Y0163593D03*
X0225750Y0163593D03*
X0405750Y0163593D03*
X0417750Y0163593D03*
X0597750Y0163593D03*
D12*
X0597750Y0143907D03*
X0417750Y0143907D03*
X0405750Y0143907D03*
X0225750Y0143907D03*
X0213750Y0143907D03*
X0033750Y0143907D03*
X0033750Y0305907D03*
X0213750Y0305907D03*
X0225750Y0305907D03*
X0405750Y0305907D03*
X0417750Y0305907D03*
X0597750Y0305907D03*
X0597750Y0467907D03*
X0417750Y0467907D03*
X0405750Y0467907D03*
X0225750Y0467907D03*
X0213750Y0467907D03*
X0033750Y0467907D03*
D13*
X0058750Y0367750D03*
X0213750Y0345750D03*
X0250750Y0367750D03*
X0405750Y0345750D03*
X0442750Y0367750D03*
X0597750Y0345750D03*
X0442750Y0205750D03*
X0405750Y0183750D03*
X0250750Y0205750D03*
X0213750Y0183750D03*
X0058750Y0205750D03*
X0058750Y0043750D03*
X0250750Y0043750D03*
X0442750Y0043750D03*
X0597750Y0183750D03*
X0597750Y0507750D03*
X0405750Y0507750D03*
X0213750Y0507750D03*
D14*
X0038750Y0038750D03*
X0208750Y0038750D03*
X0230750Y0038750D03*
X0400750Y0038750D03*
X0422750Y0038750D03*
X0592750Y0038750D03*
X0592750Y0200750D03*
X0422750Y0200750D03*
X0400750Y0200750D03*
X0230750Y0200750D03*
X0208750Y0200750D03*
X0038750Y0200750D03*
X0038750Y0362750D03*
X0208750Y0362750D03*
X0230750Y0362750D03*
X0400750Y0362750D03*
X0422750Y0362750D03*
X0592750Y0362750D03*
M02*
