G75*
%MOIN*%
%OFA0B0*%
%FSLAX25Y25*%
%IPPOS*%
%LPD*%
%AMOC8*
5,1,8,0,0,1.08239X$1,22.5*
%
%ADD10C,0.00800*%
%ADD11C,0.01500*%
%ADD12C,0.01100*%
%ADD13C,0.01000*%
%ADD14C,0.00000*%
D10*
X0028750Y0028750D02*
X0028789Y0188750D01*
X0218750Y0188750D01*
X0218750Y0028750D01*
X0028750Y0028750D01*
X0220750Y0028750D02*
X0220789Y0188750D01*
X0410750Y0188750D01*
X0410750Y0028750D01*
X0220750Y0028750D01*
X0412750Y0028750D02*
X0412789Y0188750D01*
X0602750Y0188750D01*
X0602750Y0028750D01*
X0412750Y0028750D01*
X0412750Y0190750D02*
X0412789Y0350750D01*
X0602750Y0350750D01*
X0602750Y0190750D01*
X0412750Y0190750D01*
X0410750Y0190750D02*
X0410750Y0350750D01*
X0220789Y0350750D01*
X0220750Y0190750D01*
X0410750Y0190750D01*
X0410750Y0352750D02*
X0220750Y0352750D01*
X0220789Y0512750D01*
X0410750Y0512750D01*
X0410750Y0352750D01*
X0412750Y0352750D02*
X0412789Y0512750D01*
X0602750Y0512750D01*
X0602750Y0352750D01*
X0412750Y0352750D01*
X0218750Y0352750D02*
X0218750Y0512750D01*
X0028789Y0512750D01*
X0028750Y0352750D01*
X0218750Y0352750D01*
X0218750Y0350750D02*
X0028789Y0350750D01*
X0028750Y0190750D01*
X0218750Y0190750D01*
X0218750Y0350750D01*
D11*
X0001750Y0351750D02*
X0654750Y0351750D01*
X0654750Y0189750D02*
X0001750Y0189750D01*
X0001750Y0027750D02*
X0654750Y0027750D01*
X0603750Y0001750D02*
X0603750Y0564750D01*
X0654750Y0513750D02*
X0001750Y0513750D01*
X0027750Y0564750D02*
X0027750Y0001750D01*
X0219750Y0001750D02*
X0219750Y0564750D01*
X0411750Y0564750D02*
X0411750Y0001750D01*
D12*
X0667541Y0028733D02*
X0668852Y0024800D01*
X0670163Y0028733D01*
X0672834Y0027094D02*
X0676768Y0027094D01*
X0680136Y0027094D02*
X0681774Y0026439D01*
X0681775Y0026439D02*
X0681827Y0026416D01*
X0681878Y0026389D01*
X0681927Y0026359D01*
X0681974Y0026326D01*
X0682019Y0026290D01*
X0682061Y0026250D01*
X0682100Y0026208D01*
X0682136Y0026164D01*
X0682169Y0026117D01*
X0682199Y0026067D01*
X0682226Y0026016D01*
X0682249Y0025964D01*
X0682268Y0025910D01*
X0682284Y0025854D01*
X0682296Y0025798D01*
X0682304Y0025741D01*
X0682308Y0025684D01*
X0682309Y0025626D01*
X0682305Y0025569D01*
X0682298Y0025512D01*
X0682286Y0025455D01*
X0682271Y0025400D01*
X0682253Y0025345D01*
X0682230Y0025292D01*
X0682204Y0025241D01*
X0682175Y0025192D01*
X0682142Y0025144D01*
X0682106Y0025099D01*
X0682068Y0025057D01*
X0682026Y0025017D01*
X0681982Y0024980D01*
X0681935Y0024946D01*
X0681887Y0024915D01*
X0681836Y0024888D01*
X0681784Y0024864D01*
X0681730Y0024844D01*
X0681675Y0024828D01*
X0681619Y0024815D01*
X0681562Y0024806D01*
X0681504Y0024801D01*
X0681447Y0024800D01*
X0681938Y0028405D02*
X0681831Y0028451D01*
X0681722Y0028494D01*
X0681612Y0028534D01*
X0681500Y0028570D01*
X0681388Y0028602D01*
X0681274Y0028631D01*
X0681160Y0028657D01*
X0681045Y0028678D01*
X0680930Y0028697D01*
X0680813Y0028711D01*
X0680697Y0028722D01*
X0680580Y0028729D01*
X0680463Y0028733D01*
X0680463Y0028734D02*
X0680406Y0028733D01*
X0680348Y0028728D01*
X0680291Y0028719D01*
X0680235Y0028706D01*
X0680180Y0028690D01*
X0680126Y0028670D01*
X0680074Y0028646D01*
X0680023Y0028619D01*
X0679975Y0028588D01*
X0679928Y0028554D01*
X0679884Y0028517D01*
X0679842Y0028477D01*
X0679804Y0028435D01*
X0679768Y0028390D01*
X0679735Y0028342D01*
X0679706Y0028293D01*
X0679680Y0028242D01*
X0679657Y0028189D01*
X0679639Y0028134D01*
X0679624Y0028079D01*
X0679612Y0028022D01*
X0679605Y0027965D01*
X0679601Y0027908D01*
X0679602Y0027850D01*
X0679606Y0027793D01*
X0679614Y0027736D01*
X0679626Y0027680D01*
X0679642Y0027624D01*
X0679661Y0027570D01*
X0679684Y0027518D01*
X0679711Y0027467D01*
X0679741Y0027417D01*
X0679774Y0027370D01*
X0679810Y0027326D01*
X0679849Y0027284D01*
X0679891Y0027244D01*
X0679936Y0027208D01*
X0679983Y0027175D01*
X0680032Y0027145D01*
X0680083Y0027118D01*
X0680135Y0027095D01*
X0679644Y0025128D02*
X0679778Y0025082D01*
X0679913Y0025039D01*
X0680049Y0025000D01*
X0680186Y0024964D01*
X0680323Y0024932D01*
X0680462Y0024903D01*
X0680601Y0024877D01*
X0680741Y0024856D01*
X0680882Y0024837D01*
X0681022Y0024823D01*
X0681164Y0024812D01*
X0681305Y0024804D01*
X0681447Y0024801D01*
X0684988Y0025783D02*
X0684988Y0027750D01*
X0684990Y0027812D01*
X0684996Y0027873D01*
X0685005Y0027934D01*
X0685019Y0027994D01*
X0685036Y0028054D01*
X0685057Y0028112D01*
X0685082Y0028169D01*
X0685110Y0028224D01*
X0685141Y0028277D01*
X0685176Y0028328D01*
X0685214Y0028377D01*
X0685254Y0028423D01*
X0685298Y0028467D01*
X0685344Y0028507D01*
X0685393Y0028545D01*
X0685444Y0028580D01*
X0685497Y0028611D01*
X0685552Y0028639D01*
X0685609Y0028664D01*
X0685667Y0028685D01*
X0685727Y0028702D01*
X0685787Y0028716D01*
X0685848Y0028725D01*
X0685909Y0028731D01*
X0685971Y0028733D01*
X0687282Y0028733D01*
X0689695Y0027422D02*
X0689695Y0026111D01*
X0689696Y0026111D02*
X0689698Y0026040D01*
X0689704Y0025969D01*
X0689713Y0025899D01*
X0689727Y0025829D01*
X0689744Y0025760D01*
X0689765Y0025692D01*
X0689789Y0025626D01*
X0689817Y0025561D01*
X0689849Y0025497D01*
X0689884Y0025435D01*
X0689922Y0025375D01*
X0689963Y0025318D01*
X0690008Y0025262D01*
X0690055Y0025209D01*
X0690105Y0025159D01*
X0690158Y0025112D01*
X0690214Y0025067D01*
X0690271Y0025026D01*
X0690331Y0024988D01*
X0690393Y0024953D01*
X0690457Y0024921D01*
X0690522Y0024893D01*
X0690588Y0024869D01*
X0690656Y0024848D01*
X0690725Y0024831D01*
X0690795Y0024817D01*
X0690865Y0024808D01*
X0690936Y0024802D01*
X0691007Y0024800D01*
X0691078Y0024802D01*
X0691149Y0024808D01*
X0691219Y0024817D01*
X0691289Y0024831D01*
X0691358Y0024848D01*
X0691426Y0024869D01*
X0691492Y0024893D01*
X0691557Y0024921D01*
X0691621Y0024953D01*
X0691683Y0024988D01*
X0691743Y0025026D01*
X0691800Y0025067D01*
X0691856Y0025112D01*
X0691909Y0025159D01*
X0691959Y0025209D01*
X0692006Y0025262D01*
X0692051Y0025318D01*
X0692092Y0025375D01*
X0692130Y0025435D01*
X0692165Y0025497D01*
X0692197Y0025561D01*
X0692225Y0025626D01*
X0692249Y0025692D01*
X0692270Y0025760D01*
X0692287Y0025829D01*
X0692301Y0025899D01*
X0692310Y0025969D01*
X0692316Y0026040D01*
X0692318Y0026111D01*
X0692318Y0027422D01*
X0692316Y0027493D01*
X0692310Y0027564D01*
X0692301Y0027634D01*
X0692287Y0027704D01*
X0692270Y0027773D01*
X0692249Y0027841D01*
X0692225Y0027907D01*
X0692197Y0027972D01*
X0692165Y0028036D01*
X0692130Y0028098D01*
X0692092Y0028158D01*
X0692051Y0028215D01*
X0692006Y0028271D01*
X0691959Y0028324D01*
X0691909Y0028374D01*
X0691856Y0028421D01*
X0691800Y0028466D01*
X0691743Y0028507D01*
X0691683Y0028545D01*
X0691621Y0028580D01*
X0691557Y0028612D01*
X0691492Y0028640D01*
X0691426Y0028664D01*
X0691358Y0028685D01*
X0691289Y0028702D01*
X0691219Y0028716D01*
X0691149Y0028725D01*
X0691078Y0028731D01*
X0691007Y0028733D01*
X0690936Y0028731D01*
X0690865Y0028725D01*
X0690795Y0028716D01*
X0690725Y0028702D01*
X0690656Y0028685D01*
X0690588Y0028664D01*
X0690522Y0028640D01*
X0690457Y0028612D01*
X0690393Y0028580D01*
X0690331Y0028545D01*
X0690271Y0028507D01*
X0690214Y0028466D01*
X0690158Y0028421D01*
X0690105Y0028374D01*
X0690055Y0028324D01*
X0690008Y0028271D01*
X0689963Y0028215D01*
X0689922Y0028158D01*
X0689884Y0028098D01*
X0689849Y0028036D01*
X0689817Y0027972D01*
X0689789Y0027907D01*
X0689765Y0027841D01*
X0689744Y0027773D01*
X0689727Y0027704D01*
X0689713Y0027634D01*
X0689704Y0027564D01*
X0689698Y0027493D01*
X0689696Y0027422D01*
X0687282Y0024800D02*
X0685971Y0024800D01*
X0685909Y0024802D01*
X0685848Y0024808D01*
X0685787Y0024817D01*
X0685727Y0024831D01*
X0685667Y0024848D01*
X0685609Y0024869D01*
X0685552Y0024894D01*
X0685497Y0024922D01*
X0685444Y0024953D01*
X0685393Y0024988D01*
X0685344Y0025026D01*
X0685298Y0025066D01*
X0685254Y0025110D01*
X0685214Y0025156D01*
X0685176Y0025205D01*
X0685141Y0025256D01*
X0685110Y0025309D01*
X0685082Y0025364D01*
X0685057Y0025421D01*
X0685036Y0025479D01*
X0685019Y0025539D01*
X0685005Y0025599D01*
X0684996Y0025660D01*
X0684990Y0025721D01*
X0684988Y0025783D01*
X0695284Y0024800D02*
X0695284Y0028733D01*
X0697251Y0028733D01*
X0697251Y0028078D01*
X0699337Y0027422D02*
X0699337Y0025783D01*
X0699339Y0025721D01*
X0699345Y0025660D01*
X0699354Y0025599D01*
X0699368Y0025539D01*
X0699385Y0025479D01*
X0699406Y0025421D01*
X0699431Y0025364D01*
X0699459Y0025309D01*
X0699490Y0025256D01*
X0699525Y0025205D01*
X0699563Y0025156D01*
X0699603Y0025110D01*
X0699647Y0025066D01*
X0699693Y0025026D01*
X0699742Y0024988D01*
X0699793Y0024953D01*
X0699846Y0024922D01*
X0699901Y0024894D01*
X0699958Y0024869D01*
X0700016Y0024848D01*
X0700076Y0024831D01*
X0700136Y0024817D01*
X0700197Y0024808D01*
X0700258Y0024802D01*
X0700320Y0024800D01*
X0701959Y0024800D01*
X0701959Y0026767D02*
X0699337Y0026767D01*
X0699337Y0027422D02*
X0699339Y0027493D01*
X0699345Y0027564D01*
X0699354Y0027634D01*
X0699368Y0027704D01*
X0699385Y0027773D01*
X0699406Y0027841D01*
X0699430Y0027907D01*
X0699458Y0027972D01*
X0699490Y0028036D01*
X0699525Y0028098D01*
X0699563Y0028158D01*
X0699604Y0028215D01*
X0699649Y0028271D01*
X0699696Y0028324D01*
X0699746Y0028374D01*
X0699799Y0028421D01*
X0699855Y0028466D01*
X0699912Y0028507D01*
X0699972Y0028545D01*
X0700034Y0028580D01*
X0700098Y0028612D01*
X0700163Y0028640D01*
X0700229Y0028664D01*
X0700297Y0028685D01*
X0700366Y0028702D01*
X0700436Y0028716D01*
X0700506Y0028725D01*
X0700577Y0028731D01*
X0700648Y0028733D01*
X0700719Y0028731D01*
X0700790Y0028725D01*
X0700860Y0028716D01*
X0700930Y0028702D01*
X0700999Y0028685D01*
X0701067Y0028664D01*
X0701133Y0028640D01*
X0701198Y0028612D01*
X0701262Y0028580D01*
X0701324Y0028545D01*
X0701384Y0028507D01*
X0701441Y0028466D01*
X0701497Y0028421D01*
X0701550Y0028374D01*
X0701600Y0028324D01*
X0701647Y0028271D01*
X0701692Y0028215D01*
X0701733Y0028158D01*
X0701771Y0028098D01*
X0701806Y0028036D01*
X0701838Y0027972D01*
X0701866Y0027907D01*
X0701890Y0027841D01*
X0701911Y0027773D01*
X0701928Y0027704D01*
X0701942Y0027634D01*
X0701951Y0027564D01*
X0701957Y0027493D01*
X0701959Y0027422D01*
X0701959Y0026767D01*
X0701959Y0186800D02*
X0700320Y0186800D01*
X0700258Y0186802D01*
X0700197Y0186808D01*
X0700136Y0186817D01*
X0700076Y0186831D01*
X0700016Y0186848D01*
X0699958Y0186869D01*
X0699901Y0186894D01*
X0699846Y0186922D01*
X0699793Y0186953D01*
X0699742Y0186988D01*
X0699693Y0187026D01*
X0699647Y0187066D01*
X0699603Y0187110D01*
X0699563Y0187156D01*
X0699525Y0187205D01*
X0699490Y0187256D01*
X0699459Y0187309D01*
X0699431Y0187364D01*
X0699406Y0187421D01*
X0699385Y0187479D01*
X0699368Y0187539D01*
X0699354Y0187599D01*
X0699345Y0187660D01*
X0699339Y0187721D01*
X0699337Y0187783D01*
X0699337Y0189422D01*
X0699337Y0188767D02*
X0701959Y0188767D01*
X0701959Y0189422D01*
X0701957Y0189493D01*
X0701951Y0189564D01*
X0701942Y0189634D01*
X0701928Y0189704D01*
X0701911Y0189773D01*
X0701890Y0189841D01*
X0701866Y0189907D01*
X0701838Y0189972D01*
X0701806Y0190036D01*
X0701771Y0190098D01*
X0701733Y0190158D01*
X0701692Y0190215D01*
X0701647Y0190271D01*
X0701600Y0190324D01*
X0701550Y0190374D01*
X0701497Y0190421D01*
X0701441Y0190466D01*
X0701384Y0190507D01*
X0701324Y0190545D01*
X0701262Y0190580D01*
X0701198Y0190612D01*
X0701133Y0190640D01*
X0701067Y0190664D01*
X0700999Y0190685D01*
X0700930Y0190702D01*
X0700860Y0190716D01*
X0700790Y0190725D01*
X0700719Y0190731D01*
X0700648Y0190733D01*
X0700577Y0190731D01*
X0700506Y0190725D01*
X0700436Y0190716D01*
X0700366Y0190702D01*
X0700297Y0190685D01*
X0700229Y0190664D01*
X0700163Y0190640D01*
X0700098Y0190612D01*
X0700034Y0190580D01*
X0699972Y0190545D01*
X0699912Y0190507D01*
X0699855Y0190466D01*
X0699799Y0190421D01*
X0699746Y0190374D01*
X0699696Y0190324D01*
X0699649Y0190271D01*
X0699604Y0190215D01*
X0699563Y0190158D01*
X0699525Y0190098D01*
X0699490Y0190036D01*
X0699458Y0189972D01*
X0699430Y0189907D01*
X0699406Y0189841D01*
X0699385Y0189773D01*
X0699368Y0189704D01*
X0699354Y0189634D01*
X0699345Y0189564D01*
X0699339Y0189493D01*
X0699337Y0189422D01*
X0697251Y0190078D02*
X0697251Y0190733D01*
X0695284Y0190733D01*
X0695284Y0186800D01*
X0692318Y0188111D02*
X0692318Y0189422D01*
X0692316Y0189493D01*
X0692310Y0189564D01*
X0692301Y0189634D01*
X0692287Y0189704D01*
X0692270Y0189773D01*
X0692249Y0189841D01*
X0692225Y0189907D01*
X0692197Y0189972D01*
X0692165Y0190036D01*
X0692130Y0190098D01*
X0692092Y0190158D01*
X0692051Y0190215D01*
X0692006Y0190271D01*
X0691959Y0190324D01*
X0691909Y0190374D01*
X0691856Y0190421D01*
X0691800Y0190466D01*
X0691743Y0190507D01*
X0691683Y0190545D01*
X0691621Y0190580D01*
X0691557Y0190612D01*
X0691492Y0190640D01*
X0691426Y0190664D01*
X0691358Y0190685D01*
X0691289Y0190702D01*
X0691219Y0190716D01*
X0691149Y0190725D01*
X0691078Y0190731D01*
X0691007Y0190733D01*
X0690936Y0190731D01*
X0690865Y0190725D01*
X0690795Y0190716D01*
X0690725Y0190702D01*
X0690656Y0190685D01*
X0690588Y0190664D01*
X0690522Y0190640D01*
X0690457Y0190612D01*
X0690393Y0190580D01*
X0690331Y0190545D01*
X0690271Y0190507D01*
X0690214Y0190466D01*
X0690158Y0190421D01*
X0690105Y0190374D01*
X0690055Y0190324D01*
X0690008Y0190271D01*
X0689963Y0190215D01*
X0689922Y0190158D01*
X0689884Y0190098D01*
X0689849Y0190036D01*
X0689817Y0189972D01*
X0689789Y0189907D01*
X0689765Y0189841D01*
X0689744Y0189773D01*
X0689727Y0189704D01*
X0689713Y0189634D01*
X0689704Y0189564D01*
X0689698Y0189493D01*
X0689696Y0189422D01*
X0689695Y0189422D02*
X0689695Y0188111D01*
X0689696Y0188111D02*
X0689698Y0188040D01*
X0689704Y0187969D01*
X0689713Y0187899D01*
X0689727Y0187829D01*
X0689744Y0187760D01*
X0689765Y0187692D01*
X0689789Y0187626D01*
X0689817Y0187561D01*
X0689849Y0187497D01*
X0689884Y0187435D01*
X0689922Y0187375D01*
X0689963Y0187318D01*
X0690008Y0187262D01*
X0690055Y0187209D01*
X0690105Y0187159D01*
X0690158Y0187112D01*
X0690214Y0187067D01*
X0690271Y0187026D01*
X0690331Y0186988D01*
X0690393Y0186953D01*
X0690457Y0186921D01*
X0690522Y0186893D01*
X0690588Y0186869D01*
X0690656Y0186848D01*
X0690725Y0186831D01*
X0690795Y0186817D01*
X0690865Y0186808D01*
X0690936Y0186802D01*
X0691007Y0186800D01*
X0691078Y0186802D01*
X0691149Y0186808D01*
X0691219Y0186817D01*
X0691289Y0186831D01*
X0691358Y0186848D01*
X0691426Y0186869D01*
X0691492Y0186893D01*
X0691557Y0186921D01*
X0691621Y0186953D01*
X0691683Y0186988D01*
X0691743Y0187026D01*
X0691800Y0187067D01*
X0691856Y0187112D01*
X0691909Y0187159D01*
X0691959Y0187209D01*
X0692006Y0187262D01*
X0692051Y0187318D01*
X0692092Y0187375D01*
X0692130Y0187435D01*
X0692165Y0187497D01*
X0692197Y0187561D01*
X0692225Y0187626D01*
X0692249Y0187692D01*
X0692270Y0187760D01*
X0692287Y0187829D01*
X0692301Y0187899D01*
X0692310Y0187969D01*
X0692316Y0188040D01*
X0692318Y0188111D01*
X0687282Y0186800D02*
X0685971Y0186800D01*
X0685909Y0186802D01*
X0685848Y0186808D01*
X0685787Y0186817D01*
X0685727Y0186831D01*
X0685667Y0186848D01*
X0685609Y0186869D01*
X0685552Y0186894D01*
X0685497Y0186922D01*
X0685444Y0186953D01*
X0685393Y0186988D01*
X0685344Y0187026D01*
X0685298Y0187066D01*
X0685254Y0187110D01*
X0685214Y0187156D01*
X0685176Y0187205D01*
X0685141Y0187256D01*
X0685110Y0187309D01*
X0685082Y0187364D01*
X0685057Y0187421D01*
X0685036Y0187479D01*
X0685019Y0187539D01*
X0685005Y0187599D01*
X0684996Y0187660D01*
X0684990Y0187721D01*
X0684988Y0187783D01*
X0684988Y0189750D01*
X0684990Y0189812D01*
X0684996Y0189873D01*
X0685005Y0189934D01*
X0685019Y0189994D01*
X0685036Y0190054D01*
X0685057Y0190112D01*
X0685082Y0190169D01*
X0685110Y0190224D01*
X0685141Y0190277D01*
X0685176Y0190328D01*
X0685214Y0190377D01*
X0685254Y0190423D01*
X0685298Y0190467D01*
X0685344Y0190507D01*
X0685393Y0190545D01*
X0685444Y0190580D01*
X0685497Y0190611D01*
X0685552Y0190639D01*
X0685609Y0190664D01*
X0685667Y0190685D01*
X0685727Y0190702D01*
X0685787Y0190716D01*
X0685848Y0190725D01*
X0685909Y0190731D01*
X0685971Y0190733D01*
X0687282Y0190733D01*
X0681774Y0188439D02*
X0680136Y0189094D01*
X0680135Y0189095D02*
X0680083Y0189118D01*
X0680032Y0189145D01*
X0679983Y0189175D01*
X0679936Y0189208D01*
X0679891Y0189244D01*
X0679849Y0189284D01*
X0679810Y0189326D01*
X0679774Y0189370D01*
X0679741Y0189417D01*
X0679711Y0189467D01*
X0679684Y0189518D01*
X0679661Y0189570D01*
X0679642Y0189624D01*
X0679626Y0189680D01*
X0679614Y0189736D01*
X0679606Y0189793D01*
X0679602Y0189850D01*
X0679601Y0189908D01*
X0679605Y0189965D01*
X0679612Y0190022D01*
X0679624Y0190079D01*
X0679639Y0190134D01*
X0679657Y0190189D01*
X0679680Y0190242D01*
X0679706Y0190293D01*
X0679735Y0190342D01*
X0679768Y0190390D01*
X0679804Y0190435D01*
X0679842Y0190477D01*
X0679884Y0190517D01*
X0679928Y0190554D01*
X0679975Y0190588D01*
X0680023Y0190619D01*
X0680074Y0190646D01*
X0680126Y0190670D01*
X0680180Y0190690D01*
X0680235Y0190706D01*
X0680291Y0190719D01*
X0680348Y0190728D01*
X0680406Y0190733D01*
X0680463Y0190734D01*
X0679644Y0187128D02*
X0679778Y0187082D01*
X0679913Y0187039D01*
X0680049Y0187000D01*
X0680186Y0186964D01*
X0680323Y0186932D01*
X0680462Y0186903D01*
X0680601Y0186877D01*
X0680741Y0186856D01*
X0680882Y0186837D01*
X0681022Y0186823D01*
X0681164Y0186812D01*
X0681305Y0186804D01*
X0681447Y0186801D01*
X0681447Y0186800D02*
X0681504Y0186801D01*
X0681562Y0186806D01*
X0681619Y0186815D01*
X0681675Y0186828D01*
X0681730Y0186844D01*
X0681784Y0186864D01*
X0681836Y0186888D01*
X0681887Y0186915D01*
X0681935Y0186946D01*
X0681982Y0186980D01*
X0682026Y0187017D01*
X0682068Y0187057D01*
X0682106Y0187099D01*
X0682142Y0187144D01*
X0682175Y0187192D01*
X0682204Y0187241D01*
X0682230Y0187292D01*
X0682253Y0187345D01*
X0682271Y0187400D01*
X0682286Y0187455D01*
X0682298Y0187512D01*
X0682305Y0187569D01*
X0682309Y0187626D01*
X0682308Y0187684D01*
X0682304Y0187741D01*
X0682296Y0187798D01*
X0682284Y0187854D01*
X0682268Y0187910D01*
X0682249Y0187964D01*
X0682226Y0188016D01*
X0682199Y0188067D01*
X0682169Y0188117D01*
X0682136Y0188164D01*
X0682100Y0188208D01*
X0682061Y0188250D01*
X0682019Y0188290D01*
X0681974Y0188326D01*
X0681927Y0188359D01*
X0681878Y0188389D01*
X0681827Y0188416D01*
X0681775Y0188439D01*
X0681938Y0190405D02*
X0681831Y0190451D01*
X0681722Y0190494D01*
X0681612Y0190534D01*
X0681500Y0190570D01*
X0681388Y0190602D01*
X0681274Y0190631D01*
X0681160Y0190657D01*
X0681045Y0190678D01*
X0680930Y0190697D01*
X0680813Y0190711D01*
X0680697Y0190722D01*
X0680580Y0190729D01*
X0680463Y0190733D01*
X0676768Y0189094D02*
X0672834Y0189094D01*
X0670163Y0190733D02*
X0668852Y0186800D01*
X0667541Y0190733D01*
X0668852Y0348800D02*
X0670163Y0352733D01*
X0667541Y0352733D02*
X0668852Y0348800D01*
X0672834Y0351094D02*
X0676768Y0351094D01*
X0680136Y0351094D02*
X0681774Y0350439D01*
X0681775Y0350439D02*
X0681827Y0350416D01*
X0681878Y0350389D01*
X0681927Y0350359D01*
X0681974Y0350326D01*
X0682019Y0350290D01*
X0682061Y0350250D01*
X0682100Y0350208D01*
X0682136Y0350164D01*
X0682169Y0350117D01*
X0682199Y0350067D01*
X0682226Y0350016D01*
X0682249Y0349964D01*
X0682268Y0349910D01*
X0682284Y0349854D01*
X0682296Y0349798D01*
X0682304Y0349741D01*
X0682308Y0349684D01*
X0682309Y0349626D01*
X0682305Y0349569D01*
X0682298Y0349512D01*
X0682286Y0349455D01*
X0682271Y0349400D01*
X0682253Y0349345D01*
X0682230Y0349292D01*
X0682204Y0349241D01*
X0682175Y0349192D01*
X0682142Y0349144D01*
X0682106Y0349099D01*
X0682068Y0349057D01*
X0682026Y0349017D01*
X0681982Y0348980D01*
X0681935Y0348946D01*
X0681887Y0348915D01*
X0681836Y0348888D01*
X0681784Y0348864D01*
X0681730Y0348844D01*
X0681675Y0348828D01*
X0681619Y0348815D01*
X0681562Y0348806D01*
X0681504Y0348801D01*
X0681447Y0348800D01*
X0681938Y0352405D02*
X0681831Y0352451D01*
X0681722Y0352494D01*
X0681612Y0352534D01*
X0681500Y0352570D01*
X0681388Y0352602D01*
X0681274Y0352631D01*
X0681160Y0352657D01*
X0681045Y0352678D01*
X0680930Y0352697D01*
X0680813Y0352711D01*
X0680697Y0352722D01*
X0680580Y0352729D01*
X0680463Y0352733D01*
X0680463Y0352734D02*
X0680406Y0352733D01*
X0680348Y0352728D01*
X0680291Y0352719D01*
X0680235Y0352706D01*
X0680180Y0352690D01*
X0680126Y0352670D01*
X0680074Y0352646D01*
X0680023Y0352619D01*
X0679975Y0352588D01*
X0679928Y0352554D01*
X0679884Y0352517D01*
X0679842Y0352477D01*
X0679804Y0352435D01*
X0679768Y0352390D01*
X0679735Y0352342D01*
X0679706Y0352293D01*
X0679680Y0352242D01*
X0679657Y0352189D01*
X0679639Y0352134D01*
X0679624Y0352079D01*
X0679612Y0352022D01*
X0679605Y0351965D01*
X0679601Y0351908D01*
X0679602Y0351850D01*
X0679606Y0351793D01*
X0679614Y0351736D01*
X0679626Y0351680D01*
X0679642Y0351624D01*
X0679661Y0351570D01*
X0679684Y0351518D01*
X0679711Y0351467D01*
X0679741Y0351417D01*
X0679774Y0351370D01*
X0679810Y0351326D01*
X0679849Y0351284D01*
X0679891Y0351244D01*
X0679936Y0351208D01*
X0679983Y0351175D01*
X0680032Y0351145D01*
X0680083Y0351118D01*
X0680135Y0351095D01*
X0679644Y0349128D02*
X0679778Y0349082D01*
X0679913Y0349039D01*
X0680049Y0349000D01*
X0680186Y0348964D01*
X0680323Y0348932D01*
X0680462Y0348903D01*
X0680601Y0348877D01*
X0680741Y0348856D01*
X0680882Y0348837D01*
X0681022Y0348823D01*
X0681164Y0348812D01*
X0681305Y0348804D01*
X0681447Y0348801D01*
X0684988Y0349783D02*
X0684988Y0351750D01*
X0684990Y0351812D01*
X0684996Y0351873D01*
X0685005Y0351934D01*
X0685019Y0351994D01*
X0685036Y0352054D01*
X0685057Y0352112D01*
X0685082Y0352169D01*
X0685110Y0352224D01*
X0685141Y0352277D01*
X0685176Y0352328D01*
X0685214Y0352377D01*
X0685254Y0352423D01*
X0685298Y0352467D01*
X0685344Y0352507D01*
X0685393Y0352545D01*
X0685444Y0352580D01*
X0685497Y0352611D01*
X0685552Y0352639D01*
X0685609Y0352664D01*
X0685667Y0352685D01*
X0685727Y0352702D01*
X0685787Y0352716D01*
X0685848Y0352725D01*
X0685909Y0352731D01*
X0685971Y0352733D01*
X0687282Y0352733D01*
X0689695Y0351422D02*
X0689695Y0350111D01*
X0689696Y0350111D02*
X0689698Y0350040D01*
X0689704Y0349969D01*
X0689713Y0349899D01*
X0689727Y0349829D01*
X0689744Y0349760D01*
X0689765Y0349692D01*
X0689789Y0349626D01*
X0689817Y0349561D01*
X0689849Y0349497D01*
X0689884Y0349435D01*
X0689922Y0349375D01*
X0689963Y0349318D01*
X0690008Y0349262D01*
X0690055Y0349209D01*
X0690105Y0349159D01*
X0690158Y0349112D01*
X0690214Y0349067D01*
X0690271Y0349026D01*
X0690331Y0348988D01*
X0690393Y0348953D01*
X0690457Y0348921D01*
X0690522Y0348893D01*
X0690588Y0348869D01*
X0690656Y0348848D01*
X0690725Y0348831D01*
X0690795Y0348817D01*
X0690865Y0348808D01*
X0690936Y0348802D01*
X0691007Y0348800D01*
X0691078Y0348802D01*
X0691149Y0348808D01*
X0691219Y0348817D01*
X0691289Y0348831D01*
X0691358Y0348848D01*
X0691426Y0348869D01*
X0691492Y0348893D01*
X0691557Y0348921D01*
X0691621Y0348953D01*
X0691683Y0348988D01*
X0691743Y0349026D01*
X0691800Y0349067D01*
X0691856Y0349112D01*
X0691909Y0349159D01*
X0691959Y0349209D01*
X0692006Y0349262D01*
X0692051Y0349318D01*
X0692092Y0349375D01*
X0692130Y0349435D01*
X0692165Y0349497D01*
X0692197Y0349561D01*
X0692225Y0349626D01*
X0692249Y0349692D01*
X0692270Y0349760D01*
X0692287Y0349829D01*
X0692301Y0349899D01*
X0692310Y0349969D01*
X0692316Y0350040D01*
X0692318Y0350111D01*
X0692318Y0351422D01*
X0692316Y0351493D01*
X0692310Y0351564D01*
X0692301Y0351634D01*
X0692287Y0351704D01*
X0692270Y0351773D01*
X0692249Y0351841D01*
X0692225Y0351907D01*
X0692197Y0351972D01*
X0692165Y0352036D01*
X0692130Y0352098D01*
X0692092Y0352158D01*
X0692051Y0352215D01*
X0692006Y0352271D01*
X0691959Y0352324D01*
X0691909Y0352374D01*
X0691856Y0352421D01*
X0691800Y0352466D01*
X0691743Y0352507D01*
X0691683Y0352545D01*
X0691621Y0352580D01*
X0691557Y0352612D01*
X0691492Y0352640D01*
X0691426Y0352664D01*
X0691358Y0352685D01*
X0691289Y0352702D01*
X0691219Y0352716D01*
X0691149Y0352725D01*
X0691078Y0352731D01*
X0691007Y0352733D01*
X0690936Y0352731D01*
X0690865Y0352725D01*
X0690795Y0352716D01*
X0690725Y0352702D01*
X0690656Y0352685D01*
X0690588Y0352664D01*
X0690522Y0352640D01*
X0690457Y0352612D01*
X0690393Y0352580D01*
X0690331Y0352545D01*
X0690271Y0352507D01*
X0690214Y0352466D01*
X0690158Y0352421D01*
X0690105Y0352374D01*
X0690055Y0352324D01*
X0690008Y0352271D01*
X0689963Y0352215D01*
X0689922Y0352158D01*
X0689884Y0352098D01*
X0689849Y0352036D01*
X0689817Y0351972D01*
X0689789Y0351907D01*
X0689765Y0351841D01*
X0689744Y0351773D01*
X0689727Y0351704D01*
X0689713Y0351634D01*
X0689704Y0351564D01*
X0689698Y0351493D01*
X0689696Y0351422D01*
X0687282Y0348800D02*
X0685971Y0348800D01*
X0685909Y0348802D01*
X0685848Y0348808D01*
X0685787Y0348817D01*
X0685727Y0348831D01*
X0685667Y0348848D01*
X0685609Y0348869D01*
X0685552Y0348894D01*
X0685497Y0348922D01*
X0685444Y0348953D01*
X0685393Y0348988D01*
X0685344Y0349026D01*
X0685298Y0349066D01*
X0685254Y0349110D01*
X0685214Y0349156D01*
X0685176Y0349205D01*
X0685141Y0349256D01*
X0685110Y0349309D01*
X0685082Y0349364D01*
X0685057Y0349421D01*
X0685036Y0349479D01*
X0685019Y0349539D01*
X0685005Y0349599D01*
X0684996Y0349660D01*
X0684990Y0349721D01*
X0684988Y0349783D01*
X0695284Y0348800D02*
X0695284Y0352733D01*
X0697251Y0352733D01*
X0697251Y0352078D01*
X0699337Y0351422D02*
X0699337Y0349783D01*
X0699339Y0349721D01*
X0699345Y0349660D01*
X0699354Y0349599D01*
X0699368Y0349539D01*
X0699385Y0349479D01*
X0699406Y0349421D01*
X0699431Y0349364D01*
X0699459Y0349309D01*
X0699490Y0349256D01*
X0699525Y0349205D01*
X0699563Y0349156D01*
X0699603Y0349110D01*
X0699647Y0349066D01*
X0699693Y0349026D01*
X0699742Y0348988D01*
X0699793Y0348953D01*
X0699846Y0348922D01*
X0699901Y0348894D01*
X0699958Y0348869D01*
X0700016Y0348848D01*
X0700076Y0348831D01*
X0700136Y0348817D01*
X0700197Y0348808D01*
X0700258Y0348802D01*
X0700320Y0348800D01*
X0701959Y0348800D01*
X0701959Y0350767D02*
X0699337Y0350767D01*
X0699337Y0351422D02*
X0699339Y0351493D01*
X0699345Y0351564D01*
X0699354Y0351634D01*
X0699368Y0351704D01*
X0699385Y0351773D01*
X0699406Y0351841D01*
X0699430Y0351907D01*
X0699458Y0351972D01*
X0699490Y0352036D01*
X0699525Y0352098D01*
X0699563Y0352158D01*
X0699604Y0352215D01*
X0699649Y0352271D01*
X0699696Y0352324D01*
X0699746Y0352374D01*
X0699799Y0352421D01*
X0699855Y0352466D01*
X0699912Y0352507D01*
X0699972Y0352545D01*
X0700034Y0352580D01*
X0700098Y0352612D01*
X0700163Y0352640D01*
X0700229Y0352664D01*
X0700297Y0352685D01*
X0700366Y0352702D01*
X0700436Y0352716D01*
X0700506Y0352725D01*
X0700577Y0352731D01*
X0700648Y0352733D01*
X0700719Y0352731D01*
X0700790Y0352725D01*
X0700860Y0352716D01*
X0700930Y0352702D01*
X0700999Y0352685D01*
X0701067Y0352664D01*
X0701133Y0352640D01*
X0701198Y0352612D01*
X0701262Y0352580D01*
X0701324Y0352545D01*
X0701384Y0352507D01*
X0701441Y0352466D01*
X0701497Y0352421D01*
X0701550Y0352374D01*
X0701600Y0352324D01*
X0701647Y0352271D01*
X0701692Y0352215D01*
X0701733Y0352158D01*
X0701771Y0352098D01*
X0701806Y0352036D01*
X0701838Y0351972D01*
X0701866Y0351907D01*
X0701890Y0351841D01*
X0701911Y0351773D01*
X0701928Y0351704D01*
X0701942Y0351634D01*
X0701951Y0351564D01*
X0701957Y0351493D01*
X0701959Y0351422D01*
X0701959Y0350767D01*
X0701959Y0510800D02*
X0700320Y0510800D01*
X0700258Y0510802D01*
X0700197Y0510808D01*
X0700136Y0510817D01*
X0700076Y0510831D01*
X0700016Y0510848D01*
X0699958Y0510869D01*
X0699901Y0510894D01*
X0699846Y0510922D01*
X0699793Y0510953D01*
X0699742Y0510988D01*
X0699693Y0511026D01*
X0699647Y0511066D01*
X0699603Y0511110D01*
X0699563Y0511156D01*
X0699525Y0511205D01*
X0699490Y0511256D01*
X0699459Y0511309D01*
X0699431Y0511364D01*
X0699406Y0511421D01*
X0699385Y0511479D01*
X0699368Y0511539D01*
X0699354Y0511599D01*
X0699345Y0511660D01*
X0699339Y0511721D01*
X0699337Y0511783D01*
X0699337Y0513422D01*
X0699337Y0512767D02*
X0701959Y0512767D01*
X0701959Y0513422D01*
X0701957Y0513493D01*
X0701951Y0513564D01*
X0701942Y0513634D01*
X0701928Y0513704D01*
X0701911Y0513773D01*
X0701890Y0513841D01*
X0701866Y0513907D01*
X0701838Y0513972D01*
X0701806Y0514036D01*
X0701771Y0514098D01*
X0701733Y0514158D01*
X0701692Y0514215D01*
X0701647Y0514271D01*
X0701600Y0514324D01*
X0701550Y0514374D01*
X0701497Y0514421D01*
X0701441Y0514466D01*
X0701384Y0514507D01*
X0701324Y0514545D01*
X0701262Y0514580D01*
X0701198Y0514612D01*
X0701133Y0514640D01*
X0701067Y0514664D01*
X0700999Y0514685D01*
X0700930Y0514702D01*
X0700860Y0514716D01*
X0700790Y0514725D01*
X0700719Y0514731D01*
X0700648Y0514733D01*
X0700577Y0514731D01*
X0700506Y0514725D01*
X0700436Y0514716D01*
X0700366Y0514702D01*
X0700297Y0514685D01*
X0700229Y0514664D01*
X0700163Y0514640D01*
X0700098Y0514612D01*
X0700034Y0514580D01*
X0699972Y0514545D01*
X0699912Y0514507D01*
X0699855Y0514466D01*
X0699799Y0514421D01*
X0699746Y0514374D01*
X0699696Y0514324D01*
X0699649Y0514271D01*
X0699604Y0514215D01*
X0699563Y0514158D01*
X0699525Y0514098D01*
X0699490Y0514036D01*
X0699458Y0513972D01*
X0699430Y0513907D01*
X0699406Y0513841D01*
X0699385Y0513773D01*
X0699368Y0513704D01*
X0699354Y0513634D01*
X0699345Y0513564D01*
X0699339Y0513493D01*
X0699337Y0513422D01*
X0697251Y0514078D02*
X0697251Y0514733D01*
X0695284Y0514733D01*
X0695284Y0510800D01*
X0692318Y0512111D02*
X0692318Y0513422D01*
X0692316Y0513493D01*
X0692310Y0513564D01*
X0692301Y0513634D01*
X0692287Y0513704D01*
X0692270Y0513773D01*
X0692249Y0513841D01*
X0692225Y0513907D01*
X0692197Y0513972D01*
X0692165Y0514036D01*
X0692130Y0514098D01*
X0692092Y0514158D01*
X0692051Y0514215D01*
X0692006Y0514271D01*
X0691959Y0514324D01*
X0691909Y0514374D01*
X0691856Y0514421D01*
X0691800Y0514466D01*
X0691743Y0514507D01*
X0691683Y0514545D01*
X0691621Y0514580D01*
X0691557Y0514612D01*
X0691492Y0514640D01*
X0691426Y0514664D01*
X0691358Y0514685D01*
X0691289Y0514702D01*
X0691219Y0514716D01*
X0691149Y0514725D01*
X0691078Y0514731D01*
X0691007Y0514733D01*
X0690936Y0514731D01*
X0690865Y0514725D01*
X0690795Y0514716D01*
X0690725Y0514702D01*
X0690656Y0514685D01*
X0690588Y0514664D01*
X0690522Y0514640D01*
X0690457Y0514612D01*
X0690393Y0514580D01*
X0690331Y0514545D01*
X0690271Y0514507D01*
X0690214Y0514466D01*
X0690158Y0514421D01*
X0690105Y0514374D01*
X0690055Y0514324D01*
X0690008Y0514271D01*
X0689963Y0514215D01*
X0689922Y0514158D01*
X0689884Y0514098D01*
X0689849Y0514036D01*
X0689817Y0513972D01*
X0689789Y0513907D01*
X0689765Y0513841D01*
X0689744Y0513773D01*
X0689727Y0513704D01*
X0689713Y0513634D01*
X0689704Y0513564D01*
X0689698Y0513493D01*
X0689696Y0513422D01*
X0689695Y0513422D02*
X0689695Y0512111D01*
X0689696Y0512111D02*
X0689698Y0512040D01*
X0689704Y0511969D01*
X0689713Y0511899D01*
X0689727Y0511829D01*
X0689744Y0511760D01*
X0689765Y0511692D01*
X0689789Y0511626D01*
X0689817Y0511561D01*
X0689849Y0511497D01*
X0689884Y0511435D01*
X0689922Y0511375D01*
X0689963Y0511318D01*
X0690008Y0511262D01*
X0690055Y0511209D01*
X0690105Y0511159D01*
X0690158Y0511112D01*
X0690214Y0511067D01*
X0690271Y0511026D01*
X0690331Y0510988D01*
X0690393Y0510953D01*
X0690457Y0510921D01*
X0690522Y0510893D01*
X0690588Y0510869D01*
X0690656Y0510848D01*
X0690725Y0510831D01*
X0690795Y0510817D01*
X0690865Y0510808D01*
X0690936Y0510802D01*
X0691007Y0510800D01*
X0691078Y0510802D01*
X0691149Y0510808D01*
X0691219Y0510817D01*
X0691289Y0510831D01*
X0691358Y0510848D01*
X0691426Y0510869D01*
X0691492Y0510893D01*
X0691557Y0510921D01*
X0691621Y0510953D01*
X0691683Y0510988D01*
X0691743Y0511026D01*
X0691800Y0511067D01*
X0691856Y0511112D01*
X0691909Y0511159D01*
X0691959Y0511209D01*
X0692006Y0511262D01*
X0692051Y0511318D01*
X0692092Y0511375D01*
X0692130Y0511435D01*
X0692165Y0511497D01*
X0692197Y0511561D01*
X0692225Y0511626D01*
X0692249Y0511692D01*
X0692270Y0511760D01*
X0692287Y0511829D01*
X0692301Y0511899D01*
X0692310Y0511969D01*
X0692316Y0512040D01*
X0692318Y0512111D01*
X0687282Y0510800D02*
X0685971Y0510800D01*
X0685909Y0510802D01*
X0685848Y0510808D01*
X0685787Y0510817D01*
X0685727Y0510831D01*
X0685667Y0510848D01*
X0685609Y0510869D01*
X0685552Y0510894D01*
X0685497Y0510922D01*
X0685444Y0510953D01*
X0685393Y0510988D01*
X0685344Y0511026D01*
X0685298Y0511066D01*
X0685254Y0511110D01*
X0685214Y0511156D01*
X0685176Y0511205D01*
X0685141Y0511256D01*
X0685110Y0511309D01*
X0685082Y0511364D01*
X0685057Y0511421D01*
X0685036Y0511479D01*
X0685019Y0511539D01*
X0685005Y0511599D01*
X0684996Y0511660D01*
X0684990Y0511721D01*
X0684988Y0511783D01*
X0684988Y0513750D01*
X0684990Y0513812D01*
X0684996Y0513873D01*
X0685005Y0513934D01*
X0685019Y0513994D01*
X0685036Y0514054D01*
X0685057Y0514112D01*
X0685082Y0514169D01*
X0685110Y0514224D01*
X0685141Y0514277D01*
X0685176Y0514328D01*
X0685214Y0514377D01*
X0685254Y0514423D01*
X0685298Y0514467D01*
X0685344Y0514507D01*
X0685393Y0514545D01*
X0685444Y0514580D01*
X0685497Y0514611D01*
X0685552Y0514639D01*
X0685609Y0514664D01*
X0685667Y0514685D01*
X0685727Y0514702D01*
X0685787Y0514716D01*
X0685848Y0514725D01*
X0685909Y0514731D01*
X0685971Y0514733D01*
X0687282Y0514733D01*
X0681774Y0512439D02*
X0680136Y0513094D01*
X0680135Y0513095D02*
X0680083Y0513118D01*
X0680032Y0513145D01*
X0679983Y0513175D01*
X0679936Y0513208D01*
X0679891Y0513244D01*
X0679849Y0513284D01*
X0679810Y0513326D01*
X0679774Y0513370D01*
X0679741Y0513417D01*
X0679711Y0513467D01*
X0679684Y0513518D01*
X0679661Y0513570D01*
X0679642Y0513624D01*
X0679626Y0513680D01*
X0679614Y0513736D01*
X0679606Y0513793D01*
X0679602Y0513850D01*
X0679601Y0513908D01*
X0679605Y0513965D01*
X0679612Y0514022D01*
X0679624Y0514079D01*
X0679639Y0514134D01*
X0679657Y0514189D01*
X0679680Y0514242D01*
X0679706Y0514293D01*
X0679735Y0514342D01*
X0679768Y0514390D01*
X0679804Y0514435D01*
X0679842Y0514477D01*
X0679884Y0514517D01*
X0679928Y0514554D01*
X0679975Y0514588D01*
X0680023Y0514619D01*
X0680074Y0514646D01*
X0680126Y0514670D01*
X0680180Y0514690D01*
X0680235Y0514706D01*
X0680291Y0514719D01*
X0680348Y0514728D01*
X0680406Y0514733D01*
X0680463Y0514734D01*
X0679644Y0511128D02*
X0679778Y0511082D01*
X0679913Y0511039D01*
X0680049Y0511000D01*
X0680186Y0510964D01*
X0680323Y0510932D01*
X0680462Y0510903D01*
X0680601Y0510877D01*
X0680741Y0510856D01*
X0680882Y0510837D01*
X0681022Y0510823D01*
X0681164Y0510812D01*
X0681305Y0510804D01*
X0681447Y0510801D01*
X0681447Y0510800D02*
X0681504Y0510801D01*
X0681562Y0510806D01*
X0681619Y0510815D01*
X0681675Y0510828D01*
X0681730Y0510844D01*
X0681784Y0510864D01*
X0681836Y0510888D01*
X0681887Y0510915D01*
X0681935Y0510946D01*
X0681982Y0510980D01*
X0682026Y0511017D01*
X0682068Y0511057D01*
X0682106Y0511099D01*
X0682142Y0511144D01*
X0682175Y0511192D01*
X0682204Y0511241D01*
X0682230Y0511292D01*
X0682253Y0511345D01*
X0682271Y0511400D01*
X0682286Y0511455D01*
X0682298Y0511512D01*
X0682305Y0511569D01*
X0682309Y0511626D01*
X0682308Y0511684D01*
X0682304Y0511741D01*
X0682296Y0511798D01*
X0682284Y0511854D01*
X0682268Y0511910D01*
X0682249Y0511964D01*
X0682226Y0512016D01*
X0682199Y0512067D01*
X0682169Y0512117D01*
X0682136Y0512164D01*
X0682100Y0512208D01*
X0682061Y0512250D01*
X0682019Y0512290D01*
X0681974Y0512326D01*
X0681927Y0512359D01*
X0681878Y0512389D01*
X0681827Y0512416D01*
X0681775Y0512439D01*
X0681938Y0514405D02*
X0681831Y0514451D01*
X0681722Y0514494D01*
X0681612Y0514534D01*
X0681500Y0514570D01*
X0681388Y0514602D01*
X0681274Y0514631D01*
X0681160Y0514657D01*
X0681045Y0514678D01*
X0680930Y0514697D01*
X0680813Y0514711D01*
X0680697Y0514722D01*
X0680580Y0514729D01*
X0680463Y0514733D01*
X0676768Y0513094D02*
X0672834Y0513094D01*
X0670163Y0514733D02*
X0668852Y0510800D01*
X0667541Y0514733D01*
X0620959Y0570800D02*
X0619320Y0570800D01*
X0619258Y0570802D01*
X0619197Y0570808D01*
X0619136Y0570817D01*
X0619076Y0570831D01*
X0619016Y0570848D01*
X0618958Y0570869D01*
X0618901Y0570894D01*
X0618846Y0570922D01*
X0618793Y0570953D01*
X0618742Y0570988D01*
X0618693Y0571026D01*
X0618647Y0571066D01*
X0618603Y0571110D01*
X0618563Y0571156D01*
X0618525Y0571205D01*
X0618490Y0571256D01*
X0618459Y0571309D01*
X0618431Y0571364D01*
X0618406Y0571421D01*
X0618385Y0571479D01*
X0618368Y0571539D01*
X0618354Y0571599D01*
X0618345Y0571660D01*
X0618339Y0571721D01*
X0618337Y0571783D01*
X0618337Y0573422D01*
X0618337Y0572767D02*
X0620959Y0572767D01*
X0620959Y0573422D01*
X0620957Y0573493D01*
X0620951Y0573564D01*
X0620942Y0573634D01*
X0620928Y0573704D01*
X0620911Y0573773D01*
X0620890Y0573841D01*
X0620866Y0573907D01*
X0620838Y0573972D01*
X0620806Y0574036D01*
X0620771Y0574098D01*
X0620733Y0574158D01*
X0620692Y0574215D01*
X0620647Y0574271D01*
X0620600Y0574324D01*
X0620550Y0574374D01*
X0620497Y0574421D01*
X0620441Y0574466D01*
X0620384Y0574507D01*
X0620324Y0574545D01*
X0620262Y0574580D01*
X0620198Y0574612D01*
X0620133Y0574640D01*
X0620067Y0574664D01*
X0619999Y0574685D01*
X0619930Y0574702D01*
X0619860Y0574716D01*
X0619790Y0574725D01*
X0619719Y0574731D01*
X0619648Y0574733D01*
X0619577Y0574731D01*
X0619506Y0574725D01*
X0619436Y0574716D01*
X0619366Y0574702D01*
X0619297Y0574685D01*
X0619229Y0574664D01*
X0619163Y0574640D01*
X0619098Y0574612D01*
X0619034Y0574580D01*
X0618972Y0574545D01*
X0618912Y0574507D01*
X0618855Y0574466D01*
X0618799Y0574421D01*
X0618746Y0574374D01*
X0618696Y0574324D01*
X0618649Y0574271D01*
X0618604Y0574215D01*
X0618563Y0574158D01*
X0618525Y0574098D01*
X0618490Y0574036D01*
X0618458Y0573972D01*
X0618430Y0573907D01*
X0618406Y0573841D01*
X0618385Y0573773D01*
X0618368Y0573704D01*
X0618354Y0573634D01*
X0618345Y0573564D01*
X0618339Y0573493D01*
X0618337Y0573422D01*
X0616251Y0574078D02*
X0616251Y0574733D01*
X0614284Y0574733D01*
X0614284Y0570800D01*
X0611318Y0572111D02*
X0611318Y0573422D01*
X0611316Y0573493D01*
X0611310Y0573564D01*
X0611301Y0573634D01*
X0611287Y0573704D01*
X0611270Y0573773D01*
X0611249Y0573841D01*
X0611225Y0573907D01*
X0611197Y0573972D01*
X0611165Y0574036D01*
X0611130Y0574098D01*
X0611092Y0574158D01*
X0611051Y0574215D01*
X0611006Y0574271D01*
X0610959Y0574324D01*
X0610909Y0574374D01*
X0610856Y0574421D01*
X0610800Y0574466D01*
X0610743Y0574507D01*
X0610683Y0574545D01*
X0610621Y0574580D01*
X0610557Y0574612D01*
X0610492Y0574640D01*
X0610426Y0574664D01*
X0610358Y0574685D01*
X0610289Y0574702D01*
X0610219Y0574716D01*
X0610149Y0574725D01*
X0610078Y0574731D01*
X0610007Y0574733D01*
X0609936Y0574731D01*
X0609865Y0574725D01*
X0609795Y0574716D01*
X0609725Y0574702D01*
X0609656Y0574685D01*
X0609588Y0574664D01*
X0609522Y0574640D01*
X0609457Y0574612D01*
X0609393Y0574580D01*
X0609331Y0574545D01*
X0609271Y0574507D01*
X0609214Y0574466D01*
X0609158Y0574421D01*
X0609105Y0574374D01*
X0609055Y0574324D01*
X0609008Y0574271D01*
X0608963Y0574215D01*
X0608922Y0574158D01*
X0608884Y0574098D01*
X0608849Y0574036D01*
X0608817Y0573972D01*
X0608789Y0573907D01*
X0608765Y0573841D01*
X0608744Y0573773D01*
X0608727Y0573704D01*
X0608713Y0573634D01*
X0608704Y0573564D01*
X0608698Y0573493D01*
X0608696Y0573422D01*
X0608695Y0573422D02*
X0608695Y0572111D01*
X0608696Y0572111D02*
X0608698Y0572040D01*
X0608704Y0571969D01*
X0608713Y0571899D01*
X0608727Y0571829D01*
X0608744Y0571760D01*
X0608765Y0571692D01*
X0608789Y0571626D01*
X0608817Y0571561D01*
X0608849Y0571497D01*
X0608884Y0571435D01*
X0608922Y0571375D01*
X0608963Y0571318D01*
X0609008Y0571262D01*
X0609055Y0571209D01*
X0609105Y0571159D01*
X0609158Y0571112D01*
X0609214Y0571067D01*
X0609271Y0571026D01*
X0609331Y0570988D01*
X0609393Y0570953D01*
X0609457Y0570921D01*
X0609522Y0570893D01*
X0609588Y0570869D01*
X0609656Y0570848D01*
X0609725Y0570831D01*
X0609795Y0570817D01*
X0609865Y0570808D01*
X0609936Y0570802D01*
X0610007Y0570800D01*
X0610078Y0570802D01*
X0610149Y0570808D01*
X0610219Y0570817D01*
X0610289Y0570831D01*
X0610358Y0570848D01*
X0610426Y0570869D01*
X0610492Y0570893D01*
X0610557Y0570921D01*
X0610621Y0570953D01*
X0610683Y0570988D01*
X0610743Y0571026D01*
X0610800Y0571067D01*
X0610856Y0571112D01*
X0610909Y0571159D01*
X0610959Y0571209D01*
X0611006Y0571262D01*
X0611051Y0571318D01*
X0611092Y0571375D01*
X0611130Y0571435D01*
X0611165Y0571497D01*
X0611197Y0571561D01*
X0611225Y0571626D01*
X0611249Y0571692D01*
X0611270Y0571760D01*
X0611287Y0571829D01*
X0611301Y0571899D01*
X0611310Y0571969D01*
X0611316Y0572040D01*
X0611318Y0572111D01*
X0606282Y0570800D02*
X0604971Y0570800D01*
X0604909Y0570802D01*
X0604848Y0570808D01*
X0604787Y0570817D01*
X0604727Y0570831D01*
X0604667Y0570848D01*
X0604609Y0570869D01*
X0604552Y0570894D01*
X0604497Y0570922D01*
X0604444Y0570953D01*
X0604393Y0570988D01*
X0604344Y0571026D01*
X0604298Y0571066D01*
X0604254Y0571110D01*
X0604214Y0571156D01*
X0604176Y0571205D01*
X0604141Y0571256D01*
X0604110Y0571309D01*
X0604082Y0571364D01*
X0604057Y0571421D01*
X0604036Y0571479D01*
X0604019Y0571539D01*
X0604005Y0571599D01*
X0603996Y0571660D01*
X0603990Y0571721D01*
X0603988Y0571783D01*
X0603988Y0573750D01*
X0603990Y0573812D01*
X0603996Y0573873D01*
X0604005Y0573934D01*
X0604019Y0573994D01*
X0604036Y0574054D01*
X0604057Y0574112D01*
X0604082Y0574169D01*
X0604110Y0574224D01*
X0604141Y0574277D01*
X0604176Y0574328D01*
X0604214Y0574377D01*
X0604254Y0574423D01*
X0604298Y0574467D01*
X0604344Y0574507D01*
X0604393Y0574545D01*
X0604444Y0574580D01*
X0604497Y0574611D01*
X0604552Y0574639D01*
X0604609Y0574664D01*
X0604667Y0574685D01*
X0604727Y0574702D01*
X0604787Y0574716D01*
X0604848Y0574725D01*
X0604909Y0574731D01*
X0604971Y0574733D01*
X0606282Y0574733D01*
X0600774Y0572439D02*
X0599136Y0573094D01*
X0599135Y0573095D02*
X0599083Y0573118D01*
X0599032Y0573145D01*
X0598983Y0573175D01*
X0598936Y0573208D01*
X0598891Y0573244D01*
X0598849Y0573284D01*
X0598810Y0573326D01*
X0598774Y0573370D01*
X0598741Y0573417D01*
X0598711Y0573467D01*
X0598684Y0573518D01*
X0598661Y0573570D01*
X0598642Y0573624D01*
X0598626Y0573680D01*
X0598614Y0573736D01*
X0598606Y0573793D01*
X0598602Y0573850D01*
X0598601Y0573908D01*
X0598605Y0573965D01*
X0598612Y0574022D01*
X0598624Y0574079D01*
X0598639Y0574134D01*
X0598657Y0574189D01*
X0598680Y0574242D01*
X0598706Y0574293D01*
X0598735Y0574342D01*
X0598768Y0574390D01*
X0598804Y0574435D01*
X0598842Y0574477D01*
X0598884Y0574517D01*
X0598928Y0574554D01*
X0598975Y0574588D01*
X0599023Y0574619D01*
X0599074Y0574646D01*
X0599126Y0574670D01*
X0599180Y0574690D01*
X0599235Y0574706D01*
X0599291Y0574719D01*
X0599348Y0574728D01*
X0599406Y0574733D01*
X0599463Y0574734D01*
X0598644Y0571128D02*
X0598778Y0571082D01*
X0598913Y0571039D01*
X0599049Y0571000D01*
X0599186Y0570964D01*
X0599323Y0570932D01*
X0599462Y0570903D01*
X0599601Y0570877D01*
X0599741Y0570856D01*
X0599882Y0570837D01*
X0600022Y0570823D01*
X0600164Y0570812D01*
X0600305Y0570804D01*
X0600447Y0570801D01*
X0600447Y0570800D02*
X0600504Y0570801D01*
X0600562Y0570806D01*
X0600619Y0570815D01*
X0600675Y0570828D01*
X0600730Y0570844D01*
X0600784Y0570864D01*
X0600836Y0570888D01*
X0600887Y0570915D01*
X0600935Y0570946D01*
X0600982Y0570980D01*
X0601026Y0571017D01*
X0601068Y0571057D01*
X0601106Y0571099D01*
X0601142Y0571144D01*
X0601175Y0571192D01*
X0601204Y0571241D01*
X0601230Y0571292D01*
X0601253Y0571345D01*
X0601271Y0571400D01*
X0601286Y0571455D01*
X0601298Y0571512D01*
X0601305Y0571569D01*
X0601309Y0571626D01*
X0601308Y0571684D01*
X0601304Y0571741D01*
X0601296Y0571798D01*
X0601284Y0571854D01*
X0601268Y0571910D01*
X0601249Y0571964D01*
X0601226Y0572016D01*
X0601199Y0572067D01*
X0601169Y0572117D01*
X0601136Y0572164D01*
X0601100Y0572208D01*
X0601061Y0572250D01*
X0601019Y0572290D01*
X0600974Y0572326D01*
X0600927Y0572359D01*
X0600878Y0572389D01*
X0600827Y0572416D01*
X0600775Y0572439D01*
X0600938Y0574405D02*
X0600831Y0574451D01*
X0600722Y0574494D01*
X0600612Y0574534D01*
X0600500Y0574570D01*
X0600388Y0574602D01*
X0600274Y0574631D01*
X0600160Y0574657D01*
X0600045Y0574678D01*
X0599930Y0574697D01*
X0599813Y0574711D01*
X0599697Y0574722D01*
X0599580Y0574729D01*
X0599463Y0574733D01*
X0595768Y0573094D02*
X0591834Y0573094D01*
X0589163Y0574733D02*
X0587852Y0570800D01*
X0586541Y0574733D01*
X0428959Y0573422D02*
X0428959Y0572767D01*
X0426337Y0572767D01*
X0426337Y0573422D02*
X0426337Y0571783D01*
X0426339Y0571721D01*
X0426345Y0571660D01*
X0426354Y0571599D01*
X0426368Y0571539D01*
X0426385Y0571479D01*
X0426406Y0571421D01*
X0426431Y0571364D01*
X0426459Y0571309D01*
X0426490Y0571256D01*
X0426525Y0571205D01*
X0426563Y0571156D01*
X0426603Y0571110D01*
X0426647Y0571066D01*
X0426693Y0571026D01*
X0426742Y0570988D01*
X0426793Y0570953D01*
X0426846Y0570922D01*
X0426901Y0570894D01*
X0426958Y0570869D01*
X0427016Y0570848D01*
X0427076Y0570831D01*
X0427136Y0570817D01*
X0427197Y0570808D01*
X0427258Y0570802D01*
X0427320Y0570800D01*
X0428959Y0570800D01*
X0428959Y0573422D02*
X0428957Y0573493D01*
X0428951Y0573564D01*
X0428942Y0573634D01*
X0428928Y0573704D01*
X0428911Y0573773D01*
X0428890Y0573841D01*
X0428866Y0573907D01*
X0428838Y0573972D01*
X0428806Y0574036D01*
X0428771Y0574098D01*
X0428733Y0574158D01*
X0428692Y0574215D01*
X0428647Y0574271D01*
X0428600Y0574324D01*
X0428550Y0574374D01*
X0428497Y0574421D01*
X0428441Y0574466D01*
X0428384Y0574507D01*
X0428324Y0574545D01*
X0428262Y0574580D01*
X0428198Y0574612D01*
X0428133Y0574640D01*
X0428067Y0574664D01*
X0427999Y0574685D01*
X0427930Y0574702D01*
X0427860Y0574716D01*
X0427790Y0574725D01*
X0427719Y0574731D01*
X0427648Y0574733D01*
X0427577Y0574731D01*
X0427506Y0574725D01*
X0427436Y0574716D01*
X0427366Y0574702D01*
X0427297Y0574685D01*
X0427229Y0574664D01*
X0427163Y0574640D01*
X0427098Y0574612D01*
X0427034Y0574580D01*
X0426972Y0574545D01*
X0426912Y0574507D01*
X0426855Y0574466D01*
X0426799Y0574421D01*
X0426746Y0574374D01*
X0426696Y0574324D01*
X0426649Y0574271D01*
X0426604Y0574215D01*
X0426563Y0574158D01*
X0426525Y0574098D01*
X0426490Y0574036D01*
X0426458Y0573972D01*
X0426430Y0573907D01*
X0426406Y0573841D01*
X0426385Y0573773D01*
X0426368Y0573704D01*
X0426354Y0573634D01*
X0426345Y0573564D01*
X0426339Y0573493D01*
X0426337Y0573422D01*
X0424251Y0574078D02*
X0424251Y0574733D01*
X0422284Y0574733D01*
X0422284Y0570800D01*
X0419318Y0572111D02*
X0419318Y0573422D01*
X0419316Y0573493D01*
X0419310Y0573564D01*
X0419301Y0573634D01*
X0419287Y0573704D01*
X0419270Y0573773D01*
X0419249Y0573841D01*
X0419225Y0573907D01*
X0419197Y0573972D01*
X0419165Y0574036D01*
X0419130Y0574098D01*
X0419092Y0574158D01*
X0419051Y0574215D01*
X0419006Y0574271D01*
X0418959Y0574324D01*
X0418909Y0574374D01*
X0418856Y0574421D01*
X0418800Y0574466D01*
X0418743Y0574507D01*
X0418683Y0574545D01*
X0418621Y0574580D01*
X0418557Y0574612D01*
X0418492Y0574640D01*
X0418426Y0574664D01*
X0418358Y0574685D01*
X0418289Y0574702D01*
X0418219Y0574716D01*
X0418149Y0574725D01*
X0418078Y0574731D01*
X0418007Y0574733D01*
X0417936Y0574731D01*
X0417865Y0574725D01*
X0417795Y0574716D01*
X0417725Y0574702D01*
X0417656Y0574685D01*
X0417588Y0574664D01*
X0417522Y0574640D01*
X0417457Y0574612D01*
X0417393Y0574580D01*
X0417331Y0574545D01*
X0417271Y0574507D01*
X0417214Y0574466D01*
X0417158Y0574421D01*
X0417105Y0574374D01*
X0417055Y0574324D01*
X0417008Y0574271D01*
X0416963Y0574215D01*
X0416922Y0574158D01*
X0416884Y0574098D01*
X0416849Y0574036D01*
X0416817Y0573972D01*
X0416789Y0573907D01*
X0416765Y0573841D01*
X0416744Y0573773D01*
X0416727Y0573704D01*
X0416713Y0573634D01*
X0416704Y0573564D01*
X0416698Y0573493D01*
X0416696Y0573422D01*
X0416695Y0573422D02*
X0416695Y0572111D01*
X0416696Y0572111D02*
X0416698Y0572040D01*
X0416704Y0571969D01*
X0416713Y0571899D01*
X0416727Y0571829D01*
X0416744Y0571760D01*
X0416765Y0571692D01*
X0416789Y0571626D01*
X0416817Y0571561D01*
X0416849Y0571497D01*
X0416884Y0571435D01*
X0416922Y0571375D01*
X0416963Y0571318D01*
X0417008Y0571262D01*
X0417055Y0571209D01*
X0417105Y0571159D01*
X0417158Y0571112D01*
X0417214Y0571067D01*
X0417271Y0571026D01*
X0417331Y0570988D01*
X0417393Y0570953D01*
X0417457Y0570921D01*
X0417522Y0570893D01*
X0417588Y0570869D01*
X0417656Y0570848D01*
X0417725Y0570831D01*
X0417795Y0570817D01*
X0417865Y0570808D01*
X0417936Y0570802D01*
X0418007Y0570800D01*
X0418078Y0570802D01*
X0418149Y0570808D01*
X0418219Y0570817D01*
X0418289Y0570831D01*
X0418358Y0570848D01*
X0418426Y0570869D01*
X0418492Y0570893D01*
X0418557Y0570921D01*
X0418621Y0570953D01*
X0418683Y0570988D01*
X0418743Y0571026D01*
X0418800Y0571067D01*
X0418856Y0571112D01*
X0418909Y0571159D01*
X0418959Y0571209D01*
X0419006Y0571262D01*
X0419051Y0571318D01*
X0419092Y0571375D01*
X0419130Y0571435D01*
X0419165Y0571497D01*
X0419197Y0571561D01*
X0419225Y0571626D01*
X0419249Y0571692D01*
X0419270Y0571760D01*
X0419287Y0571829D01*
X0419301Y0571899D01*
X0419310Y0571969D01*
X0419316Y0572040D01*
X0419318Y0572111D01*
X0414282Y0570800D02*
X0412971Y0570800D01*
X0412909Y0570802D01*
X0412848Y0570808D01*
X0412787Y0570817D01*
X0412727Y0570831D01*
X0412667Y0570848D01*
X0412609Y0570869D01*
X0412552Y0570894D01*
X0412497Y0570922D01*
X0412444Y0570953D01*
X0412393Y0570988D01*
X0412344Y0571026D01*
X0412298Y0571066D01*
X0412254Y0571110D01*
X0412214Y0571156D01*
X0412176Y0571205D01*
X0412141Y0571256D01*
X0412110Y0571309D01*
X0412082Y0571364D01*
X0412057Y0571421D01*
X0412036Y0571479D01*
X0412019Y0571539D01*
X0412005Y0571599D01*
X0411996Y0571660D01*
X0411990Y0571721D01*
X0411988Y0571783D01*
X0411988Y0573750D01*
X0411990Y0573812D01*
X0411996Y0573873D01*
X0412005Y0573934D01*
X0412019Y0573994D01*
X0412036Y0574054D01*
X0412057Y0574112D01*
X0412082Y0574169D01*
X0412110Y0574224D01*
X0412141Y0574277D01*
X0412176Y0574328D01*
X0412214Y0574377D01*
X0412254Y0574423D01*
X0412298Y0574467D01*
X0412344Y0574507D01*
X0412393Y0574545D01*
X0412444Y0574580D01*
X0412497Y0574611D01*
X0412552Y0574639D01*
X0412609Y0574664D01*
X0412667Y0574685D01*
X0412727Y0574702D01*
X0412787Y0574716D01*
X0412848Y0574725D01*
X0412909Y0574731D01*
X0412971Y0574733D01*
X0414282Y0574733D01*
X0408774Y0572439D02*
X0407136Y0573094D01*
X0407135Y0573095D02*
X0407083Y0573118D01*
X0407032Y0573145D01*
X0406983Y0573175D01*
X0406936Y0573208D01*
X0406891Y0573244D01*
X0406849Y0573284D01*
X0406810Y0573326D01*
X0406774Y0573370D01*
X0406741Y0573417D01*
X0406711Y0573467D01*
X0406684Y0573518D01*
X0406661Y0573570D01*
X0406642Y0573624D01*
X0406626Y0573680D01*
X0406614Y0573736D01*
X0406606Y0573793D01*
X0406602Y0573850D01*
X0406601Y0573908D01*
X0406605Y0573965D01*
X0406612Y0574022D01*
X0406624Y0574079D01*
X0406639Y0574134D01*
X0406657Y0574189D01*
X0406680Y0574242D01*
X0406706Y0574293D01*
X0406735Y0574342D01*
X0406768Y0574390D01*
X0406804Y0574435D01*
X0406842Y0574477D01*
X0406884Y0574517D01*
X0406928Y0574554D01*
X0406975Y0574588D01*
X0407023Y0574619D01*
X0407074Y0574646D01*
X0407126Y0574670D01*
X0407180Y0574690D01*
X0407235Y0574706D01*
X0407291Y0574719D01*
X0407348Y0574728D01*
X0407406Y0574733D01*
X0407463Y0574734D01*
X0406644Y0571128D02*
X0406778Y0571082D01*
X0406913Y0571039D01*
X0407049Y0571000D01*
X0407186Y0570964D01*
X0407323Y0570932D01*
X0407462Y0570903D01*
X0407601Y0570877D01*
X0407741Y0570856D01*
X0407882Y0570837D01*
X0408022Y0570823D01*
X0408164Y0570812D01*
X0408305Y0570804D01*
X0408447Y0570801D01*
X0408447Y0570800D02*
X0408504Y0570801D01*
X0408562Y0570806D01*
X0408619Y0570815D01*
X0408675Y0570828D01*
X0408730Y0570844D01*
X0408784Y0570864D01*
X0408836Y0570888D01*
X0408887Y0570915D01*
X0408935Y0570946D01*
X0408982Y0570980D01*
X0409026Y0571017D01*
X0409068Y0571057D01*
X0409106Y0571099D01*
X0409142Y0571144D01*
X0409175Y0571192D01*
X0409204Y0571241D01*
X0409230Y0571292D01*
X0409253Y0571345D01*
X0409271Y0571400D01*
X0409286Y0571455D01*
X0409298Y0571512D01*
X0409305Y0571569D01*
X0409309Y0571626D01*
X0409308Y0571684D01*
X0409304Y0571741D01*
X0409296Y0571798D01*
X0409284Y0571854D01*
X0409268Y0571910D01*
X0409249Y0571964D01*
X0409226Y0572016D01*
X0409199Y0572067D01*
X0409169Y0572117D01*
X0409136Y0572164D01*
X0409100Y0572208D01*
X0409061Y0572250D01*
X0409019Y0572290D01*
X0408974Y0572326D01*
X0408927Y0572359D01*
X0408878Y0572389D01*
X0408827Y0572416D01*
X0408775Y0572439D01*
X0408938Y0574405D02*
X0408831Y0574451D01*
X0408722Y0574494D01*
X0408612Y0574534D01*
X0408500Y0574570D01*
X0408388Y0574602D01*
X0408274Y0574631D01*
X0408160Y0574657D01*
X0408045Y0574678D01*
X0407930Y0574697D01*
X0407813Y0574711D01*
X0407697Y0574722D01*
X0407580Y0574729D01*
X0407463Y0574733D01*
X0403768Y0573094D02*
X0399834Y0573094D01*
X0397163Y0574733D02*
X0395852Y0570800D01*
X0394541Y0574733D01*
X0236959Y0573422D02*
X0236959Y0572767D01*
X0234337Y0572767D01*
X0234337Y0573422D02*
X0234337Y0571783D01*
X0234339Y0571721D01*
X0234345Y0571660D01*
X0234354Y0571599D01*
X0234368Y0571539D01*
X0234385Y0571479D01*
X0234406Y0571421D01*
X0234431Y0571364D01*
X0234459Y0571309D01*
X0234490Y0571256D01*
X0234525Y0571205D01*
X0234563Y0571156D01*
X0234603Y0571110D01*
X0234647Y0571066D01*
X0234693Y0571026D01*
X0234742Y0570988D01*
X0234793Y0570953D01*
X0234846Y0570922D01*
X0234901Y0570894D01*
X0234958Y0570869D01*
X0235016Y0570848D01*
X0235076Y0570831D01*
X0235136Y0570817D01*
X0235197Y0570808D01*
X0235258Y0570802D01*
X0235320Y0570800D01*
X0236959Y0570800D01*
X0236959Y0573422D02*
X0236957Y0573493D01*
X0236951Y0573564D01*
X0236942Y0573634D01*
X0236928Y0573704D01*
X0236911Y0573773D01*
X0236890Y0573841D01*
X0236866Y0573907D01*
X0236838Y0573972D01*
X0236806Y0574036D01*
X0236771Y0574098D01*
X0236733Y0574158D01*
X0236692Y0574215D01*
X0236647Y0574271D01*
X0236600Y0574324D01*
X0236550Y0574374D01*
X0236497Y0574421D01*
X0236441Y0574466D01*
X0236384Y0574507D01*
X0236324Y0574545D01*
X0236262Y0574580D01*
X0236198Y0574612D01*
X0236133Y0574640D01*
X0236067Y0574664D01*
X0235999Y0574685D01*
X0235930Y0574702D01*
X0235860Y0574716D01*
X0235790Y0574725D01*
X0235719Y0574731D01*
X0235648Y0574733D01*
X0235577Y0574731D01*
X0235506Y0574725D01*
X0235436Y0574716D01*
X0235366Y0574702D01*
X0235297Y0574685D01*
X0235229Y0574664D01*
X0235163Y0574640D01*
X0235098Y0574612D01*
X0235034Y0574580D01*
X0234972Y0574545D01*
X0234912Y0574507D01*
X0234855Y0574466D01*
X0234799Y0574421D01*
X0234746Y0574374D01*
X0234696Y0574324D01*
X0234649Y0574271D01*
X0234604Y0574215D01*
X0234563Y0574158D01*
X0234525Y0574098D01*
X0234490Y0574036D01*
X0234458Y0573972D01*
X0234430Y0573907D01*
X0234406Y0573841D01*
X0234385Y0573773D01*
X0234368Y0573704D01*
X0234354Y0573634D01*
X0234345Y0573564D01*
X0234339Y0573493D01*
X0234337Y0573422D01*
X0232251Y0574078D02*
X0232251Y0574733D01*
X0230284Y0574733D01*
X0230284Y0570800D01*
X0227318Y0572111D02*
X0227318Y0573422D01*
X0227316Y0573493D01*
X0227310Y0573564D01*
X0227301Y0573634D01*
X0227287Y0573704D01*
X0227270Y0573773D01*
X0227249Y0573841D01*
X0227225Y0573907D01*
X0227197Y0573972D01*
X0227165Y0574036D01*
X0227130Y0574098D01*
X0227092Y0574158D01*
X0227051Y0574215D01*
X0227006Y0574271D01*
X0226959Y0574324D01*
X0226909Y0574374D01*
X0226856Y0574421D01*
X0226800Y0574466D01*
X0226743Y0574507D01*
X0226683Y0574545D01*
X0226621Y0574580D01*
X0226557Y0574612D01*
X0226492Y0574640D01*
X0226426Y0574664D01*
X0226358Y0574685D01*
X0226289Y0574702D01*
X0226219Y0574716D01*
X0226149Y0574725D01*
X0226078Y0574731D01*
X0226007Y0574733D01*
X0225936Y0574731D01*
X0225865Y0574725D01*
X0225795Y0574716D01*
X0225725Y0574702D01*
X0225656Y0574685D01*
X0225588Y0574664D01*
X0225522Y0574640D01*
X0225457Y0574612D01*
X0225393Y0574580D01*
X0225331Y0574545D01*
X0225271Y0574507D01*
X0225214Y0574466D01*
X0225158Y0574421D01*
X0225105Y0574374D01*
X0225055Y0574324D01*
X0225008Y0574271D01*
X0224963Y0574215D01*
X0224922Y0574158D01*
X0224884Y0574098D01*
X0224849Y0574036D01*
X0224817Y0573972D01*
X0224789Y0573907D01*
X0224765Y0573841D01*
X0224744Y0573773D01*
X0224727Y0573704D01*
X0224713Y0573634D01*
X0224704Y0573564D01*
X0224698Y0573493D01*
X0224696Y0573422D01*
X0224695Y0573422D02*
X0224695Y0572111D01*
X0224696Y0572111D02*
X0224698Y0572040D01*
X0224704Y0571969D01*
X0224713Y0571899D01*
X0224727Y0571829D01*
X0224744Y0571760D01*
X0224765Y0571692D01*
X0224789Y0571626D01*
X0224817Y0571561D01*
X0224849Y0571497D01*
X0224884Y0571435D01*
X0224922Y0571375D01*
X0224963Y0571318D01*
X0225008Y0571262D01*
X0225055Y0571209D01*
X0225105Y0571159D01*
X0225158Y0571112D01*
X0225214Y0571067D01*
X0225271Y0571026D01*
X0225331Y0570988D01*
X0225393Y0570953D01*
X0225457Y0570921D01*
X0225522Y0570893D01*
X0225588Y0570869D01*
X0225656Y0570848D01*
X0225725Y0570831D01*
X0225795Y0570817D01*
X0225865Y0570808D01*
X0225936Y0570802D01*
X0226007Y0570800D01*
X0226078Y0570802D01*
X0226149Y0570808D01*
X0226219Y0570817D01*
X0226289Y0570831D01*
X0226358Y0570848D01*
X0226426Y0570869D01*
X0226492Y0570893D01*
X0226557Y0570921D01*
X0226621Y0570953D01*
X0226683Y0570988D01*
X0226743Y0571026D01*
X0226800Y0571067D01*
X0226856Y0571112D01*
X0226909Y0571159D01*
X0226959Y0571209D01*
X0227006Y0571262D01*
X0227051Y0571318D01*
X0227092Y0571375D01*
X0227130Y0571435D01*
X0227165Y0571497D01*
X0227197Y0571561D01*
X0227225Y0571626D01*
X0227249Y0571692D01*
X0227270Y0571760D01*
X0227287Y0571829D01*
X0227301Y0571899D01*
X0227310Y0571969D01*
X0227316Y0572040D01*
X0227318Y0572111D01*
X0222282Y0570800D02*
X0220971Y0570800D01*
X0220909Y0570802D01*
X0220848Y0570808D01*
X0220787Y0570817D01*
X0220727Y0570831D01*
X0220667Y0570848D01*
X0220609Y0570869D01*
X0220552Y0570894D01*
X0220497Y0570922D01*
X0220444Y0570953D01*
X0220393Y0570988D01*
X0220344Y0571026D01*
X0220298Y0571066D01*
X0220254Y0571110D01*
X0220214Y0571156D01*
X0220176Y0571205D01*
X0220141Y0571256D01*
X0220110Y0571309D01*
X0220082Y0571364D01*
X0220057Y0571421D01*
X0220036Y0571479D01*
X0220019Y0571539D01*
X0220005Y0571599D01*
X0219996Y0571660D01*
X0219990Y0571721D01*
X0219988Y0571783D01*
X0219988Y0573750D01*
X0219990Y0573812D01*
X0219996Y0573873D01*
X0220005Y0573934D01*
X0220019Y0573994D01*
X0220036Y0574054D01*
X0220057Y0574112D01*
X0220082Y0574169D01*
X0220110Y0574224D01*
X0220141Y0574277D01*
X0220176Y0574328D01*
X0220214Y0574377D01*
X0220254Y0574423D01*
X0220298Y0574467D01*
X0220344Y0574507D01*
X0220393Y0574545D01*
X0220444Y0574580D01*
X0220497Y0574611D01*
X0220552Y0574639D01*
X0220609Y0574664D01*
X0220667Y0574685D01*
X0220727Y0574702D01*
X0220787Y0574716D01*
X0220848Y0574725D01*
X0220909Y0574731D01*
X0220971Y0574733D01*
X0222282Y0574733D01*
X0216774Y0572439D02*
X0215136Y0573094D01*
X0215135Y0573095D02*
X0215083Y0573118D01*
X0215032Y0573145D01*
X0214983Y0573175D01*
X0214936Y0573208D01*
X0214891Y0573244D01*
X0214849Y0573284D01*
X0214810Y0573326D01*
X0214774Y0573370D01*
X0214741Y0573417D01*
X0214711Y0573467D01*
X0214684Y0573518D01*
X0214661Y0573570D01*
X0214642Y0573624D01*
X0214626Y0573680D01*
X0214614Y0573736D01*
X0214606Y0573793D01*
X0214602Y0573850D01*
X0214601Y0573908D01*
X0214605Y0573965D01*
X0214612Y0574022D01*
X0214624Y0574079D01*
X0214639Y0574134D01*
X0214657Y0574189D01*
X0214680Y0574242D01*
X0214706Y0574293D01*
X0214735Y0574342D01*
X0214768Y0574390D01*
X0214804Y0574435D01*
X0214842Y0574477D01*
X0214884Y0574517D01*
X0214928Y0574554D01*
X0214975Y0574588D01*
X0215023Y0574619D01*
X0215074Y0574646D01*
X0215126Y0574670D01*
X0215180Y0574690D01*
X0215235Y0574706D01*
X0215291Y0574719D01*
X0215348Y0574728D01*
X0215406Y0574733D01*
X0215463Y0574734D01*
X0214644Y0571128D02*
X0214778Y0571082D01*
X0214913Y0571039D01*
X0215049Y0571000D01*
X0215186Y0570964D01*
X0215323Y0570932D01*
X0215462Y0570903D01*
X0215601Y0570877D01*
X0215741Y0570856D01*
X0215882Y0570837D01*
X0216022Y0570823D01*
X0216164Y0570812D01*
X0216305Y0570804D01*
X0216447Y0570801D01*
X0216447Y0570800D02*
X0216504Y0570801D01*
X0216562Y0570806D01*
X0216619Y0570815D01*
X0216675Y0570828D01*
X0216730Y0570844D01*
X0216784Y0570864D01*
X0216836Y0570888D01*
X0216887Y0570915D01*
X0216935Y0570946D01*
X0216982Y0570980D01*
X0217026Y0571017D01*
X0217068Y0571057D01*
X0217106Y0571099D01*
X0217142Y0571144D01*
X0217175Y0571192D01*
X0217204Y0571241D01*
X0217230Y0571292D01*
X0217253Y0571345D01*
X0217271Y0571400D01*
X0217286Y0571455D01*
X0217298Y0571512D01*
X0217305Y0571569D01*
X0217309Y0571626D01*
X0217308Y0571684D01*
X0217304Y0571741D01*
X0217296Y0571798D01*
X0217284Y0571854D01*
X0217268Y0571910D01*
X0217249Y0571964D01*
X0217226Y0572016D01*
X0217199Y0572067D01*
X0217169Y0572117D01*
X0217136Y0572164D01*
X0217100Y0572208D01*
X0217061Y0572250D01*
X0217019Y0572290D01*
X0216974Y0572326D01*
X0216927Y0572359D01*
X0216878Y0572389D01*
X0216827Y0572416D01*
X0216775Y0572439D01*
X0216938Y0574405D02*
X0216831Y0574451D01*
X0216722Y0574494D01*
X0216612Y0574534D01*
X0216500Y0574570D01*
X0216388Y0574602D01*
X0216274Y0574631D01*
X0216160Y0574657D01*
X0216045Y0574678D01*
X0215930Y0574697D01*
X0215813Y0574711D01*
X0215697Y0574722D01*
X0215580Y0574729D01*
X0215463Y0574733D01*
X0211768Y0573094D02*
X0207834Y0573094D01*
X0205163Y0574733D02*
X0203852Y0570800D01*
X0202541Y0574733D01*
X0044959Y0573422D02*
X0044959Y0572767D01*
X0042337Y0572767D01*
X0042337Y0573422D02*
X0042337Y0571783D01*
X0042339Y0571721D01*
X0042345Y0571660D01*
X0042354Y0571599D01*
X0042368Y0571539D01*
X0042385Y0571479D01*
X0042406Y0571421D01*
X0042431Y0571364D01*
X0042459Y0571309D01*
X0042490Y0571256D01*
X0042525Y0571205D01*
X0042563Y0571156D01*
X0042603Y0571110D01*
X0042647Y0571066D01*
X0042693Y0571026D01*
X0042742Y0570988D01*
X0042793Y0570953D01*
X0042846Y0570922D01*
X0042901Y0570894D01*
X0042958Y0570869D01*
X0043016Y0570848D01*
X0043076Y0570831D01*
X0043136Y0570817D01*
X0043197Y0570808D01*
X0043258Y0570802D01*
X0043320Y0570800D01*
X0044959Y0570800D01*
X0044959Y0573422D02*
X0044957Y0573493D01*
X0044951Y0573564D01*
X0044942Y0573634D01*
X0044928Y0573704D01*
X0044911Y0573773D01*
X0044890Y0573841D01*
X0044866Y0573907D01*
X0044838Y0573972D01*
X0044806Y0574036D01*
X0044771Y0574098D01*
X0044733Y0574158D01*
X0044692Y0574215D01*
X0044647Y0574271D01*
X0044600Y0574324D01*
X0044550Y0574374D01*
X0044497Y0574421D01*
X0044441Y0574466D01*
X0044384Y0574507D01*
X0044324Y0574545D01*
X0044262Y0574580D01*
X0044198Y0574612D01*
X0044133Y0574640D01*
X0044067Y0574664D01*
X0043999Y0574685D01*
X0043930Y0574702D01*
X0043860Y0574716D01*
X0043790Y0574725D01*
X0043719Y0574731D01*
X0043648Y0574733D01*
X0043577Y0574731D01*
X0043506Y0574725D01*
X0043436Y0574716D01*
X0043366Y0574702D01*
X0043297Y0574685D01*
X0043229Y0574664D01*
X0043163Y0574640D01*
X0043098Y0574612D01*
X0043034Y0574580D01*
X0042972Y0574545D01*
X0042912Y0574507D01*
X0042855Y0574466D01*
X0042799Y0574421D01*
X0042746Y0574374D01*
X0042696Y0574324D01*
X0042649Y0574271D01*
X0042604Y0574215D01*
X0042563Y0574158D01*
X0042525Y0574098D01*
X0042490Y0574036D01*
X0042458Y0573972D01*
X0042430Y0573907D01*
X0042406Y0573841D01*
X0042385Y0573773D01*
X0042368Y0573704D01*
X0042354Y0573634D01*
X0042345Y0573564D01*
X0042339Y0573493D01*
X0042337Y0573422D01*
X0040251Y0574078D02*
X0040251Y0574733D01*
X0038284Y0574733D01*
X0038284Y0570800D01*
X0035318Y0572111D02*
X0035318Y0573422D01*
X0035316Y0573493D01*
X0035310Y0573564D01*
X0035301Y0573634D01*
X0035287Y0573704D01*
X0035270Y0573773D01*
X0035249Y0573841D01*
X0035225Y0573907D01*
X0035197Y0573972D01*
X0035165Y0574036D01*
X0035130Y0574098D01*
X0035092Y0574158D01*
X0035051Y0574215D01*
X0035006Y0574271D01*
X0034959Y0574324D01*
X0034909Y0574374D01*
X0034856Y0574421D01*
X0034800Y0574466D01*
X0034743Y0574507D01*
X0034683Y0574545D01*
X0034621Y0574580D01*
X0034557Y0574612D01*
X0034492Y0574640D01*
X0034426Y0574664D01*
X0034358Y0574685D01*
X0034289Y0574702D01*
X0034219Y0574716D01*
X0034149Y0574725D01*
X0034078Y0574731D01*
X0034007Y0574733D01*
X0033936Y0574731D01*
X0033865Y0574725D01*
X0033795Y0574716D01*
X0033725Y0574702D01*
X0033656Y0574685D01*
X0033588Y0574664D01*
X0033522Y0574640D01*
X0033457Y0574612D01*
X0033393Y0574580D01*
X0033331Y0574545D01*
X0033271Y0574507D01*
X0033214Y0574466D01*
X0033158Y0574421D01*
X0033105Y0574374D01*
X0033055Y0574324D01*
X0033008Y0574271D01*
X0032963Y0574215D01*
X0032922Y0574158D01*
X0032884Y0574098D01*
X0032849Y0574036D01*
X0032817Y0573972D01*
X0032789Y0573907D01*
X0032765Y0573841D01*
X0032744Y0573773D01*
X0032727Y0573704D01*
X0032713Y0573634D01*
X0032704Y0573564D01*
X0032698Y0573493D01*
X0032696Y0573422D01*
X0032695Y0573422D02*
X0032695Y0572111D01*
X0032696Y0572111D02*
X0032698Y0572040D01*
X0032704Y0571969D01*
X0032713Y0571899D01*
X0032727Y0571829D01*
X0032744Y0571760D01*
X0032765Y0571692D01*
X0032789Y0571626D01*
X0032817Y0571561D01*
X0032849Y0571497D01*
X0032884Y0571435D01*
X0032922Y0571375D01*
X0032963Y0571318D01*
X0033008Y0571262D01*
X0033055Y0571209D01*
X0033105Y0571159D01*
X0033158Y0571112D01*
X0033214Y0571067D01*
X0033271Y0571026D01*
X0033331Y0570988D01*
X0033393Y0570953D01*
X0033457Y0570921D01*
X0033522Y0570893D01*
X0033588Y0570869D01*
X0033656Y0570848D01*
X0033725Y0570831D01*
X0033795Y0570817D01*
X0033865Y0570808D01*
X0033936Y0570802D01*
X0034007Y0570800D01*
X0034078Y0570802D01*
X0034149Y0570808D01*
X0034219Y0570817D01*
X0034289Y0570831D01*
X0034358Y0570848D01*
X0034426Y0570869D01*
X0034492Y0570893D01*
X0034557Y0570921D01*
X0034621Y0570953D01*
X0034683Y0570988D01*
X0034743Y0571026D01*
X0034800Y0571067D01*
X0034856Y0571112D01*
X0034909Y0571159D01*
X0034959Y0571209D01*
X0035006Y0571262D01*
X0035051Y0571318D01*
X0035092Y0571375D01*
X0035130Y0571435D01*
X0035165Y0571497D01*
X0035197Y0571561D01*
X0035225Y0571626D01*
X0035249Y0571692D01*
X0035270Y0571760D01*
X0035287Y0571829D01*
X0035301Y0571899D01*
X0035310Y0571969D01*
X0035316Y0572040D01*
X0035318Y0572111D01*
X0030282Y0570800D02*
X0028971Y0570800D01*
X0028909Y0570802D01*
X0028848Y0570808D01*
X0028787Y0570817D01*
X0028727Y0570831D01*
X0028667Y0570848D01*
X0028609Y0570869D01*
X0028552Y0570894D01*
X0028497Y0570922D01*
X0028444Y0570953D01*
X0028393Y0570988D01*
X0028344Y0571026D01*
X0028298Y0571066D01*
X0028254Y0571110D01*
X0028214Y0571156D01*
X0028176Y0571205D01*
X0028141Y0571256D01*
X0028110Y0571309D01*
X0028082Y0571364D01*
X0028057Y0571421D01*
X0028036Y0571479D01*
X0028019Y0571539D01*
X0028005Y0571599D01*
X0027996Y0571660D01*
X0027990Y0571721D01*
X0027988Y0571783D01*
X0027988Y0573750D01*
X0027990Y0573812D01*
X0027996Y0573873D01*
X0028005Y0573934D01*
X0028019Y0573994D01*
X0028036Y0574054D01*
X0028057Y0574112D01*
X0028082Y0574169D01*
X0028110Y0574224D01*
X0028141Y0574277D01*
X0028176Y0574328D01*
X0028214Y0574377D01*
X0028254Y0574423D01*
X0028298Y0574467D01*
X0028344Y0574507D01*
X0028393Y0574545D01*
X0028444Y0574580D01*
X0028497Y0574611D01*
X0028552Y0574639D01*
X0028609Y0574664D01*
X0028667Y0574685D01*
X0028727Y0574702D01*
X0028787Y0574716D01*
X0028848Y0574725D01*
X0028909Y0574731D01*
X0028971Y0574733D01*
X0030282Y0574733D01*
X0024774Y0572439D02*
X0023136Y0573094D01*
X0023135Y0573095D02*
X0023083Y0573118D01*
X0023032Y0573145D01*
X0022983Y0573175D01*
X0022936Y0573208D01*
X0022891Y0573244D01*
X0022849Y0573284D01*
X0022810Y0573326D01*
X0022774Y0573370D01*
X0022741Y0573417D01*
X0022711Y0573467D01*
X0022684Y0573518D01*
X0022661Y0573570D01*
X0022642Y0573624D01*
X0022626Y0573680D01*
X0022614Y0573736D01*
X0022606Y0573793D01*
X0022602Y0573850D01*
X0022601Y0573908D01*
X0022605Y0573965D01*
X0022612Y0574022D01*
X0022624Y0574079D01*
X0022639Y0574134D01*
X0022657Y0574189D01*
X0022680Y0574242D01*
X0022706Y0574293D01*
X0022735Y0574342D01*
X0022768Y0574390D01*
X0022804Y0574435D01*
X0022842Y0574477D01*
X0022884Y0574517D01*
X0022928Y0574554D01*
X0022975Y0574588D01*
X0023023Y0574619D01*
X0023074Y0574646D01*
X0023126Y0574670D01*
X0023180Y0574690D01*
X0023235Y0574706D01*
X0023291Y0574719D01*
X0023348Y0574728D01*
X0023406Y0574733D01*
X0023463Y0574734D01*
X0022644Y0571128D02*
X0022778Y0571082D01*
X0022913Y0571039D01*
X0023049Y0571000D01*
X0023186Y0570964D01*
X0023323Y0570932D01*
X0023462Y0570903D01*
X0023601Y0570877D01*
X0023741Y0570856D01*
X0023882Y0570837D01*
X0024022Y0570823D01*
X0024164Y0570812D01*
X0024305Y0570804D01*
X0024447Y0570801D01*
X0024447Y0570800D02*
X0024504Y0570801D01*
X0024562Y0570806D01*
X0024619Y0570815D01*
X0024675Y0570828D01*
X0024730Y0570844D01*
X0024784Y0570864D01*
X0024836Y0570888D01*
X0024887Y0570915D01*
X0024935Y0570946D01*
X0024982Y0570980D01*
X0025026Y0571017D01*
X0025068Y0571057D01*
X0025106Y0571099D01*
X0025142Y0571144D01*
X0025175Y0571192D01*
X0025204Y0571241D01*
X0025230Y0571292D01*
X0025253Y0571345D01*
X0025271Y0571400D01*
X0025286Y0571455D01*
X0025298Y0571512D01*
X0025305Y0571569D01*
X0025309Y0571626D01*
X0025308Y0571684D01*
X0025304Y0571741D01*
X0025296Y0571798D01*
X0025284Y0571854D01*
X0025268Y0571910D01*
X0025249Y0571964D01*
X0025226Y0572016D01*
X0025199Y0572067D01*
X0025169Y0572117D01*
X0025136Y0572164D01*
X0025100Y0572208D01*
X0025061Y0572250D01*
X0025019Y0572290D01*
X0024974Y0572326D01*
X0024927Y0572359D01*
X0024878Y0572389D01*
X0024827Y0572416D01*
X0024775Y0572439D01*
X0024938Y0574405D02*
X0024831Y0574451D01*
X0024722Y0574494D01*
X0024612Y0574534D01*
X0024500Y0574570D01*
X0024388Y0574602D01*
X0024274Y0574631D01*
X0024160Y0574657D01*
X0024045Y0574678D01*
X0023930Y0574697D01*
X0023813Y0574711D01*
X0023697Y0574722D01*
X0023580Y0574729D01*
X0023463Y0574733D01*
X0019768Y0573094D02*
X0015834Y0573094D01*
X0013163Y0574733D02*
X0011852Y0570800D01*
X0010541Y0574733D01*
D13*
X0001750Y0026750D02*
X0001750Y0001750D01*
X0629750Y0001750D01*
X0629750Y0026750D01*
X0001750Y0026750D01*
X0001750Y0028750D02*
X0001750Y0512750D01*
X0026750Y0512750D01*
X0026750Y0028750D01*
X0001750Y0028750D01*
X0001750Y0514750D02*
X0001750Y0539750D01*
X0629750Y0539750D01*
X0629750Y0514750D01*
X0001750Y0514750D01*
X0604750Y0512750D02*
X0604750Y0028750D01*
X0629750Y0028750D01*
X0629750Y0512750D01*
X0604750Y0512750D01*
D14*
X0586750Y0362750D02*
X0586752Y0362904D01*
X0586758Y0363059D01*
X0586768Y0363213D01*
X0586782Y0363367D01*
X0586800Y0363520D01*
X0586821Y0363673D01*
X0586847Y0363826D01*
X0586877Y0363977D01*
X0586910Y0364128D01*
X0586948Y0364278D01*
X0586989Y0364427D01*
X0587034Y0364575D01*
X0587083Y0364721D01*
X0587136Y0364867D01*
X0587192Y0365010D01*
X0587252Y0365153D01*
X0587316Y0365293D01*
X0587383Y0365433D01*
X0587454Y0365570D01*
X0587528Y0365705D01*
X0587606Y0365839D01*
X0587687Y0365970D01*
X0587772Y0366099D01*
X0587860Y0366227D01*
X0587951Y0366351D01*
X0588045Y0366474D01*
X0588143Y0366594D01*
X0588243Y0366711D01*
X0588347Y0366826D01*
X0588453Y0366938D01*
X0588562Y0367047D01*
X0588674Y0367153D01*
X0588789Y0367257D01*
X0588906Y0367357D01*
X0589026Y0367455D01*
X0589149Y0367549D01*
X0589273Y0367640D01*
X0589401Y0367728D01*
X0589530Y0367813D01*
X0589661Y0367894D01*
X0589795Y0367972D01*
X0589930Y0368046D01*
X0590067Y0368117D01*
X0590207Y0368184D01*
X0590347Y0368248D01*
X0590490Y0368308D01*
X0590633Y0368364D01*
X0590779Y0368417D01*
X0590925Y0368466D01*
X0591073Y0368511D01*
X0591222Y0368552D01*
X0591372Y0368590D01*
X0591523Y0368623D01*
X0591674Y0368653D01*
X0591827Y0368679D01*
X0591980Y0368700D01*
X0592133Y0368718D01*
X0592287Y0368732D01*
X0592441Y0368742D01*
X0592596Y0368748D01*
X0592750Y0368750D01*
X0592904Y0368748D01*
X0593059Y0368742D01*
X0593213Y0368732D01*
X0593367Y0368718D01*
X0593520Y0368700D01*
X0593673Y0368679D01*
X0593826Y0368653D01*
X0593977Y0368623D01*
X0594128Y0368590D01*
X0594278Y0368552D01*
X0594427Y0368511D01*
X0594575Y0368466D01*
X0594721Y0368417D01*
X0594867Y0368364D01*
X0595010Y0368308D01*
X0595153Y0368248D01*
X0595293Y0368184D01*
X0595433Y0368117D01*
X0595570Y0368046D01*
X0595705Y0367972D01*
X0595839Y0367894D01*
X0595970Y0367813D01*
X0596099Y0367728D01*
X0596227Y0367640D01*
X0596351Y0367549D01*
X0596474Y0367455D01*
X0596594Y0367357D01*
X0596711Y0367257D01*
X0596826Y0367153D01*
X0596938Y0367047D01*
X0597047Y0366938D01*
X0597153Y0366826D01*
X0597257Y0366711D01*
X0597357Y0366594D01*
X0597455Y0366474D01*
X0597549Y0366351D01*
X0597640Y0366227D01*
X0597728Y0366099D01*
X0597813Y0365970D01*
X0597894Y0365839D01*
X0597972Y0365705D01*
X0598046Y0365570D01*
X0598117Y0365433D01*
X0598184Y0365293D01*
X0598248Y0365153D01*
X0598308Y0365010D01*
X0598364Y0364867D01*
X0598417Y0364721D01*
X0598466Y0364575D01*
X0598511Y0364427D01*
X0598552Y0364278D01*
X0598590Y0364128D01*
X0598623Y0363977D01*
X0598653Y0363826D01*
X0598679Y0363673D01*
X0598700Y0363520D01*
X0598718Y0363367D01*
X0598732Y0363213D01*
X0598742Y0363059D01*
X0598748Y0362904D01*
X0598750Y0362750D01*
X0598748Y0362596D01*
X0598742Y0362441D01*
X0598732Y0362287D01*
X0598718Y0362133D01*
X0598700Y0361980D01*
X0598679Y0361827D01*
X0598653Y0361674D01*
X0598623Y0361523D01*
X0598590Y0361372D01*
X0598552Y0361222D01*
X0598511Y0361073D01*
X0598466Y0360925D01*
X0598417Y0360779D01*
X0598364Y0360633D01*
X0598308Y0360490D01*
X0598248Y0360347D01*
X0598184Y0360207D01*
X0598117Y0360067D01*
X0598046Y0359930D01*
X0597972Y0359795D01*
X0597894Y0359661D01*
X0597813Y0359530D01*
X0597728Y0359401D01*
X0597640Y0359273D01*
X0597549Y0359149D01*
X0597455Y0359026D01*
X0597357Y0358906D01*
X0597257Y0358789D01*
X0597153Y0358674D01*
X0597047Y0358562D01*
X0596938Y0358453D01*
X0596826Y0358347D01*
X0596711Y0358243D01*
X0596594Y0358143D01*
X0596474Y0358045D01*
X0596351Y0357951D01*
X0596227Y0357860D01*
X0596099Y0357772D01*
X0595970Y0357687D01*
X0595839Y0357606D01*
X0595705Y0357528D01*
X0595570Y0357454D01*
X0595433Y0357383D01*
X0595293Y0357316D01*
X0595153Y0357252D01*
X0595010Y0357192D01*
X0594867Y0357136D01*
X0594721Y0357083D01*
X0594575Y0357034D01*
X0594427Y0356989D01*
X0594278Y0356948D01*
X0594128Y0356910D01*
X0593977Y0356877D01*
X0593826Y0356847D01*
X0593673Y0356821D01*
X0593520Y0356800D01*
X0593367Y0356782D01*
X0593213Y0356768D01*
X0593059Y0356758D01*
X0592904Y0356752D01*
X0592750Y0356750D01*
X0592596Y0356752D01*
X0592441Y0356758D01*
X0592287Y0356768D01*
X0592133Y0356782D01*
X0591980Y0356800D01*
X0591827Y0356821D01*
X0591674Y0356847D01*
X0591523Y0356877D01*
X0591372Y0356910D01*
X0591222Y0356948D01*
X0591073Y0356989D01*
X0590925Y0357034D01*
X0590779Y0357083D01*
X0590633Y0357136D01*
X0590490Y0357192D01*
X0590347Y0357252D01*
X0590207Y0357316D01*
X0590067Y0357383D01*
X0589930Y0357454D01*
X0589795Y0357528D01*
X0589661Y0357606D01*
X0589530Y0357687D01*
X0589401Y0357772D01*
X0589273Y0357860D01*
X0589149Y0357951D01*
X0589026Y0358045D01*
X0588906Y0358143D01*
X0588789Y0358243D01*
X0588674Y0358347D01*
X0588562Y0358453D01*
X0588453Y0358562D01*
X0588347Y0358674D01*
X0588243Y0358789D01*
X0588143Y0358906D01*
X0588045Y0359026D01*
X0587951Y0359149D01*
X0587860Y0359273D01*
X0587772Y0359401D01*
X0587687Y0359530D01*
X0587606Y0359661D01*
X0587528Y0359795D01*
X0587454Y0359930D01*
X0587383Y0360067D01*
X0587316Y0360207D01*
X0587252Y0360347D01*
X0587192Y0360490D01*
X0587136Y0360633D01*
X0587083Y0360779D01*
X0587034Y0360925D01*
X0586989Y0361073D01*
X0586948Y0361222D01*
X0586910Y0361372D01*
X0586877Y0361523D01*
X0586847Y0361674D01*
X0586821Y0361827D01*
X0586800Y0361980D01*
X0586782Y0362133D01*
X0586768Y0362287D01*
X0586758Y0362441D01*
X0586752Y0362596D01*
X0586750Y0362750D01*
X0416750Y0362750D02*
X0416752Y0362904D01*
X0416758Y0363059D01*
X0416768Y0363213D01*
X0416782Y0363367D01*
X0416800Y0363520D01*
X0416821Y0363673D01*
X0416847Y0363826D01*
X0416877Y0363977D01*
X0416910Y0364128D01*
X0416948Y0364278D01*
X0416989Y0364427D01*
X0417034Y0364575D01*
X0417083Y0364721D01*
X0417136Y0364867D01*
X0417192Y0365010D01*
X0417252Y0365153D01*
X0417316Y0365293D01*
X0417383Y0365433D01*
X0417454Y0365570D01*
X0417528Y0365705D01*
X0417606Y0365839D01*
X0417687Y0365970D01*
X0417772Y0366099D01*
X0417860Y0366227D01*
X0417951Y0366351D01*
X0418045Y0366474D01*
X0418143Y0366594D01*
X0418243Y0366711D01*
X0418347Y0366826D01*
X0418453Y0366938D01*
X0418562Y0367047D01*
X0418674Y0367153D01*
X0418789Y0367257D01*
X0418906Y0367357D01*
X0419026Y0367455D01*
X0419149Y0367549D01*
X0419273Y0367640D01*
X0419401Y0367728D01*
X0419530Y0367813D01*
X0419661Y0367894D01*
X0419795Y0367972D01*
X0419930Y0368046D01*
X0420067Y0368117D01*
X0420207Y0368184D01*
X0420347Y0368248D01*
X0420490Y0368308D01*
X0420633Y0368364D01*
X0420779Y0368417D01*
X0420925Y0368466D01*
X0421073Y0368511D01*
X0421222Y0368552D01*
X0421372Y0368590D01*
X0421523Y0368623D01*
X0421674Y0368653D01*
X0421827Y0368679D01*
X0421980Y0368700D01*
X0422133Y0368718D01*
X0422287Y0368732D01*
X0422441Y0368742D01*
X0422596Y0368748D01*
X0422750Y0368750D01*
X0422904Y0368748D01*
X0423059Y0368742D01*
X0423213Y0368732D01*
X0423367Y0368718D01*
X0423520Y0368700D01*
X0423673Y0368679D01*
X0423826Y0368653D01*
X0423977Y0368623D01*
X0424128Y0368590D01*
X0424278Y0368552D01*
X0424427Y0368511D01*
X0424575Y0368466D01*
X0424721Y0368417D01*
X0424867Y0368364D01*
X0425010Y0368308D01*
X0425153Y0368248D01*
X0425293Y0368184D01*
X0425433Y0368117D01*
X0425570Y0368046D01*
X0425705Y0367972D01*
X0425839Y0367894D01*
X0425970Y0367813D01*
X0426099Y0367728D01*
X0426227Y0367640D01*
X0426351Y0367549D01*
X0426474Y0367455D01*
X0426594Y0367357D01*
X0426711Y0367257D01*
X0426826Y0367153D01*
X0426938Y0367047D01*
X0427047Y0366938D01*
X0427153Y0366826D01*
X0427257Y0366711D01*
X0427357Y0366594D01*
X0427455Y0366474D01*
X0427549Y0366351D01*
X0427640Y0366227D01*
X0427728Y0366099D01*
X0427813Y0365970D01*
X0427894Y0365839D01*
X0427972Y0365705D01*
X0428046Y0365570D01*
X0428117Y0365433D01*
X0428184Y0365293D01*
X0428248Y0365153D01*
X0428308Y0365010D01*
X0428364Y0364867D01*
X0428417Y0364721D01*
X0428466Y0364575D01*
X0428511Y0364427D01*
X0428552Y0364278D01*
X0428590Y0364128D01*
X0428623Y0363977D01*
X0428653Y0363826D01*
X0428679Y0363673D01*
X0428700Y0363520D01*
X0428718Y0363367D01*
X0428732Y0363213D01*
X0428742Y0363059D01*
X0428748Y0362904D01*
X0428750Y0362750D01*
X0428748Y0362596D01*
X0428742Y0362441D01*
X0428732Y0362287D01*
X0428718Y0362133D01*
X0428700Y0361980D01*
X0428679Y0361827D01*
X0428653Y0361674D01*
X0428623Y0361523D01*
X0428590Y0361372D01*
X0428552Y0361222D01*
X0428511Y0361073D01*
X0428466Y0360925D01*
X0428417Y0360779D01*
X0428364Y0360633D01*
X0428308Y0360490D01*
X0428248Y0360347D01*
X0428184Y0360207D01*
X0428117Y0360067D01*
X0428046Y0359930D01*
X0427972Y0359795D01*
X0427894Y0359661D01*
X0427813Y0359530D01*
X0427728Y0359401D01*
X0427640Y0359273D01*
X0427549Y0359149D01*
X0427455Y0359026D01*
X0427357Y0358906D01*
X0427257Y0358789D01*
X0427153Y0358674D01*
X0427047Y0358562D01*
X0426938Y0358453D01*
X0426826Y0358347D01*
X0426711Y0358243D01*
X0426594Y0358143D01*
X0426474Y0358045D01*
X0426351Y0357951D01*
X0426227Y0357860D01*
X0426099Y0357772D01*
X0425970Y0357687D01*
X0425839Y0357606D01*
X0425705Y0357528D01*
X0425570Y0357454D01*
X0425433Y0357383D01*
X0425293Y0357316D01*
X0425153Y0357252D01*
X0425010Y0357192D01*
X0424867Y0357136D01*
X0424721Y0357083D01*
X0424575Y0357034D01*
X0424427Y0356989D01*
X0424278Y0356948D01*
X0424128Y0356910D01*
X0423977Y0356877D01*
X0423826Y0356847D01*
X0423673Y0356821D01*
X0423520Y0356800D01*
X0423367Y0356782D01*
X0423213Y0356768D01*
X0423059Y0356758D01*
X0422904Y0356752D01*
X0422750Y0356750D01*
X0422596Y0356752D01*
X0422441Y0356758D01*
X0422287Y0356768D01*
X0422133Y0356782D01*
X0421980Y0356800D01*
X0421827Y0356821D01*
X0421674Y0356847D01*
X0421523Y0356877D01*
X0421372Y0356910D01*
X0421222Y0356948D01*
X0421073Y0356989D01*
X0420925Y0357034D01*
X0420779Y0357083D01*
X0420633Y0357136D01*
X0420490Y0357192D01*
X0420347Y0357252D01*
X0420207Y0357316D01*
X0420067Y0357383D01*
X0419930Y0357454D01*
X0419795Y0357528D01*
X0419661Y0357606D01*
X0419530Y0357687D01*
X0419401Y0357772D01*
X0419273Y0357860D01*
X0419149Y0357951D01*
X0419026Y0358045D01*
X0418906Y0358143D01*
X0418789Y0358243D01*
X0418674Y0358347D01*
X0418562Y0358453D01*
X0418453Y0358562D01*
X0418347Y0358674D01*
X0418243Y0358789D01*
X0418143Y0358906D01*
X0418045Y0359026D01*
X0417951Y0359149D01*
X0417860Y0359273D01*
X0417772Y0359401D01*
X0417687Y0359530D01*
X0417606Y0359661D01*
X0417528Y0359795D01*
X0417454Y0359930D01*
X0417383Y0360067D01*
X0417316Y0360207D01*
X0417252Y0360347D01*
X0417192Y0360490D01*
X0417136Y0360633D01*
X0417083Y0360779D01*
X0417034Y0360925D01*
X0416989Y0361073D01*
X0416948Y0361222D01*
X0416910Y0361372D01*
X0416877Y0361523D01*
X0416847Y0361674D01*
X0416821Y0361827D01*
X0416800Y0361980D01*
X0416782Y0362133D01*
X0416768Y0362287D01*
X0416758Y0362441D01*
X0416752Y0362596D01*
X0416750Y0362750D01*
X0394750Y0362750D02*
X0394752Y0362904D01*
X0394758Y0363059D01*
X0394768Y0363213D01*
X0394782Y0363367D01*
X0394800Y0363520D01*
X0394821Y0363673D01*
X0394847Y0363826D01*
X0394877Y0363977D01*
X0394910Y0364128D01*
X0394948Y0364278D01*
X0394989Y0364427D01*
X0395034Y0364575D01*
X0395083Y0364721D01*
X0395136Y0364867D01*
X0395192Y0365010D01*
X0395252Y0365153D01*
X0395316Y0365293D01*
X0395383Y0365433D01*
X0395454Y0365570D01*
X0395528Y0365705D01*
X0395606Y0365839D01*
X0395687Y0365970D01*
X0395772Y0366099D01*
X0395860Y0366227D01*
X0395951Y0366351D01*
X0396045Y0366474D01*
X0396143Y0366594D01*
X0396243Y0366711D01*
X0396347Y0366826D01*
X0396453Y0366938D01*
X0396562Y0367047D01*
X0396674Y0367153D01*
X0396789Y0367257D01*
X0396906Y0367357D01*
X0397026Y0367455D01*
X0397149Y0367549D01*
X0397273Y0367640D01*
X0397401Y0367728D01*
X0397530Y0367813D01*
X0397661Y0367894D01*
X0397795Y0367972D01*
X0397930Y0368046D01*
X0398067Y0368117D01*
X0398207Y0368184D01*
X0398347Y0368248D01*
X0398490Y0368308D01*
X0398633Y0368364D01*
X0398779Y0368417D01*
X0398925Y0368466D01*
X0399073Y0368511D01*
X0399222Y0368552D01*
X0399372Y0368590D01*
X0399523Y0368623D01*
X0399674Y0368653D01*
X0399827Y0368679D01*
X0399980Y0368700D01*
X0400133Y0368718D01*
X0400287Y0368732D01*
X0400441Y0368742D01*
X0400596Y0368748D01*
X0400750Y0368750D01*
X0400904Y0368748D01*
X0401059Y0368742D01*
X0401213Y0368732D01*
X0401367Y0368718D01*
X0401520Y0368700D01*
X0401673Y0368679D01*
X0401826Y0368653D01*
X0401977Y0368623D01*
X0402128Y0368590D01*
X0402278Y0368552D01*
X0402427Y0368511D01*
X0402575Y0368466D01*
X0402721Y0368417D01*
X0402867Y0368364D01*
X0403010Y0368308D01*
X0403153Y0368248D01*
X0403293Y0368184D01*
X0403433Y0368117D01*
X0403570Y0368046D01*
X0403705Y0367972D01*
X0403839Y0367894D01*
X0403970Y0367813D01*
X0404099Y0367728D01*
X0404227Y0367640D01*
X0404351Y0367549D01*
X0404474Y0367455D01*
X0404594Y0367357D01*
X0404711Y0367257D01*
X0404826Y0367153D01*
X0404938Y0367047D01*
X0405047Y0366938D01*
X0405153Y0366826D01*
X0405257Y0366711D01*
X0405357Y0366594D01*
X0405455Y0366474D01*
X0405549Y0366351D01*
X0405640Y0366227D01*
X0405728Y0366099D01*
X0405813Y0365970D01*
X0405894Y0365839D01*
X0405972Y0365705D01*
X0406046Y0365570D01*
X0406117Y0365433D01*
X0406184Y0365293D01*
X0406248Y0365153D01*
X0406308Y0365010D01*
X0406364Y0364867D01*
X0406417Y0364721D01*
X0406466Y0364575D01*
X0406511Y0364427D01*
X0406552Y0364278D01*
X0406590Y0364128D01*
X0406623Y0363977D01*
X0406653Y0363826D01*
X0406679Y0363673D01*
X0406700Y0363520D01*
X0406718Y0363367D01*
X0406732Y0363213D01*
X0406742Y0363059D01*
X0406748Y0362904D01*
X0406750Y0362750D01*
X0406748Y0362596D01*
X0406742Y0362441D01*
X0406732Y0362287D01*
X0406718Y0362133D01*
X0406700Y0361980D01*
X0406679Y0361827D01*
X0406653Y0361674D01*
X0406623Y0361523D01*
X0406590Y0361372D01*
X0406552Y0361222D01*
X0406511Y0361073D01*
X0406466Y0360925D01*
X0406417Y0360779D01*
X0406364Y0360633D01*
X0406308Y0360490D01*
X0406248Y0360347D01*
X0406184Y0360207D01*
X0406117Y0360067D01*
X0406046Y0359930D01*
X0405972Y0359795D01*
X0405894Y0359661D01*
X0405813Y0359530D01*
X0405728Y0359401D01*
X0405640Y0359273D01*
X0405549Y0359149D01*
X0405455Y0359026D01*
X0405357Y0358906D01*
X0405257Y0358789D01*
X0405153Y0358674D01*
X0405047Y0358562D01*
X0404938Y0358453D01*
X0404826Y0358347D01*
X0404711Y0358243D01*
X0404594Y0358143D01*
X0404474Y0358045D01*
X0404351Y0357951D01*
X0404227Y0357860D01*
X0404099Y0357772D01*
X0403970Y0357687D01*
X0403839Y0357606D01*
X0403705Y0357528D01*
X0403570Y0357454D01*
X0403433Y0357383D01*
X0403293Y0357316D01*
X0403153Y0357252D01*
X0403010Y0357192D01*
X0402867Y0357136D01*
X0402721Y0357083D01*
X0402575Y0357034D01*
X0402427Y0356989D01*
X0402278Y0356948D01*
X0402128Y0356910D01*
X0401977Y0356877D01*
X0401826Y0356847D01*
X0401673Y0356821D01*
X0401520Y0356800D01*
X0401367Y0356782D01*
X0401213Y0356768D01*
X0401059Y0356758D01*
X0400904Y0356752D01*
X0400750Y0356750D01*
X0400596Y0356752D01*
X0400441Y0356758D01*
X0400287Y0356768D01*
X0400133Y0356782D01*
X0399980Y0356800D01*
X0399827Y0356821D01*
X0399674Y0356847D01*
X0399523Y0356877D01*
X0399372Y0356910D01*
X0399222Y0356948D01*
X0399073Y0356989D01*
X0398925Y0357034D01*
X0398779Y0357083D01*
X0398633Y0357136D01*
X0398490Y0357192D01*
X0398347Y0357252D01*
X0398207Y0357316D01*
X0398067Y0357383D01*
X0397930Y0357454D01*
X0397795Y0357528D01*
X0397661Y0357606D01*
X0397530Y0357687D01*
X0397401Y0357772D01*
X0397273Y0357860D01*
X0397149Y0357951D01*
X0397026Y0358045D01*
X0396906Y0358143D01*
X0396789Y0358243D01*
X0396674Y0358347D01*
X0396562Y0358453D01*
X0396453Y0358562D01*
X0396347Y0358674D01*
X0396243Y0358789D01*
X0396143Y0358906D01*
X0396045Y0359026D01*
X0395951Y0359149D01*
X0395860Y0359273D01*
X0395772Y0359401D01*
X0395687Y0359530D01*
X0395606Y0359661D01*
X0395528Y0359795D01*
X0395454Y0359930D01*
X0395383Y0360067D01*
X0395316Y0360207D01*
X0395252Y0360347D01*
X0395192Y0360490D01*
X0395136Y0360633D01*
X0395083Y0360779D01*
X0395034Y0360925D01*
X0394989Y0361073D01*
X0394948Y0361222D01*
X0394910Y0361372D01*
X0394877Y0361523D01*
X0394847Y0361674D01*
X0394821Y0361827D01*
X0394800Y0361980D01*
X0394782Y0362133D01*
X0394768Y0362287D01*
X0394758Y0362441D01*
X0394752Y0362596D01*
X0394750Y0362750D01*
X0224750Y0362750D02*
X0224752Y0362904D01*
X0224758Y0363059D01*
X0224768Y0363213D01*
X0224782Y0363367D01*
X0224800Y0363520D01*
X0224821Y0363673D01*
X0224847Y0363826D01*
X0224877Y0363977D01*
X0224910Y0364128D01*
X0224948Y0364278D01*
X0224989Y0364427D01*
X0225034Y0364575D01*
X0225083Y0364721D01*
X0225136Y0364867D01*
X0225192Y0365010D01*
X0225252Y0365153D01*
X0225316Y0365293D01*
X0225383Y0365433D01*
X0225454Y0365570D01*
X0225528Y0365705D01*
X0225606Y0365839D01*
X0225687Y0365970D01*
X0225772Y0366099D01*
X0225860Y0366227D01*
X0225951Y0366351D01*
X0226045Y0366474D01*
X0226143Y0366594D01*
X0226243Y0366711D01*
X0226347Y0366826D01*
X0226453Y0366938D01*
X0226562Y0367047D01*
X0226674Y0367153D01*
X0226789Y0367257D01*
X0226906Y0367357D01*
X0227026Y0367455D01*
X0227149Y0367549D01*
X0227273Y0367640D01*
X0227401Y0367728D01*
X0227530Y0367813D01*
X0227661Y0367894D01*
X0227795Y0367972D01*
X0227930Y0368046D01*
X0228067Y0368117D01*
X0228207Y0368184D01*
X0228347Y0368248D01*
X0228490Y0368308D01*
X0228633Y0368364D01*
X0228779Y0368417D01*
X0228925Y0368466D01*
X0229073Y0368511D01*
X0229222Y0368552D01*
X0229372Y0368590D01*
X0229523Y0368623D01*
X0229674Y0368653D01*
X0229827Y0368679D01*
X0229980Y0368700D01*
X0230133Y0368718D01*
X0230287Y0368732D01*
X0230441Y0368742D01*
X0230596Y0368748D01*
X0230750Y0368750D01*
X0230904Y0368748D01*
X0231059Y0368742D01*
X0231213Y0368732D01*
X0231367Y0368718D01*
X0231520Y0368700D01*
X0231673Y0368679D01*
X0231826Y0368653D01*
X0231977Y0368623D01*
X0232128Y0368590D01*
X0232278Y0368552D01*
X0232427Y0368511D01*
X0232575Y0368466D01*
X0232721Y0368417D01*
X0232867Y0368364D01*
X0233010Y0368308D01*
X0233153Y0368248D01*
X0233293Y0368184D01*
X0233433Y0368117D01*
X0233570Y0368046D01*
X0233705Y0367972D01*
X0233839Y0367894D01*
X0233970Y0367813D01*
X0234099Y0367728D01*
X0234227Y0367640D01*
X0234351Y0367549D01*
X0234474Y0367455D01*
X0234594Y0367357D01*
X0234711Y0367257D01*
X0234826Y0367153D01*
X0234938Y0367047D01*
X0235047Y0366938D01*
X0235153Y0366826D01*
X0235257Y0366711D01*
X0235357Y0366594D01*
X0235455Y0366474D01*
X0235549Y0366351D01*
X0235640Y0366227D01*
X0235728Y0366099D01*
X0235813Y0365970D01*
X0235894Y0365839D01*
X0235972Y0365705D01*
X0236046Y0365570D01*
X0236117Y0365433D01*
X0236184Y0365293D01*
X0236248Y0365153D01*
X0236308Y0365010D01*
X0236364Y0364867D01*
X0236417Y0364721D01*
X0236466Y0364575D01*
X0236511Y0364427D01*
X0236552Y0364278D01*
X0236590Y0364128D01*
X0236623Y0363977D01*
X0236653Y0363826D01*
X0236679Y0363673D01*
X0236700Y0363520D01*
X0236718Y0363367D01*
X0236732Y0363213D01*
X0236742Y0363059D01*
X0236748Y0362904D01*
X0236750Y0362750D01*
X0236748Y0362596D01*
X0236742Y0362441D01*
X0236732Y0362287D01*
X0236718Y0362133D01*
X0236700Y0361980D01*
X0236679Y0361827D01*
X0236653Y0361674D01*
X0236623Y0361523D01*
X0236590Y0361372D01*
X0236552Y0361222D01*
X0236511Y0361073D01*
X0236466Y0360925D01*
X0236417Y0360779D01*
X0236364Y0360633D01*
X0236308Y0360490D01*
X0236248Y0360347D01*
X0236184Y0360207D01*
X0236117Y0360067D01*
X0236046Y0359930D01*
X0235972Y0359795D01*
X0235894Y0359661D01*
X0235813Y0359530D01*
X0235728Y0359401D01*
X0235640Y0359273D01*
X0235549Y0359149D01*
X0235455Y0359026D01*
X0235357Y0358906D01*
X0235257Y0358789D01*
X0235153Y0358674D01*
X0235047Y0358562D01*
X0234938Y0358453D01*
X0234826Y0358347D01*
X0234711Y0358243D01*
X0234594Y0358143D01*
X0234474Y0358045D01*
X0234351Y0357951D01*
X0234227Y0357860D01*
X0234099Y0357772D01*
X0233970Y0357687D01*
X0233839Y0357606D01*
X0233705Y0357528D01*
X0233570Y0357454D01*
X0233433Y0357383D01*
X0233293Y0357316D01*
X0233153Y0357252D01*
X0233010Y0357192D01*
X0232867Y0357136D01*
X0232721Y0357083D01*
X0232575Y0357034D01*
X0232427Y0356989D01*
X0232278Y0356948D01*
X0232128Y0356910D01*
X0231977Y0356877D01*
X0231826Y0356847D01*
X0231673Y0356821D01*
X0231520Y0356800D01*
X0231367Y0356782D01*
X0231213Y0356768D01*
X0231059Y0356758D01*
X0230904Y0356752D01*
X0230750Y0356750D01*
X0230596Y0356752D01*
X0230441Y0356758D01*
X0230287Y0356768D01*
X0230133Y0356782D01*
X0229980Y0356800D01*
X0229827Y0356821D01*
X0229674Y0356847D01*
X0229523Y0356877D01*
X0229372Y0356910D01*
X0229222Y0356948D01*
X0229073Y0356989D01*
X0228925Y0357034D01*
X0228779Y0357083D01*
X0228633Y0357136D01*
X0228490Y0357192D01*
X0228347Y0357252D01*
X0228207Y0357316D01*
X0228067Y0357383D01*
X0227930Y0357454D01*
X0227795Y0357528D01*
X0227661Y0357606D01*
X0227530Y0357687D01*
X0227401Y0357772D01*
X0227273Y0357860D01*
X0227149Y0357951D01*
X0227026Y0358045D01*
X0226906Y0358143D01*
X0226789Y0358243D01*
X0226674Y0358347D01*
X0226562Y0358453D01*
X0226453Y0358562D01*
X0226347Y0358674D01*
X0226243Y0358789D01*
X0226143Y0358906D01*
X0226045Y0359026D01*
X0225951Y0359149D01*
X0225860Y0359273D01*
X0225772Y0359401D01*
X0225687Y0359530D01*
X0225606Y0359661D01*
X0225528Y0359795D01*
X0225454Y0359930D01*
X0225383Y0360067D01*
X0225316Y0360207D01*
X0225252Y0360347D01*
X0225192Y0360490D01*
X0225136Y0360633D01*
X0225083Y0360779D01*
X0225034Y0360925D01*
X0224989Y0361073D01*
X0224948Y0361222D01*
X0224910Y0361372D01*
X0224877Y0361523D01*
X0224847Y0361674D01*
X0224821Y0361827D01*
X0224800Y0361980D01*
X0224782Y0362133D01*
X0224768Y0362287D01*
X0224758Y0362441D01*
X0224752Y0362596D01*
X0224750Y0362750D01*
X0202750Y0362750D02*
X0202752Y0362904D01*
X0202758Y0363059D01*
X0202768Y0363213D01*
X0202782Y0363367D01*
X0202800Y0363520D01*
X0202821Y0363673D01*
X0202847Y0363826D01*
X0202877Y0363977D01*
X0202910Y0364128D01*
X0202948Y0364278D01*
X0202989Y0364427D01*
X0203034Y0364575D01*
X0203083Y0364721D01*
X0203136Y0364867D01*
X0203192Y0365010D01*
X0203252Y0365153D01*
X0203316Y0365293D01*
X0203383Y0365433D01*
X0203454Y0365570D01*
X0203528Y0365705D01*
X0203606Y0365839D01*
X0203687Y0365970D01*
X0203772Y0366099D01*
X0203860Y0366227D01*
X0203951Y0366351D01*
X0204045Y0366474D01*
X0204143Y0366594D01*
X0204243Y0366711D01*
X0204347Y0366826D01*
X0204453Y0366938D01*
X0204562Y0367047D01*
X0204674Y0367153D01*
X0204789Y0367257D01*
X0204906Y0367357D01*
X0205026Y0367455D01*
X0205149Y0367549D01*
X0205273Y0367640D01*
X0205401Y0367728D01*
X0205530Y0367813D01*
X0205661Y0367894D01*
X0205795Y0367972D01*
X0205930Y0368046D01*
X0206067Y0368117D01*
X0206207Y0368184D01*
X0206347Y0368248D01*
X0206490Y0368308D01*
X0206633Y0368364D01*
X0206779Y0368417D01*
X0206925Y0368466D01*
X0207073Y0368511D01*
X0207222Y0368552D01*
X0207372Y0368590D01*
X0207523Y0368623D01*
X0207674Y0368653D01*
X0207827Y0368679D01*
X0207980Y0368700D01*
X0208133Y0368718D01*
X0208287Y0368732D01*
X0208441Y0368742D01*
X0208596Y0368748D01*
X0208750Y0368750D01*
X0208904Y0368748D01*
X0209059Y0368742D01*
X0209213Y0368732D01*
X0209367Y0368718D01*
X0209520Y0368700D01*
X0209673Y0368679D01*
X0209826Y0368653D01*
X0209977Y0368623D01*
X0210128Y0368590D01*
X0210278Y0368552D01*
X0210427Y0368511D01*
X0210575Y0368466D01*
X0210721Y0368417D01*
X0210867Y0368364D01*
X0211010Y0368308D01*
X0211153Y0368248D01*
X0211293Y0368184D01*
X0211433Y0368117D01*
X0211570Y0368046D01*
X0211705Y0367972D01*
X0211839Y0367894D01*
X0211970Y0367813D01*
X0212099Y0367728D01*
X0212227Y0367640D01*
X0212351Y0367549D01*
X0212474Y0367455D01*
X0212594Y0367357D01*
X0212711Y0367257D01*
X0212826Y0367153D01*
X0212938Y0367047D01*
X0213047Y0366938D01*
X0213153Y0366826D01*
X0213257Y0366711D01*
X0213357Y0366594D01*
X0213455Y0366474D01*
X0213549Y0366351D01*
X0213640Y0366227D01*
X0213728Y0366099D01*
X0213813Y0365970D01*
X0213894Y0365839D01*
X0213972Y0365705D01*
X0214046Y0365570D01*
X0214117Y0365433D01*
X0214184Y0365293D01*
X0214248Y0365153D01*
X0214308Y0365010D01*
X0214364Y0364867D01*
X0214417Y0364721D01*
X0214466Y0364575D01*
X0214511Y0364427D01*
X0214552Y0364278D01*
X0214590Y0364128D01*
X0214623Y0363977D01*
X0214653Y0363826D01*
X0214679Y0363673D01*
X0214700Y0363520D01*
X0214718Y0363367D01*
X0214732Y0363213D01*
X0214742Y0363059D01*
X0214748Y0362904D01*
X0214750Y0362750D01*
X0214748Y0362596D01*
X0214742Y0362441D01*
X0214732Y0362287D01*
X0214718Y0362133D01*
X0214700Y0361980D01*
X0214679Y0361827D01*
X0214653Y0361674D01*
X0214623Y0361523D01*
X0214590Y0361372D01*
X0214552Y0361222D01*
X0214511Y0361073D01*
X0214466Y0360925D01*
X0214417Y0360779D01*
X0214364Y0360633D01*
X0214308Y0360490D01*
X0214248Y0360347D01*
X0214184Y0360207D01*
X0214117Y0360067D01*
X0214046Y0359930D01*
X0213972Y0359795D01*
X0213894Y0359661D01*
X0213813Y0359530D01*
X0213728Y0359401D01*
X0213640Y0359273D01*
X0213549Y0359149D01*
X0213455Y0359026D01*
X0213357Y0358906D01*
X0213257Y0358789D01*
X0213153Y0358674D01*
X0213047Y0358562D01*
X0212938Y0358453D01*
X0212826Y0358347D01*
X0212711Y0358243D01*
X0212594Y0358143D01*
X0212474Y0358045D01*
X0212351Y0357951D01*
X0212227Y0357860D01*
X0212099Y0357772D01*
X0211970Y0357687D01*
X0211839Y0357606D01*
X0211705Y0357528D01*
X0211570Y0357454D01*
X0211433Y0357383D01*
X0211293Y0357316D01*
X0211153Y0357252D01*
X0211010Y0357192D01*
X0210867Y0357136D01*
X0210721Y0357083D01*
X0210575Y0357034D01*
X0210427Y0356989D01*
X0210278Y0356948D01*
X0210128Y0356910D01*
X0209977Y0356877D01*
X0209826Y0356847D01*
X0209673Y0356821D01*
X0209520Y0356800D01*
X0209367Y0356782D01*
X0209213Y0356768D01*
X0209059Y0356758D01*
X0208904Y0356752D01*
X0208750Y0356750D01*
X0208596Y0356752D01*
X0208441Y0356758D01*
X0208287Y0356768D01*
X0208133Y0356782D01*
X0207980Y0356800D01*
X0207827Y0356821D01*
X0207674Y0356847D01*
X0207523Y0356877D01*
X0207372Y0356910D01*
X0207222Y0356948D01*
X0207073Y0356989D01*
X0206925Y0357034D01*
X0206779Y0357083D01*
X0206633Y0357136D01*
X0206490Y0357192D01*
X0206347Y0357252D01*
X0206207Y0357316D01*
X0206067Y0357383D01*
X0205930Y0357454D01*
X0205795Y0357528D01*
X0205661Y0357606D01*
X0205530Y0357687D01*
X0205401Y0357772D01*
X0205273Y0357860D01*
X0205149Y0357951D01*
X0205026Y0358045D01*
X0204906Y0358143D01*
X0204789Y0358243D01*
X0204674Y0358347D01*
X0204562Y0358453D01*
X0204453Y0358562D01*
X0204347Y0358674D01*
X0204243Y0358789D01*
X0204143Y0358906D01*
X0204045Y0359026D01*
X0203951Y0359149D01*
X0203860Y0359273D01*
X0203772Y0359401D01*
X0203687Y0359530D01*
X0203606Y0359661D01*
X0203528Y0359795D01*
X0203454Y0359930D01*
X0203383Y0360067D01*
X0203316Y0360207D01*
X0203252Y0360347D01*
X0203192Y0360490D01*
X0203136Y0360633D01*
X0203083Y0360779D01*
X0203034Y0360925D01*
X0202989Y0361073D01*
X0202948Y0361222D01*
X0202910Y0361372D01*
X0202877Y0361523D01*
X0202847Y0361674D01*
X0202821Y0361827D01*
X0202800Y0361980D01*
X0202782Y0362133D01*
X0202768Y0362287D01*
X0202758Y0362441D01*
X0202752Y0362596D01*
X0202750Y0362750D01*
X0032750Y0362750D02*
X0032752Y0362904D01*
X0032758Y0363059D01*
X0032768Y0363213D01*
X0032782Y0363367D01*
X0032800Y0363520D01*
X0032821Y0363673D01*
X0032847Y0363826D01*
X0032877Y0363977D01*
X0032910Y0364128D01*
X0032948Y0364278D01*
X0032989Y0364427D01*
X0033034Y0364575D01*
X0033083Y0364721D01*
X0033136Y0364867D01*
X0033192Y0365010D01*
X0033252Y0365153D01*
X0033316Y0365293D01*
X0033383Y0365433D01*
X0033454Y0365570D01*
X0033528Y0365705D01*
X0033606Y0365839D01*
X0033687Y0365970D01*
X0033772Y0366099D01*
X0033860Y0366227D01*
X0033951Y0366351D01*
X0034045Y0366474D01*
X0034143Y0366594D01*
X0034243Y0366711D01*
X0034347Y0366826D01*
X0034453Y0366938D01*
X0034562Y0367047D01*
X0034674Y0367153D01*
X0034789Y0367257D01*
X0034906Y0367357D01*
X0035026Y0367455D01*
X0035149Y0367549D01*
X0035273Y0367640D01*
X0035401Y0367728D01*
X0035530Y0367813D01*
X0035661Y0367894D01*
X0035795Y0367972D01*
X0035930Y0368046D01*
X0036067Y0368117D01*
X0036207Y0368184D01*
X0036347Y0368248D01*
X0036490Y0368308D01*
X0036633Y0368364D01*
X0036779Y0368417D01*
X0036925Y0368466D01*
X0037073Y0368511D01*
X0037222Y0368552D01*
X0037372Y0368590D01*
X0037523Y0368623D01*
X0037674Y0368653D01*
X0037827Y0368679D01*
X0037980Y0368700D01*
X0038133Y0368718D01*
X0038287Y0368732D01*
X0038441Y0368742D01*
X0038596Y0368748D01*
X0038750Y0368750D01*
X0038904Y0368748D01*
X0039059Y0368742D01*
X0039213Y0368732D01*
X0039367Y0368718D01*
X0039520Y0368700D01*
X0039673Y0368679D01*
X0039826Y0368653D01*
X0039977Y0368623D01*
X0040128Y0368590D01*
X0040278Y0368552D01*
X0040427Y0368511D01*
X0040575Y0368466D01*
X0040721Y0368417D01*
X0040867Y0368364D01*
X0041010Y0368308D01*
X0041153Y0368248D01*
X0041293Y0368184D01*
X0041433Y0368117D01*
X0041570Y0368046D01*
X0041705Y0367972D01*
X0041839Y0367894D01*
X0041970Y0367813D01*
X0042099Y0367728D01*
X0042227Y0367640D01*
X0042351Y0367549D01*
X0042474Y0367455D01*
X0042594Y0367357D01*
X0042711Y0367257D01*
X0042826Y0367153D01*
X0042938Y0367047D01*
X0043047Y0366938D01*
X0043153Y0366826D01*
X0043257Y0366711D01*
X0043357Y0366594D01*
X0043455Y0366474D01*
X0043549Y0366351D01*
X0043640Y0366227D01*
X0043728Y0366099D01*
X0043813Y0365970D01*
X0043894Y0365839D01*
X0043972Y0365705D01*
X0044046Y0365570D01*
X0044117Y0365433D01*
X0044184Y0365293D01*
X0044248Y0365153D01*
X0044308Y0365010D01*
X0044364Y0364867D01*
X0044417Y0364721D01*
X0044466Y0364575D01*
X0044511Y0364427D01*
X0044552Y0364278D01*
X0044590Y0364128D01*
X0044623Y0363977D01*
X0044653Y0363826D01*
X0044679Y0363673D01*
X0044700Y0363520D01*
X0044718Y0363367D01*
X0044732Y0363213D01*
X0044742Y0363059D01*
X0044748Y0362904D01*
X0044750Y0362750D01*
X0044748Y0362596D01*
X0044742Y0362441D01*
X0044732Y0362287D01*
X0044718Y0362133D01*
X0044700Y0361980D01*
X0044679Y0361827D01*
X0044653Y0361674D01*
X0044623Y0361523D01*
X0044590Y0361372D01*
X0044552Y0361222D01*
X0044511Y0361073D01*
X0044466Y0360925D01*
X0044417Y0360779D01*
X0044364Y0360633D01*
X0044308Y0360490D01*
X0044248Y0360347D01*
X0044184Y0360207D01*
X0044117Y0360067D01*
X0044046Y0359930D01*
X0043972Y0359795D01*
X0043894Y0359661D01*
X0043813Y0359530D01*
X0043728Y0359401D01*
X0043640Y0359273D01*
X0043549Y0359149D01*
X0043455Y0359026D01*
X0043357Y0358906D01*
X0043257Y0358789D01*
X0043153Y0358674D01*
X0043047Y0358562D01*
X0042938Y0358453D01*
X0042826Y0358347D01*
X0042711Y0358243D01*
X0042594Y0358143D01*
X0042474Y0358045D01*
X0042351Y0357951D01*
X0042227Y0357860D01*
X0042099Y0357772D01*
X0041970Y0357687D01*
X0041839Y0357606D01*
X0041705Y0357528D01*
X0041570Y0357454D01*
X0041433Y0357383D01*
X0041293Y0357316D01*
X0041153Y0357252D01*
X0041010Y0357192D01*
X0040867Y0357136D01*
X0040721Y0357083D01*
X0040575Y0357034D01*
X0040427Y0356989D01*
X0040278Y0356948D01*
X0040128Y0356910D01*
X0039977Y0356877D01*
X0039826Y0356847D01*
X0039673Y0356821D01*
X0039520Y0356800D01*
X0039367Y0356782D01*
X0039213Y0356768D01*
X0039059Y0356758D01*
X0038904Y0356752D01*
X0038750Y0356750D01*
X0038596Y0356752D01*
X0038441Y0356758D01*
X0038287Y0356768D01*
X0038133Y0356782D01*
X0037980Y0356800D01*
X0037827Y0356821D01*
X0037674Y0356847D01*
X0037523Y0356877D01*
X0037372Y0356910D01*
X0037222Y0356948D01*
X0037073Y0356989D01*
X0036925Y0357034D01*
X0036779Y0357083D01*
X0036633Y0357136D01*
X0036490Y0357192D01*
X0036347Y0357252D01*
X0036207Y0357316D01*
X0036067Y0357383D01*
X0035930Y0357454D01*
X0035795Y0357528D01*
X0035661Y0357606D01*
X0035530Y0357687D01*
X0035401Y0357772D01*
X0035273Y0357860D01*
X0035149Y0357951D01*
X0035026Y0358045D01*
X0034906Y0358143D01*
X0034789Y0358243D01*
X0034674Y0358347D01*
X0034562Y0358453D01*
X0034453Y0358562D01*
X0034347Y0358674D01*
X0034243Y0358789D01*
X0034143Y0358906D01*
X0034045Y0359026D01*
X0033951Y0359149D01*
X0033860Y0359273D01*
X0033772Y0359401D01*
X0033687Y0359530D01*
X0033606Y0359661D01*
X0033528Y0359795D01*
X0033454Y0359930D01*
X0033383Y0360067D01*
X0033316Y0360207D01*
X0033252Y0360347D01*
X0033192Y0360490D01*
X0033136Y0360633D01*
X0033083Y0360779D01*
X0033034Y0360925D01*
X0032989Y0361073D01*
X0032948Y0361222D01*
X0032910Y0361372D01*
X0032877Y0361523D01*
X0032847Y0361674D01*
X0032821Y0361827D01*
X0032800Y0361980D01*
X0032782Y0362133D01*
X0032768Y0362287D01*
X0032758Y0362441D01*
X0032752Y0362596D01*
X0032750Y0362750D01*
X0032750Y0200750D02*
X0032752Y0200904D01*
X0032758Y0201059D01*
X0032768Y0201213D01*
X0032782Y0201367D01*
X0032800Y0201520D01*
X0032821Y0201673D01*
X0032847Y0201826D01*
X0032877Y0201977D01*
X0032910Y0202128D01*
X0032948Y0202278D01*
X0032989Y0202427D01*
X0033034Y0202575D01*
X0033083Y0202721D01*
X0033136Y0202867D01*
X0033192Y0203010D01*
X0033252Y0203153D01*
X0033316Y0203293D01*
X0033383Y0203433D01*
X0033454Y0203570D01*
X0033528Y0203705D01*
X0033606Y0203839D01*
X0033687Y0203970D01*
X0033772Y0204099D01*
X0033860Y0204227D01*
X0033951Y0204351D01*
X0034045Y0204474D01*
X0034143Y0204594D01*
X0034243Y0204711D01*
X0034347Y0204826D01*
X0034453Y0204938D01*
X0034562Y0205047D01*
X0034674Y0205153D01*
X0034789Y0205257D01*
X0034906Y0205357D01*
X0035026Y0205455D01*
X0035149Y0205549D01*
X0035273Y0205640D01*
X0035401Y0205728D01*
X0035530Y0205813D01*
X0035661Y0205894D01*
X0035795Y0205972D01*
X0035930Y0206046D01*
X0036067Y0206117D01*
X0036207Y0206184D01*
X0036347Y0206248D01*
X0036490Y0206308D01*
X0036633Y0206364D01*
X0036779Y0206417D01*
X0036925Y0206466D01*
X0037073Y0206511D01*
X0037222Y0206552D01*
X0037372Y0206590D01*
X0037523Y0206623D01*
X0037674Y0206653D01*
X0037827Y0206679D01*
X0037980Y0206700D01*
X0038133Y0206718D01*
X0038287Y0206732D01*
X0038441Y0206742D01*
X0038596Y0206748D01*
X0038750Y0206750D01*
X0038904Y0206748D01*
X0039059Y0206742D01*
X0039213Y0206732D01*
X0039367Y0206718D01*
X0039520Y0206700D01*
X0039673Y0206679D01*
X0039826Y0206653D01*
X0039977Y0206623D01*
X0040128Y0206590D01*
X0040278Y0206552D01*
X0040427Y0206511D01*
X0040575Y0206466D01*
X0040721Y0206417D01*
X0040867Y0206364D01*
X0041010Y0206308D01*
X0041153Y0206248D01*
X0041293Y0206184D01*
X0041433Y0206117D01*
X0041570Y0206046D01*
X0041705Y0205972D01*
X0041839Y0205894D01*
X0041970Y0205813D01*
X0042099Y0205728D01*
X0042227Y0205640D01*
X0042351Y0205549D01*
X0042474Y0205455D01*
X0042594Y0205357D01*
X0042711Y0205257D01*
X0042826Y0205153D01*
X0042938Y0205047D01*
X0043047Y0204938D01*
X0043153Y0204826D01*
X0043257Y0204711D01*
X0043357Y0204594D01*
X0043455Y0204474D01*
X0043549Y0204351D01*
X0043640Y0204227D01*
X0043728Y0204099D01*
X0043813Y0203970D01*
X0043894Y0203839D01*
X0043972Y0203705D01*
X0044046Y0203570D01*
X0044117Y0203433D01*
X0044184Y0203293D01*
X0044248Y0203153D01*
X0044308Y0203010D01*
X0044364Y0202867D01*
X0044417Y0202721D01*
X0044466Y0202575D01*
X0044511Y0202427D01*
X0044552Y0202278D01*
X0044590Y0202128D01*
X0044623Y0201977D01*
X0044653Y0201826D01*
X0044679Y0201673D01*
X0044700Y0201520D01*
X0044718Y0201367D01*
X0044732Y0201213D01*
X0044742Y0201059D01*
X0044748Y0200904D01*
X0044750Y0200750D01*
X0044748Y0200596D01*
X0044742Y0200441D01*
X0044732Y0200287D01*
X0044718Y0200133D01*
X0044700Y0199980D01*
X0044679Y0199827D01*
X0044653Y0199674D01*
X0044623Y0199523D01*
X0044590Y0199372D01*
X0044552Y0199222D01*
X0044511Y0199073D01*
X0044466Y0198925D01*
X0044417Y0198779D01*
X0044364Y0198633D01*
X0044308Y0198490D01*
X0044248Y0198347D01*
X0044184Y0198207D01*
X0044117Y0198067D01*
X0044046Y0197930D01*
X0043972Y0197795D01*
X0043894Y0197661D01*
X0043813Y0197530D01*
X0043728Y0197401D01*
X0043640Y0197273D01*
X0043549Y0197149D01*
X0043455Y0197026D01*
X0043357Y0196906D01*
X0043257Y0196789D01*
X0043153Y0196674D01*
X0043047Y0196562D01*
X0042938Y0196453D01*
X0042826Y0196347D01*
X0042711Y0196243D01*
X0042594Y0196143D01*
X0042474Y0196045D01*
X0042351Y0195951D01*
X0042227Y0195860D01*
X0042099Y0195772D01*
X0041970Y0195687D01*
X0041839Y0195606D01*
X0041705Y0195528D01*
X0041570Y0195454D01*
X0041433Y0195383D01*
X0041293Y0195316D01*
X0041153Y0195252D01*
X0041010Y0195192D01*
X0040867Y0195136D01*
X0040721Y0195083D01*
X0040575Y0195034D01*
X0040427Y0194989D01*
X0040278Y0194948D01*
X0040128Y0194910D01*
X0039977Y0194877D01*
X0039826Y0194847D01*
X0039673Y0194821D01*
X0039520Y0194800D01*
X0039367Y0194782D01*
X0039213Y0194768D01*
X0039059Y0194758D01*
X0038904Y0194752D01*
X0038750Y0194750D01*
X0038596Y0194752D01*
X0038441Y0194758D01*
X0038287Y0194768D01*
X0038133Y0194782D01*
X0037980Y0194800D01*
X0037827Y0194821D01*
X0037674Y0194847D01*
X0037523Y0194877D01*
X0037372Y0194910D01*
X0037222Y0194948D01*
X0037073Y0194989D01*
X0036925Y0195034D01*
X0036779Y0195083D01*
X0036633Y0195136D01*
X0036490Y0195192D01*
X0036347Y0195252D01*
X0036207Y0195316D01*
X0036067Y0195383D01*
X0035930Y0195454D01*
X0035795Y0195528D01*
X0035661Y0195606D01*
X0035530Y0195687D01*
X0035401Y0195772D01*
X0035273Y0195860D01*
X0035149Y0195951D01*
X0035026Y0196045D01*
X0034906Y0196143D01*
X0034789Y0196243D01*
X0034674Y0196347D01*
X0034562Y0196453D01*
X0034453Y0196562D01*
X0034347Y0196674D01*
X0034243Y0196789D01*
X0034143Y0196906D01*
X0034045Y0197026D01*
X0033951Y0197149D01*
X0033860Y0197273D01*
X0033772Y0197401D01*
X0033687Y0197530D01*
X0033606Y0197661D01*
X0033528Y0197795D01*
X0033454Y0197930D01*
X0033383Y0198067D01*
X0033316Y0198207D01*
X0033252Y0198347D01*
X0033192Y0198490D01*
X0033136Y0198633D01*
X0033083Y0198779D01*
X0033034Y0198925D01*
X0032989Y0199073D01*
X0032948Y0199222D01*
X0032910Y0199372D01*
X0032877Y0199523D01*
X0032847Y0199674D01*
X0032821Y0199827D01*
X0032800Y0199980D01*
X0032782Y0200133D01*
X0032768Y0200287D01*
X0032758Y0200441D01*
X0032752Y0200596D01*
X0032750Y0200750D01*
X0202750Y0200750D02*
X0202752Y0200904D01*
X0202758Y0201059D01*
X0202768Y0201213D01*
X0202782Y0201367D01*
X0202800Y0201520D01*
X0202821Y0201673D01*
X0202847Y0201826D01*
X0202877Y0201977D01*
X0202910Y0202128D01*
X0202948Y0202278D01*
X0202989Y0202427D01*
X0203034Y0202575D01*
X0203083Y0202721D01*
X0203136Y0202867D01*
X0203192Y0203010D01*
X0203252Y0203153D01*
X0203316Y0203293D01*
X0203383Y0203433D01*
X0203454Y0203570D01*
X0203528Y0203705D01*
X0203606Y0203839D01*
X0203687Y0203970D01*
X0203772Y0204099D01*
X0203860Y0204227D01*
X0203951Y0204351D01*
X0204045Y0204474D01*
X0204143Y0204594D01*
X0204243Y0204711D01*
X0204347Y0204826D01*
X0204453Y0204938D01*
X0204562Y0205047D01*
X0204674Y0205153D01*
X0204789Y0205257D01*
X0204906Y0205357D01*
X0205026Y0205455D01*
X0205149Y0205549D01*
X0205273Y0205640D01*
X0205401Y0205728D01*
X0205530Y0205813D01*
X0205661Y0205894D01*
X0205795Y0205972D01*
X0205930Y0206046D01*
X0206067Y0206117D01*
X0206207Y0206184D01*
X0206347Y0206248D01*
X0206490Y0206308D01*
X0206633Y0206364D01*
X0206779Y0206417D01*
X0206925Y0206466D01*
X0207073Y0206511D01*
X0207222Y0206552D01*
X0207372Y0206590D01*
X0207523Y0206623D01*
X0207674Y0206653D01*
X0207827Y0206679D01*
X0207980Y0206700D01*
X0208133Y0206718D01*
X0208287Y0206732D01*
X0208441Y0206742D01*
X0208596Y0206748D01*
X0208750Y0206750D01*
X0208904Y0206748D01*
X0209059Y0206742D01*
X0209213Y0206732D01*
X0209367Y0206718D01*
X0209520Y0206700D01*
X0209673Y0206679D01*
X0209826Y0206653D01*
X0209977Y0206623D01*
X0210128Y0206590D01*
X0210278Y0206552D01*
X0210427Y0206511D01*
X0210575Y0206466D01*
X0210721Y0206417D01*
X0210867Y0206364D01*
X0211010Y0206308D01*
X0211153Y0206248D01*
X0211293Y0206184D01*
X0211433Y0206117D01*
X0211570Y0206046D01*
X0211705Y0205972D01*
X0211839Y0205894D01*
X0211970Y0205813D01*
X0212099Y0205728D01*
X0212227Y0205640D01*
X0212351Y0205549D01*
X0212474Y0205455D01*
X0212594Y0205357D01*
X0212711Y0205257D01*
X0212826Y0205153D01*
X0212938Y0205047D01*
X0213047Y0204938D01*
X0213153Y0204826D01*
X0213257Y0204711D01*
X0213357Y0204594D01*
X0213455Y0204474D01*
X0213549Y0204351D01*
X0213640Y0204227D01*
X0213728Y0204099D01*
X0213813Y0203970D01*
X0213894Y0203839D01*
X0213972Y0203705D01*
X0214046Y0203570D01*
X0214117Y0203433D01*
X0214184Y0203293D01*
X0214248Y0203153D01*
X0214308Y0203010D01*
X0214364Y0202867D01*
X0214417Y0202721D01*
X0214466Y0202575D01*
X0214511Y0202427D01*
X0214552Y0202278D01*
X0214590Y0202128D01*
X0214623Y0201977D01*
X0214653Y0201826D01*
X0214679Y0201673D01*
X0214700Y0201520D01*
X0214718Y0201367D01*
X0214732Y0201213D01*
X0214742Y0201059D01*
X0214748Y0200904D01*
X0214750Y0200750D01*
X0214748Y0200596D01*
X0214742Y0200441D01*
X0214732Y0200287D01*
X0214718Y0200133D01*
X0214700Y0199980D01*
X0214679Y0199827D01*
X0214653Y0199674D01*
X0214623Y0199523D01*
X0214590Y0199372D01*
X0214552Y0199222D01*
X0214511Y0199073D01*
X0214466Y0198925D01*
X0214417Y0198779D01*
X0214364Y0198633D01*
X0214308Y0198490D01*
X0214248Y0198347D01*
X0214184Y0198207D01*
X0214117Y0198067D01*
X0214046Y0197930D01*
X0213972Y0197795D01*
X0213894Y0197661D01*
X0213813Y0197530D01*
X0213728Y0197401D01*
X0213640Y0197273D01*
X0213549Y0197149D01*
X0213455Y0197026D01*
X0213357Y0196906D01*
X0213257Y0196789D01*
X0213153Y0196674D01*
X0213047Y0196562D01*
X0212938Y0196453D01*
X0212826Y0196347D01*
X0212711Y0196243D01*
X0212594Y0196143D01*
X0212474Y0196045D01*
X0212351Y0195951D01*
X0212227Y0195860D01*
X0212099Y0195772D01*
X0211970Y0195687D01*
X0211839Y0195606D01*
X0211705Y0195528D01*
X0211570Y0195454D01*
X0211433Y0195383D01*
X0211293Y0195316D01*
X0211153Y0195252D01*
X0211010Y0195192D01*
X0210867Y0195136D01*
X0210721Y0195083D01*
X0210575Y0195034D01*
X0210427Y0194989D01*
X0210278Y0194948D01*
X0210128Y0194910D01*
X0209977Y0194877D01*
X0209826Y0194847D01*
X0209673Y0194821D01*
X0209520Y0194800D01*
X0209367Y0194782D01*
X0209213Y0194768D01*
X0209059Y0194758D01*
X0208904Y0194752D01*
X0208750Y0194750D01*
X0208596Y0194752D01*
X0208441Y0194758D01*
X0208287Y0194768D01*
X0208133Y0194782D01*
X0207980Y0194800D01*
X0207827Y0194821D01*
X0207674Y0194847D01*
X0207523Y0194877D01*
X0207372Y0194910D01*
X0207222Y0194948D01*
X0207073Y0194989D01*
X0206925Y0195034D01*
X0206779Y0195083D01*
X0206633Y0195136D01*
X0206490Y0195192D01*
X0206347Y0195252D01*
X0206207Y0195316D01*
X0206067Y0195383D01*
X0205930Y0195454D01*
X0205795Y0195528D01*
X0205661Y0195606D01*
X0205530Y0195687D01*
X0205401Y0195772D01*
X0205273Y0195860D01*
X0205149Y0195951D01*
X0205026Y0196045D01*
X0204906Y0196143D01*
X0204789Y0196243D01*
X0204674Y0196347D01*
X0204562Y0196453D01*
X0204453Y0196562D01*
X0204347Y0196674D01*
X0204243Y0196789D01*
X0204143Y0196906D01*
X0204045Y0197026D01*
X0203951Y0197149D01*
X0203860Y0197273D01*
X0203772Y0197401D01*
X0203687Y0197530D01*
X0203606Y0197661D01*
X0203528Y0197795D01*
X0203454Y0197930D01*
X0203383Y0198067D01*
X0203316Y0198207D01*
X0203252Y0198347D01*
X0203192Y0198490D01*
X0203136Y0198633D01*
X0203083Y0198779D01*
X0203034Y0198925D01*
X0202989Y0199073D01*
X0202948Y0199222D01*
X0202910Y0199372D01*
X0202877Y0199523D01*
X0202847Y0199674D01*
X0202821Y0199827D01*
X0202800Y0199980D01*
X0202782Y0200133D01*
X0202768Y0200287D01*
X0202758Y0200441D01*
X0202752Y0200596D01*
X0202750Y0200750D01*
X0224750Y0200750D02*
X0224752Y0200904D01*
X0224758Y0201059D01*
X0224768Y0201213D01*
X0224782Y0201367D01*
X0224800Y0201520D01*
X0224821Y0201673D01*
X0224847Y0201826D01*
X0224877Y0201977D01*
X0224910Y0202128D01*
X0224948Y0202278D01*
X0224989Y0202427D01*
X0225034Y0202575D01*
X0225083Y0202721D01*
X0225136Y0202867D01*
X0225192Y0203010D01*
X0225252Y0203153D01*
X0225316Y0203293D01*
X0225383Y0203433D01*
X0225454Y0203570D01*
X0225528Y0203705D01*
X0225606Y0203839D01*
X0225687Y0203970D01*
X0225772Y0204099D01*
X0225860Y0204227D01*
X0225951Y0204351D01*
X0226045Y0204474D01*
X0226143Y0204594D01*
X0226243Y0204711D01*
X0226347Y0204826D01*
X0226453Y0204938D01*
X0226562Y0205047D01*
X0226674Y0205153D01*
X0226789Y0205257D01*
X0226906Y0205357D01*
X0227026Y0205455D01*
X0227149Y0205549D01*
X0227273Y0205640D01*
X0227401Y0205728D01*
X0227530Y0205813D01*
X0227661Y0205894D01*
X0227795Y0205972D01*
X0227930Y0206046D01*
X0228067Y0206117D01*
X0228207Y0206184D01*
X0228347Y0206248D01*
X0228490Y0206308D01*
X0228633Y0206364D01*
X0228779Y0206417D01*
X0228925Y0206466D01*
X0229073Y0206511D01*
X0229222Y0206552D01*
X0229372Y0206590D01*
X0229523Y0206623D01*
X0229674Y0206653D01*
X0229827Y0206679D01*
X0229980Y0206700D01*
X0230133Y0206718D01*
X0230287Y0206732D01*
X0230441Y0206742D01*
X0230596Y0206748D01*
X0230750Y0206750D01*
X0230904Y0206748D01*
X0231059Y0206742D01*
X0231213Y0206732D01*
X0231367Y0206718D01*
X0231520Y0206700D01*
X0231673Y0206679D01*
X0231826Y0206653D01*
X0231977Y0206623D01*
X0232128Y0206590D01*
X0232278Y0206552D01*
X0232427Y0206511D01*
X0232575Y0206466D01*
X0232721Y0206417D01*
X0232867Y0206364D01*
X0233010Y0206308D01*
X0233153Y0206248D01*
X0233293Y0206184D01*
X0233433Y0206117D01*
X0233570Y0206046D01*
X0233705Y0205972D01*
X0233839Y0205894D01*
X0233970Y0205813D01*
X0234099Y0205728D01*
X0234227Y0205640D01*
X0234351Y0205549D01*
X0234474Y0205455D01*
X0234594Y0205357D01*
X0234711Y0205257D01*
X0234826Y0205153D01*
X0234938Y0205047D01*
X0235047Y0204938D01*
X0235153Y0204826D01*
X0235257Y0204711D01*
X0235357Y0204594D01*
X0235455Y0204474D01*
X0235549Y0204351D01*
X0235640Y0204227D01*
X0235728Y0204099D01*
X0235813Y0203970D01*
X0235894Y0203839D01*
X0235972Y0203705D01*
X0236046Y0203570D01*
X0236117Y0203433D01*
X0236184Y0203293D01*
X0236248Y0203153D01*
X0236308Y0203010D01*
X0236364Y0202867D01*
X0236417Y0202721D01*
X0236466Y0202575D01*
X0236511Y0202427D01*
X0236552Y0202278D01*
X0236590Y0202128D01*
X0236623Y0201977D01*
X0236653Y0201826D01*
X0236679Y0201673D01*
X0236700Y0201520D01*
X0236718Y0201367D01*
X0236732Y0201213D01*
X0236742Y0201059D01*
X0236748Y0200904D01*
X0236750Y0200750D01*
X0236748Y0200596D01*
X0236742Y0200441D01*
X0236732Y0200287D01*
X0236718Y0200133D01*
X0236700Y0199980D01*
X0236679Y0199827D01*
X0236653Y0199674D01*
X0236623Y0199523D01*
X0236590Y0199372D01*
X0236552Y0199222D01*
X0236511Y0199073D01*
X0236466Y0198925D01*
X0236417Y0198779D01*
X0236364Y0198633D01*
X0236308Y0198490D01*
X0236248Y0198347D01*
X0236184Y0198207D01*
X0236117Y0198067D01*
X0236046Y0197930D01*
X0235972Y0197795D01*
X0235894Y0197661D01*
X0235813Y0197530D01*
X0235728Y0197401D01*
X0235640Y0197273D01*
X0235549Y0197149D01*
X0235455Y0197026D01*
X0235357Y0196906D01*
X0235257Y0196789D01*
X0235153Y0196674D01*
X0235047Y0196562D01*
X0234938Y0196453D01*
X0234826Y0196347D01*
X0234711Y0196243D01*
X0234594Y0196143D01*
X0234474Y0196045D01*
X0234351Y0195951D01*
X0234227Y0195860D01*
X0234099Y0195772D01*
X0233970Y0195687D01*
X0233839Y0195606D01*
X0233705Y0195528D01*
X0233570Y0195454D01*
X0233433Y0195383D01*
X0233293Y0195316D01*
X0233153Y0195252D01*
X0233010Y0195192D01*
X0232867Y0195136D01*
X0232721Y0195083D01*
X0232575Y0195034D01*
X0232427Y0194989D01*
X0232278Y0194948D01*
X0232128Y0194910D01*
X0231977Y0194877D01*
X0231826Y0194847D01*
X0231673Y0194821D01*
X0231520Y0194800D01*
X0231367Y0194782D01*
X0231213Y0194768D01*
X0231059Y0194758D01*
X0230904Y0194752D01*
X0230750Y0194750D01*
X0230596Y0194752D01*
X0230441Y0194758D01*
X0230287Y0194768D01*
X0230133Y0194782D01*
X0229980Y0194800D01*
X0229827Y0194821D01*
X0229674Y0194847D01*
X0229523Y0194877D01*
X0229372Y0194910D01*
X0229222Y0194948D01*
X0229073Y0194989D01*
X0228925Y0195034D01*
X0228779Y0195083D01*
X0228633Y0195136D01*
X0228490Y0195192D01*
X0228347Y0195252D01*
X0228207Y0195316D01*
X0228067Y0195383D01*
X0227930Y0195454D01*
X0227795Y0195528D01*
X0227661Y0195606D01*
X0227530Y0195687D01*
X0227401Y0195772D01*
X0227273Y0195860D01*
X0227149Y0195951D01*
X0227026Y0196045D01*
X0226906Y0196143D01*
X0226789Y0196243D01*
X0226674Y0196347D01*
X0226562Y0196453D01*
X0226453Y0196562D01*
X0226347Y0196674D01*
X0226243Y0196789D01*
X0226143Y0196906D01*
X0226045Y0197026D01*
X0225951Y0197149D01*
X0225860Y0197273D01*
X0225772Y0197401D01*
X0225687Y0197530D01*
X0225606Y0197661D01*
X0225528Y0197795D01*
X0225454Y0197930D01*
X0225383Y0198067D01*
X0225316Y0198207D01*
X0225252Y0198347D01*
X0225192Y0198490D01*
X0225136Y0198633D01*
X0225083Y0198779D01*
X0225034Y0198925D01*
X0224989Y0199073D01*
X0224948Y0199222D01*
X0224910Y0199372D01*
X0224877Y0199523D01*
X0224847Y0199674D01*
X0224821Y0199827D01*
X0224800Y0199980D01*
X0224782Y0200133D01*
X0224768Y0200287D01*
X0224758Y0200441D01*
X0224752Y0200596D01*
X0224750Y0200750D01*
X0394750Y0200750D02*
X0394752Y0200904D01*
X0394758Y0201059D01*
X0394768Y0201213D01*
X0394782Y0201367D01*
X0394800Y0201520D01*
X0394821Y0201673D01*
X0394847Y0201826D01*
X0394877Y0201977D01*
X0394910Y0202128D01*
X0394948Y0202278D01*
X0394989Y0202427D01*
X0395034Y0202575D01*
X0395083Y0202721D01*
X0395136Y0202867D01*
X0395192Y0203010D01*
X0395252Y0203153D01*
X0395316Y0203293D01*
X0395383Y0203433D01*
X0395454Y0203570D01*
X0395528Y0203705D01*
X0395606Y0203839D01*
X0395687Y0203970D01*
X0395772Y0204099D01*
X0395860Y0204227D01*
X0395951Y0204351D01*
X0396045Y0204474D01*
X0396143Y0204594D01*
X0396243Y0204711D01*
X0396347Y0204826D01*
X0396453Y0204938D01*
X0396562Y0205047D01*
X0396674Y0205153D01*
X0396789Y0205257D01*
X0396906Y0205357D01*
X0397026Y0205455D01*
X0397149Y0205549D01*
X0397273Y0205640D01*
X0397401Y0205728D01*
X0397530Y0205813D01*
X0397661Y0205894D01*
X0397795Y0205972D01*
X0397930Y0206046D01*
X0398067Y0206117D01*
X0398207Y0206184D01*
X0398347Y0206248D01*
X0398490Y0206308D01*
X0398633Y0206364D01*
X0398779Y0206417D01*
X0398925Y0206466D01*
X0399073Y0206511D01*
X0399222Y0206552D01*
X0399372Y0206590D01*
X0399523Y0206623D01*
X0399674Y0206653D01*
X0399827Y0206679D01*
X0399980Y0206700D01*
X0400133Y0206718D01*
X0400287Y0206732D01*
X0400441Y0206742D01*
X0400596Y0206748D01*
X0400750Y0206750D01*
X0400904Y0206748D01*
X0401059Y0206742D01*
X0401213Y0206732D01*
X0401367Y0206718D01*
X0401520Y0206700D01*
X0401673Y0206679D01*
X0401826Y0206653D01*
X0401977Y0206623D01*
X0402128Y0206590D01*
X0402278Y0206552D01*
X0402427Y0206511D01*
X0402575Y0206466D01*
X0402721Y0206417D01*
X0402867Y0206364D01*
X0403010Y0206308D01*
X0403153Y0206248D01*
X0403293Y0206184D01*
X0403433Y0206117D01*
X0403570Y0206046D01*
X0403705Y0205972D01*
X0403839Y0205894D01*
X0403970Y0205813D01*
X0404099Y0205728D01*
X0404227Y0205640D01*
X0404351Y0205549D01*
X0404474Y0205455D01*
X0404594Y0205357D01*
X0404711Y0205257D01*
X0404826Y0205153D01*
X0404938Y0205047D01*
X0405047Y0204938D01*
X0405153Y0204826D01*
X0405257Y0204711D01*
X0405357Y0204594D01*
X0405455Y0204474D01*
X0405549Y0204351D01*
X0405640Y0204227D01*
X0405728Y0204099D01*
X0405813Y0203970D01*
X0405894Y0203839D01*
X0405972Y0203705D01*
X0406046Y0203570D01*
X0406117Y0203433D01*
X0406184Y0203293D01*
X0406248Y0203153D01*
X0406308Y0203010D01*
X0406364Y0202867D01*
X0406417Y0202721D01*
X0406466Y0202575D01*
X0406511Y0202427D01*
X0406552Y0202278D01*
X0406590Y0202128D01*
X0406623Y0201977D01*
X0406653Y0201826D01*
X0406679Y0201673D01*
X0406700Y0201520D01*
X0406718Y0201367D01*
X0406732Y0201213D01*
X0406742Y0201059D01*
X0406748Y0200904D01*
X0406750Y0200750D01*
X0406748Y0200596D01*
X0406742Y0200441D01*
X0406732Y0200287D01*
X0406718Y0200133D01*
X0406700Y0199980D01*
X0406679Y0199827D01*
X0406653Y0199674D01*
X0406623Y0199523D01*
X0406590Y0199372D01*
X0406552Y0199222D01*
X0406511Y0199073D01*
X0406466Y0198925D01*
X0406417Y0198779D01*
X0406364Y0198633D01*
X0406308Y0198490D01*
X0406248Y0198347D01*
X0406184Y0198207D01*
X0406117Y0198067D01*
X0406046Y0197930D01*
X0405972Y0197795D01*
X0405894Y0197661D01*
X0405813Y0197530D01*
X0405728Y0197401D01*
X0405640Y0197273D01*
X0405549Y0197149D01*
X0405455Y0197026D01*
X0405357Y0196906D01*
X0405257Y0196789D01*
X0405153Y0196674D01*
X0405047Y0196562D01*
X0404938Y0196453D01*
X0404826Y0196347D01*
X0404711Y0196243D01*
X0404594Y0196143D01*
X0404474Y0196045D01*
X0404351Y0195951D01*
X0404227Y0195860D01*
X0404099Y0195772D01*
X0403970Y0195687D01*
X0403839Y0195606D01*
X0403705Y0195528D01*
X0403570Y0195454D01*
X0403433Y0195383D01*
X0403293Y0195316D01*
X0403153Y0195252D01*
X0403010Y0195192D01*
X0402867Y0195136D01*
X0402721Y0195083D01*
X0402575Y0195034D01*
X0402427Y0194989D01*
X0402278Y0194948D01*
X0402128Y0194910D01*
X0401977Y0194877D01*
X0401826Y0194847D01*
X0401673Y0194821D01*
X0401520Y0194800D01*
X0401367Y0194782D01*
X0401213Y0194768D01*
X0401059Y0194758D01*
X0400904Y0194752D01*
X0400750Y0194750D01*
X0400596Y0194752D01*
X0400441Y0194758D01*
X0400287Y0194768D01*
X0400133Y0194782D01*
X0399980Y0194800D01*
X0399827Y0194821D01*
X0399674Y0194847D01*
X0399523Y0194877D01*
X0399372Y0194910D01*
X0399222Y0194948D01*
X0399073Y0194989D01*
X0398925Y0195034D01*
X0398779Y0195083D01*
X0398633Y0195136D01*
X0398490Y0195192D01*
X0398347Y0195252D01*
X0398207Y0195316D01*
X0398067Y0195383D01*
X0397930Y0195454D01*
X0397795Y0195528D01*
X0397661Y0195606D01*
X0397530Y0195687D01*
X0397401Y0195772D01*
X0397273Y0195860D01*
X0397149Y0195951D01*
X0397026Y0196045D01*
X0396906Y0196143D01*
X0396789Y0196243D01*
X0396674Y0196347D01*
X0396562Y0196453D01*
X0396453Y0196562D01*
X0396347Y0196674D01*
X0396243Y0196789D01*
X0396143Y0196906D01*
X0396045Y0197026D01*
X0395951Y0197149D01*
X0395860Y0197273D01*
X0395772Y0197401D01*
X0395687Y0197530D01*
X0395606Y0197661D01*
X0395528Y0197795D01*
X0395454Y0197930D01*
X0395383Y0198067D01*
X0395316Y0198207D01*
X0395252Y0198347D01*
X0395192Y0198490D01*
X0395136Y0198633D01*
X0395083Y0198779D01*
X0395034Y0198925D01*
X0394989Y0199073D01*
X0394948Y0199222D01*
X0394910Y0199372D01*
X0394877Y0199523D01*
X0394847Y0199674D01*
X0394821Y0199827D01*
X0394800Y0199980D01*
X0394782Y0200133D01*
X0394768Y0200287D01*
X0394758Y0200441D01*
X0394752Y0200596D01*
X0394750Y0200750D01*
X0416750Y0200750D02*
X0416752Y0200904D01*
X0416758Y0201059D01*
X0416768Y0201213D01*
X0416782Y0201367D01*
X0416800Y0201520D01*
X0416821Y0201673D01*
X0416847Y0201826D01*
X0416877Y0201977D01*
X0416910Y0202128D01*
X0416948Y0202278D01*
X0416989Y0202427D01*
X0417034Y0202575D01*
X0417083Y0202721D01*
X0417136Y0202867D01*
X0417192Y0203010D01*
X0417252Y0203153D01*
X0417316Y0203293D01*
X0417383Y0203433D01*
X0417454Y0203570D01*
X0417528Y0203705D01*
X0417606Y0203839D01*
X0417687Y0203970D01*
X0417772Y0204099D01*
X0417860Y0204227D01*
X0417951Y0204351D01*
X0418045Y0204474D01*
X0418143Y0204594D01*
X0418243Y0204711D01*
X0418347Y0204826D01*
X0418453Y0204938D01*
X0418562Y0205047D01*
X0418674Y0205153D01*
X0418789Y0205257D01*
X0418906Y0205357D01*
X0419026Y0205455D01*
X0419149Y0205549D01*
X0419273Y0205640D01*
X0419401Y0205728D01*
X0419530Y0205813D01*
X0419661Y0205894D01*
X0419795Y0205972D01*
X0419930Y0206046D01*
X0420067Y0206117D01*
X0420207Y0206184D01*
X0420347Y0206248D01*
X0420490Y0206308D01*
X0420633Y0206364D01*
X0420779Y0206417D01*
X0420925Y0206466D01*
X0421073Y0206511D01*
X0421222Y0206552D01*
X0421372Y0206590D01*
X0421523Y0206623D01*
X0421674Y0206653D01*
X0421827Y0206679D01*
X0421980Y0206700D01*
X0422133Y0206718D01*
X0422287Y0206732D01*
X0422441Y0206742D01*
X0422596Y0206748D01*
X0422750Y0206750D01*
X0422904Y0206748D01*
X0423059Y0206742D01*
X0423213Y0206732D01*
X0423367Y0206718D01*
X0423520Y0206700D01*
X0423673Y0206679D01*
X0423826Y0206653D01*
X0423977Y0206623D01*
X0424128Y0206590D01*
X0424278Y0206552D01*
X0424427Y0206511D01*
X0424575Y0206466D01*
X0424721Y0206417D01*
X0424867Y0206364D01*
X0425010Y0206308D01*
X0425153Y0206248D01*
X0425293Y0206184D01*
X0425433Y0206117D01*
X0425570Y0206046D01*
X0425705Y0205972D01*
X0425839Y0205894D01*
X0425970Y0205813D01*
X0426099Y0205728D01*
X0426227Y0205640D01*
X0426351Y0205549D01*
X0426474Y0205455D01*
X0426594Y0205357D01*
X0426711Y0205257D01*
X0426826Y0205153D01*
X0426938Y0205047D01*
X0427047Y0204938D01*
X0427153Y0204826D01*
X0427257Y0204711D01*
X0427357Y0204594D01*
X0427455Y0204474D01*
X0427549Y0204351D01*
X0427640Y0204227D01*
X0427728Y0204099D01*
X0427813Y0203970D01*
X0427894Y0203839D01*
X0427972Y0203705D01*
X0428046Y0203570D01*
X0428117Y0203433D01*
X0428184Y0203293D01*
X0428248Y0203153D01*
X0428308Y0203010D01*
X0428364Y0202867D01*
X0428417Y0202721D01*
X0428466Y0202575D01*
X0428511Y0202427D01*
X0428552Y0202278D01*
X0428590Y0202128D01*
X0428623Y0201977D01*
X0428653Y0201826D01*
X0428679Y0201673D01*
X0428700Y0201520D01*
X0428718Y0201367D01*
X0428732Y0201213D01*
X0428742Y0201059D01*
X0428748Y0200904D01*
X0428750Y0200750D01*
X0428748Y0200596D01*
X0428742Y0200441D01*
X0428732Y0200287D01*
X0428718Y0200133D01*
X0428700Y0199980D01*
X0428679Y0199827D01*
X0428653Y0199674D01*
X0428623Y0199523D01*
X0428590Y0199372D01*
X0428552Y0199222D01*
X0428511Y0199073D01*
X0428466Y0198925D01*
X0428417Y0198779D01*
X0428364Y0198633D01*
X0428308Y0198490D01*
X0428248Y0198347D01*
X0428184Y0198207D01*
X0428117Y0198067D01*
X0428046Y0197930D01*
X0427972Y0197795D01*
X0427894Y0197661D01*
X0427813Y0197530D01*
X0427728Y0197401D01*
X0427640Y0197273D01*
X0427549Y0197149D01*
X0427455Y0197026D01*
X0427357Y0196906D01*
X0427257Y0196789D01*
X0427153Y0196674D01*
X0427047Y0196562D01*
X0426938Y0196453D01*
X0426826Y0196347D01*
X0426711Y0196243D01*
X0426594Y0196143D01*
X0426474Y0196045D01*
X0426351Y0195951D01*
X0426227Y0195860D01*
X0426099Y0195772D01*
X0425970Y0195687D01*
X0425839Y0195606D01*
X0425705Y0195528D01*
X0425570Y0195454D01*
X0425433Y0195383D01*
X0425293Y0195316D01*
X0425153Y0195252D01*
X0425010Y0195192D01*
X0424867Y0195136D01*
X0424721Y0195083D01*
X0424575Y0195034D01*
X0424427Y0194989D01*
X0424278Y0194948D01*
X0424128Y0194910D01*
X0423977Y0194877D01*
X0423826Y0194847D01*
X0423673Y0194821D01*
X0423520Y0194800D01*
X0423367Y0194782D01*
X0423213Y0194768D01*
X0423059Y0194758D01*
X0422904Y0194752D01*
X0422750Y0194750D01*
X0422596Y0194752D01*
X0422441Y0194758D01*
X0422287Y0194768D01*
X0422133Y0194782D01*
X0421980Y0194800D01*
X0421827Y0194821D01*
X0421674Y0194847D01*
X0421523Y0194877D01*
X0421372Y0194910D01*
X0421222Y0194948D01*
X0421073Y0194989D01*
X0420925Y0195034D01*
X0420779Y0195083D01*
X0420633Y0195136D01*
X0420490Y0195192D01*
X0420347Y0195252D01*
X0420207Y0195316D01*
X0420067Y0195383D01*
X0419930Y0195454D01*
X0419795Y0195528D01*
X0419661Y0195606D01*
X0419530Y0195687D01*
X0419401Y0195772D01*
X0419273Y0195860D01*
X0419149Y0195951D01*
X0419026Y0196045D01*
X0418906Y0196143D01*
X0418789Y0196243D01*
X0418674Y0196347D01*
X0418562Y0196453D01*
X0418453Y0196562D01*
X0418347Y0196674D01*
X0418243Y0196789D01*
X0418143Y0196906D01*
X0418045Y0197026D01*
X0417951Y0197149D01*
X0417860Y0197273D01*
X0417772Y0197401D01*
X0417687Y0197530D01*
X0417606Y0197661D01*
X0417528Y0197795D01*
X0417454Y0197930D01*
X0417383Y0198067D01*
X0417316Y0198207D01*
X0417252Y0198347D01*
X0417192Y0198490D01*
X0417136Y0198633D01*
X0417083Y0198779D01*
X0417034Y0198925D01*
X0416989Y0199073D01*
X0416948Y0199222D01*
X0416910Y0199372D01*
X0416877Y0199523D01*
X0416847Y0199674D01*
X0416821Y0199827D01*
X0416800Y0199980D01*
X0416782Y0200133D01*
X0416768Y0200287D01*
X0416758Y0200441D01*
X0416752Y0200596D01*
X0416750Y0200750D01*
X0586750Y0200750D02*
X0586752Y0200904D01*
X0586758Y0201059D01*
X0586768Y0201213D01*
X0586782Y0201367D01*
X0586800Y0201520D01*
X0586821Y0201673D01*
X0586847Y0201826D01*
X0586877Y0201977D01*
X0586910Y0202128D01*
X0586948Y0202278D01*
X0586989Y0202427D01*
X0587034Y0202575D01*
X0587083Y0202721D01*
X0587136Y0202867D01*
X0587192Y0203010D01*
X0587252Y0203153D01*
X0587316Y0203293D01*
X0587383Y0203433D01*
X0587454Y0203570D01*
X0587528Y0203705D01*
X0587606Y0203839D01*
X0587687Y0203970D01*
X0587772Y0204099D01*
X0587860Y0204227D01*
X0587951Y0204351D01*
X0588045Y0204474D01*
X0588143Y0204594D01*
X0588243Y0204711D01*
X0588347Y0204826D01*
X0588453Y0204938D01*
X0588562Y0205047D01*
X0588674Y0205153D01*
X0588789Y0205257D01*
X0588906Y0205357D01*
X0589026Y0205455D01*
X0589149Y0205549D01*
X0589273Y0205640D01*
X0589401Y0205728D01*
X0589530Y0205813D01*
X0589661Y0205894D01*
X0589795Y0205972D01*
X0589930Y0206046D01*
X0590067Y0206117D01*
X0590207Y0206184D01*
X0590347Y0206248D01*
X0590490Y0206308D01*
X0590633Y0206364D01*
X0590779Y0206417D01*
X0590925Y0206466D01*
X0591073Y0206511D01*
X0591222Y0206552D01*
X0591372Y0206590D01*
X0591523Y0206623D01*
X0591674Y0206653D01*
X0591827Y0206679D01*
X0591980Y0206700D01*
X0592133Y0206718D01*
X0592287Y0206732D01*
X0592441Y0206742D01*
X0592596Y0206748D01*
X0592750Y0206750D01*
X0592904Y0206748D01*
X0593059Y0206742D01*
X0593213Y0206732D01*
X0593367Y0206718D01*
X0593520Y0206700D01*
X0593673Y0206679D01*
X0593826Y0206653D01*
X0593977Y0206623D01*
X0594128Y0206590D01*
X0594278Y0206552D01*
X0594427Y0206511D01*
X0594575Y0206466D01*
X0594721Y0206417D01*
X0594867Y0206364D01*
X0595010Y0206308D01*
X0595153Y0206248D01*
X0595293Y0206184D01*
X0595433Y0206117D01*
X0595570Y0206046D01*
X0595705Y0205972D01*
X0595839Y0205894D01*
X0595970Y0205813D01*
X0596099Y0205728D01*
X0596227Y0205640D01*
X0596351Y0205549D01*
X0596474Y0205455D01*
X0596594Y0205357D01*
X0596711Y0205257D01*
X0596826Y0205153D01*
X0596938Y0205047D01*
X0597047Y0204938D01*
X0597153Y0204826D01*
X0597257Y0204711D01*
X0597357Y0204594D01*
X0597455Y0204474D01*
X0597549Y0204351D01*
X0597640Y0204227D01*
X0597728Y0204099D01*
X0597813Y0203970D01*
X0597894Y0203839D01*
X0597972Y0203705D01*
X0598046Y0203570D01*
X0598117Y0203433D01*
X0598184Y0203293D01*
X0598248Y0203153D01*
X0598308Y0203010D01*
X0598364Y0202867D01*
X0598417Y0202721D01*
X0598466Y0202575D01*
X0598511Y0202427D01*
X0598552Y0202278D01*
X0598590Y0202128D01*
X0598623Y0201977D01*
X0598653Y0201826D01*
X0598679Y0201673D01*
X0598700Y0201520D01*
X0598718Y0201367D01*
X0598732Y0201213D01*
X0598742Y0201059D01*
X0598748Y0200904D01*
X0598750Y0200750D01*
X0598748Y0200596D01*
X0598742Y0200441D01*
X0598732Y0200287D01*
X0598718Y0200133D01*
X0598700Y0199980D01*
X0598679Y0199827D01*
X0598653Y0199674D01*
X0598623Y0199523D01*
X0598590Y0199372D01*
X0598552Y0199222D01*
X0598511Y0199073D01*
X0598466Y0198925D01*
X0598417Y0198779D01*
X0598364Y0198633D01*
X0598308Y0198490D01*
X0598248Y0198347D01*
X0598184Y0198207D01*
X0598117Y0198067D01*
X0598046Y0197930D01*
X0597972Y0197795D01*
X0597894Y0197661D01*
X0597813Y0197530D01*
X0597728Y0197401D01*
X0597640Y0197273D01*
X0597549Y0197149D01*
X0597455Y0197026D01*
X0597357Y0196906D01*
X0597257Y0196789D01*
X0597153Y0196674D01*
X0597047Y0196562D01*
X0596938Y0196453D01*
X0596826Y0196347D01*
X0596711Y0196243D01*
X0596594Y0196143D01*
X0596474Y0196045D01*
X0596351Y0195951D01*
X0596227Y0195860D01*
X0596099Y0195772D01*
X0595970Y0195687D01*
X0595839Y0195606D01*
X0595705Y0195528D01*
X0595570Y0195454D01*
X0595433Y0195383D01*
X0595293Y0195316D01*
X0595153Y0195252D01*
X0595010Y0195192D01*
X0594867Y0195136D01*
X0594721Y0195083D01*
X0594575Y0195034D01*
X0594427Y0194989D01*
X0594278Y0194948D01*
X0594128Y0194910D01*
X0593977Y0194877D01*
X0593826Y0194847D01*
X0593673Y0194821D01*
X0593520Y0194800D01*
X0593367Y0194782D01*
X0593213Y0194768D01*
X0593059Y0194758D01*
X0592904Y0194752D01*
X0592750Y0194750D01*
X0592596Y0194752D01*
X0592441Y0194758D01*
X0592287Y0194768D01*
X0592133Y0194782D01*
X0591980Y0194800D01*
X0591827Y0194821D01*
X0591674Y0194847D01*
X0591523Y0194877D01*
X0591372Y0194910D01*
X0591222Y0194948D01*
X0591073Y0194989D01*
X0590925Y0195034D01*
X0590779Y0195083D01*
X0590633Y0195136D01*
X0590490Y0195192D01*
X0590347Y0195252D01*
X0590207Y0195316D01*
X0590067Y0195383D01*
X0589930Y0195454D01*
X0589795Y0195528D01*
X0589661Y0195606D01*
X0589530Y0195687D01*
X0589401Y0195772D01*
X0589273Y0195860D01*
X0589149Y0195951D01*
X0589026Y0196045D01*
X0588906Y0196143D01*
X0588789Y0196243D01*
X0588674Y0196347D01*
X0588562Y0196453D01*
X0588453Y0196562D01*
X0588347Y0196674D01*
X0588243Y0196789D01*
X0588143Y0196906D01*
X0588045Y0197026D01*
X0587951Y0197149D01*
X0587860Y0197273D01*
X0587772Y0197401D01*
X0587687Y0197530D01*
X0587606Y0197661D01*
X0587528Y0197795D01*
X0587454Y0197930D01*
X0587383Y0198067D01*
X0587316Y0198207D01*
X0587252Y0198347D01*
X0587192Y0198490D01*
X0587136Y0198633D01*
X0587083Y0198779D01*
X0587034Y0198925D01*
X0586989Y0199073D01*
X0586948Y0199222D01*
X0586910Y0199372D01*
X0586877Y0199523D01*
X0586847Y0199674D01*
X0586821Y0199827D01*
X0586800Y0199980D01*
X0586782Y0200133D01*
X0586768Y0200287D01*
X0586758Y0200441D01*
X0586752Y0200596D01*
X0586750Y0200750D01*
X0586750Y0038750D02*
X0586752Y0038904D01*
X0586758Y0039059D01*
X0586768Y0039213D01*
X0586782Y0039367D01*
X0586800Y0039520D01*
X0586821Y0039673D01*
X0586847Y0039826D01*
X0586877Y0039977D01*
X0586910Y0040128D01*
X0586948Y0040278D01*
X0586989Y0040427D01*
X0587034Y0040575D01*
X0587083Y0040721D01*
X0587136Y0040867D01*
X0587192Y0041010D01*
X0587252Y0041153D01*
X0587316Y0041293D01*
X0587383Y0041433D01*
X0587454Y0041570D01*
X0587528Y0041705D01*
X0587606Y0041839D01*
X0587687Y0041970D01*
X0587772Y0042099D01*
X0587860Y0042227D01*
X0587951Y0042351D01*
X0588045Y0042474D01*
X0588143Y0042594D01*
X0588243Y0042711D01*
X0588347Y0042826D01*
X0588453Y0042938D01*
X0588562Y0043047D01*
X0588674Y0043153D01*
X0588789Y0043257D01*
X0588906Y0043357D01*
X0589026Y0043455D01*
X0589149Y0043549D01*
X0589273Y0043640D01*
X0589401Y0043728D01*
X0589530Y0043813D01*
X0589661Y0043894D01*
X0589795Y0043972D01*
X0589930Y0044046D01*
X0590067Y0044117D01*
X0590207Y0044184D01*
X0590347Y0044248D01*
X0590490Y0044308D01*
X0590633Y0044364D01*
X0590779Y0044417D01*
X0590925Y0044466D01*
X0591073Y0044511D01*
X0591222Y0044552D01*
X0591372Y0044590D01*
X0591523Y0044623D01*
X0591674Y0044653D01*
X0591827Y0044679D01*
X0591980Y0044700D01*
X0592133Y0044718D01*
X0592287Y0044732D01*
X0592441Y0044742D01*
X0592596Y0044748D01*
X0592750Y0044750D01*
X0592904Y0044748D01*
X0593059Y0044742D01*
X0593213Y0044732D01*
X0593367Y0044718D01*
X0593520Y0044700D01*
X0593673Y0044679D01*
X0593826Y0044653D01*
X0593977Y0044623D01*
X0594128Y0044590D01*
X0594278Y0044552D01*
X0594427Y0044511D01*
X0594575Y0044466D01*
X0594721Y0044417D01*
X0594867Y0044364D01*
X0595010Y0044308D01*
X0595153Y0044248D01*
X0595293Y0044184D01*
X0595433Y0044117D01*
X0595570Y0044046D01*
X0595705Y0043972D01*
X0595839Y0043894D01*
X0595970Y0043813D01*
X0596099Y0043728D01*
X0596227Y0043640D01*
X0596351Y0043549D01*
X0596474Y0043455D01*
X0596594Y0043357D01*
X0596711Y0043257D01*
X0596826Y0043153D01*
X0596938Y0043047D01*
X0597047Y0042938D01*
X0597153Y0042826D01*
X0597257Y0042711D01*
X0597357Y0042594D01*
X0597455Y0042474D01*
X0597549Y0042351D01*
X0597640Y0042227D01*
X0597728Y0042099D01*
X0597813Y0041970D01*
X0597894Y0041839D01*
X0597972Y0041705D01*
X0598046Y0041570D01*
X0598117Y0041433D01*
X0598184Y0041293D01*
X0598248Y0041153D01*
X0598308Y0041010D01*
X0598364Y0040867D01*
X0598417Y0040721D01*
X0598466Y0040575D01*
X0598511Y0040427D01*
X0598552Y0040278D01*
X0598590Y0040128D01*
X0598623Y0039977D01*
X0598653Y0039826D01*
X0598679Y0039673D01*
X0598700Y0039520D01*
X0598718Y0039367D01*
X0598732Y0039213D01*
X0598742Y0039059D01*
X0598748Y0038904D01*
X0598750Y0038750D01*
X0598748Y0038596D01*
X0598742Y0038441D01*
X0598732Y0038287D01*
X0598718Y0038133D01*
X0598700Y0037980D01*
X0598679Y0037827D01*
X0598653Y0037674D01*
X0598623Y0037523D01*
X0598590Y0037372D01*
X0598552Y0037222D01*
X0598511Y0037073D01*
X0598466Y0036925D01*
X0598417Y0036779D01*
X0598364Y0036633D01*
X0598308Y0036490D01*
X0598248Y0036347D01*
X0598184Y0036207D01*
X0598117Y0036067D01*
X0598046Y0035930D01*
X0597972Y0035795D01*
X0597894Y0035661D01*
X0597813Y0035530D01*
X0597728Y0035401D01*
X0597640Y0035273D01*
X0597549Y0035149D01*
X0597455Y0035026D01*
X0597357Y0034906D01*
X0597257Y0034789D01*
X0597153Y0034674D01*
X0597047Y0034562D01*
X0596938Y0034453D01*
X0596826Y0034347D01*
X0596711Y0034243D01*
X0596594Y0034143D01*
X0596474Y0034045D01*
X0596351Y0033951D01*
X0596227Y0033860D01*
X0596099Y0033772D01*
X0595970Y0033687D01*
X0595839Y0033606D01*
X0595705Y0033528D01*
X0595570Y0033454D01*
X0595433Y0033383D01*
X0595293Y0033316D01*
X0595153Y0033252D01*
X0595010Y0033192D01*
X0594867Y0033136D01*
X0594721Y0033083D01*
X0594575Y0033034D01*
X0594427Y0032989D01*
X0594278Y0032948D01*
X0594128Y0032910D01*
X0593977Y0032877D01*
X0593826Y0032847D01*
X0593673Y0032821D01*
X0593520Y0032800D01*
X0593367Y0032782D01*
X0593213Y0032768D01*
X0593059Y0032758D01*
X0592904Y0032752D01*
X0592750Y0032750D01*
X0592596Y0032752D01*
X0592441Y0032758D01*
X0592287Y0032768D01*
X0592133Y0032782D01*
X0591980Y0032800D01*
X0591827Y0032821D01*
X0591674Y0032847D01*
X0591523Y0032877D01*
X0591372Y0032910D01*
X0591222Y0032948D01*
X0591073Y0032989D01*
X0590925Y0033034D01*
X0590779Y0033083D01*
X0590633Y0033136D01*
X0590490Y0033192D01*
X0590347Y0033252D01*
X0590207Y0033316D01*
X0590067Y0033383D01*
X0589930Y0033454D01*
X0589795Y0033528D01*
X0589661Y0033606D01*
X0589530Y0033687D01*
X0589401Y0033772D01*
X0589273Y0033860D01*
X0589149Y0033951D01*
X0589026Y0034045D01*
X0588906Y0034143D01*
X0588789Y0034243D01*
X0588674Y0034347D01*
X0588562Y0034453D01*
X0588453Y0034562D01*
X0588347Y0034674D01*
X0588243Y0034789D01*
X0588143Y0034906D01*
X0588045Y0035026D01*
X0587951Y0035149D01*
X0587860Y0035273D01*
X0587772Y0035401D01*
X0587687Y0035530D01*
X0587606Y0035661D01*
X0587528Y0035795D01*
X0587454Y0035930D01*
X0587383Y0036067D01*
X0587316Y0036207D01*
X0587252Y0036347D01*
X0587192Y0036490D01*
X0587136Y0036633D01*
X0587083Y0036779D01*
X0587034Y0036925D01*
X0586989Y0037073D01*
X0586948Y0037222D01*
X0586910Y0037372D01*
X0586877Y0037523D01*
X0586847Y0037674D01*
X0586821Y0037827D01*
X0586800Y0037980D01*
X0586782Y0038133D01*
X0586768Y0038287D01*
X0586758Y0038441D01*
X0586752Y0038596D01*
X0586750Y0038750D01*
X0416750Y0038750D02*
X0416752Y0038904D01*
X0416758Y0039059D01*
X0416768Y0039213D01*
X0416782Y0039367D01*
X0416800Y0039520D01*
X0416821Y0039673D01*
X0416847Y0039826D01*
X0416877Y0039977D01*
X0416910Y0040128D01*
X0416948Y0040278D01*
X0416989Y0040427D01*
X0417034Y0040575D01*
X0417083Y0040721D01*
X0417136Y0040867D01*
X0417192Y0041010D01*
X0417252Y0041153D01*
X0417316Y0041293D01*
X0417383Y0041433D01*
X0417454Y0041570D01*
X0417528Y0041705D01*
X0417606Y0041839D01*
X0417687Y0041970D01*
X0417772Y0042099D01*
X0417860Y0042227D01*
X0417951Y0042351D01*
X0418045Y0042474D01*
X0418143Y0042594D01*
X0418243Y0042711D01*
X0418347Y0042826D01*
X0418453Y0042938D01*
X0418562Y0043047D01*
X0418674Y0043153D01*
X0418789Y0043257D01*
X0418906Y0043357D01*
X0419026Y0043455D01*
X0419149Y0043549D01*
X0419273Y0043640D01*
X0419401Y0043728D01*
X0419530Y0043813D01*
X0419661Y0043894D01*
X0419795Y0043972D01*
X0419930Y0044046D01*
X0420067Y0044117D01*
X0420207Y0044184D01*
X0420347Y0044248D01*
X0420490Y0044308D01*
X0420633Y0044364D01*
X0420779Y0044417D01*
X0420925Y0044466D01*
X0421073Y0044511D01*
X0421222Y0044552D01*
X0421372Y0044590D01*
X0421523Y0044623D01*
X0421674Y0044653D01*
X0421827Y0044679D01*
X0421980Y0044700D01*
X0422133Y0044718D01*
X0422287Y0044732D01*
X0422441Y0044742D01*
X0422596Y0044748D01*
X0422750Y0044750D01*
X0422904Y0044748D01*
X0423059Y0044742D01*
X0423213Y0044732D01*
X0423367Y0044718D01*
X0423520Y0044700D01*
X0423673Y0044679D01*
X0423826Y0044653D01*
X0423977Y0044623D01*
X0424128Y0044590D01*
X0424278Y0044552D01*
X0424427Y0044511D01*
X0424575Y0044466D01*
X0424721Y0044417D01*
X0424867Y0044364D01*
X0425010Y0044308D01*
X0425153Y0044248D01*
X0425293Y0044184D01*
X0425433Y0044117D01*
X0425570Y0044046D01*
X0425705Y0043972D01*
X0425839Y0043894D01*
X0425970Y0043813D01*
X0426099Y0043728D01*
X0426227Y0043640D01*
X0426351Y0043549D01*
X0426474Y0043455D01*
X0426594Y0043357D01*
X0426711Y0043257D01*
X0426826Y0043153D01*
X0426938Y0043047D01*
X0427047Y0042938D01*
X0427153Y0042826D01*
X0427257Y0042711D01*
X0427357Y0042594D01*
X0427455Y0042474D01*
X0427549Y0042351D01*
X0427640Y0042227D01*
X0427728Y0042099D01*
X0427813Y0041970D01*
X0427894Y0041839D01*
X0427972Y0041705D01*
X0428046Y0041570D01*
X0428117Y0041433D01*
X0428184Y0041293D01*
X0428248Y0041153D01*
X0428308Y0041010D01*
X0428364Y0040867D01*
X0428417Y0040721D01*
X0428466Y0040575D01*
X0428511Y0040427D01*
X0428552Y0040278D01*
X0428590Y0040128D01*
X0428623Y0039977D01*
X0428653Y0039826D01*
X0428679Y0039673D01*
X0428700Y0039520D01*
X0428718Y0039367D01*
X0428732Y0039213D01*
X0428742Y0039059D01*
X0428748Y0038904D01*
X0428750Y0038750D01*
X0428748Y0038596D01*
X0428742Y0038441D01*
X0428732Y0038287D01*
X0428718Y0038133D01*
X0428700Y0037980D01*
X0428679Y0037827D01*
X0428653Y0037674D01*
X0428623Y0037523D01*
X0428590Y0037372D01*
X0428552Y0037222D01*
X0428511Y0037073D01*
X0428466Y0036925D01*
X0428417Y0036779D01*
X0428364Y0036633D01*
X0428308Y0036490D01*
X0428248Y0036347D01*
X0428184Y0036207D01*
X0428117Y0036067D01*
X0428046Y0035930D01*
X0427972Y0035795D01*
X0427894Y0035661D01*
X0427813Y0035530D01*
X0427728Y0035401D01*
X0427640Y0035273D01*
X0427549Y0035149D01*
X0427455Y0035026D01*
X0427357Y0034906D01*
X0427257Y0034789D01*
X0427153Y0034674D01*
X0427047Y0034562D01*
X0426938Y0034453D01*
X0426826Y0034347D01*
X0426711Y0034243D01*
X0426594Y0034143D01*
X0426474Y0034045D01*
X0426351Y0033951D01*
X0426227Y0033860D01*
X0426099Y0033772D01*
X0425970Y0033687D01*
X0425839Y0033606D01*
X0425705Y0033528D01*
X0425570Y0033454D01*
X0425433Y0033383D01*
X0425293Y0033316D01*
X0425153Y0033252D01*
X0425010Y0033192D01*
X0424867Y0033136D01*
X0424721Y0033083D01*
X0424575Y0033034D01*
X0424427Y0032989D01*
X0424278Y0032948D01*
X0424128Y0032910D01*
X0423977Y0032877D01*
X0423826Y0032847D01*
X0423673Y0032821D01*
X0423520Y0032800D01*
X0423367Y0032782D01*
X0423213Y0032768D01*
X0423059Y0032758D01*
X0422904Y0032752D01*
X0422750Y0032750D01*
X0422596Y0032752D01*
X0422441Y0032758D01*
X0422287Y0032768D01*
X0422133Y0032782D01*
X0421980Y0032800D01*
X0421827Y0032821D01*
X0421674Y0032847D01*
X0421523Y0032877D01*
X0421372Y0032910D01*
X0421222Y0032948D01*
X0421073Y0032989D01*
X0420925Y0033034D01*
X0420779Y0033083D01*
X0420633Y0033136D01*
X0420490Y0033192D01*
X0420347Y0033252D01*
X0420207Y0033316D01*
X0420067Y0033383D01*
X0419930Y0033454D01*
X0419795Y0033528D01*
X0419661Y0033606D01*
X0419530Y0033687D01*
X0419401Y0033772D01*
X0419273Y0033860D01*
X0419149Y0033951D01*
X0419026Y0034045D01*
X0418906Y0034143D01*
X0418789Y0034243D01*
X0418674Y0034347D01*
X0418562Y0034453D01*
X0418453Y0034562D01*
X0418347Y0034674D01*
X0418243Y0034789D01*
X0418143Y0034906D01*
X0418045Y0035026D01*
X0417951Y0035149D01*
X0417860Y0035273D01*
X0417772Y0035401D01*
X0417687Y0035530D01*
X0417606Y0035661D01*
X0417528Y0035795D01*
X0417454Y0035930D01*
X0417383Y0036067D01*
X0417316Y0036207D01*
X0417252Y0036347D01*
X0417192Y0036490D01*
X0417136Y0036633D01*
X0417083Y0036779D01*
X0417034Y0036925D01*
X0416989Y0037073D01*
X0416948Y0037222D01*
X0416910Y0037372D01*
X0416877Y0037523D01*
X0416847Y0037674D01*
X0416821Y0037827D01*
X0416800Y0037980D01*
X0416782Y0038133D01*
X0416768Y0038287D01*
X0416758Y0038441D01*
X0416752Y0038596D01*
X0416750Y0038750D01*
X0394750Y0038750D02*
X0394752Y0038904D01*
X0394758Y0039059D01*
X0394768Y0039213D01*
X0394782Y0039367D01*
X0394800Y0039520D01*
X0394821Y0039673D01*
X0394847Y0039826D01*
X0394877Y0039977D01*
X0394910Y0040128D01*
X0394948Y0040278D01*
X0394989Y0040427D01*
X0395034Y0040575D01*
X0395083Y0040721D01*
X0395136Y0040867D01*
X0395192Y0041010D01*
X0395252Y0041153D01*
X0395316Y0041293D01*
X0395383Y0041433D01*
X0395454Y0041570D01*
X0395528Y0041705D01*
X0395606Y0041839D01*
X0395687Y0041970D01*
X0395772Y0042099D01*
X0395860Y0042227D01*
X0395951Y0042351D01*
X0396045Y0042474D01*
X0396143Y0042594D01*
X0396243Y0042711D01*
X0396347Y0042826D01*
X0396453Y0042938D01*
X0396562Y0043047D01*
X0396674Y0043153D01*
X0396789Y0043257D01*
X0396906Y0043357D01*
X0397026Y0043455D01*
X0397149Y0043549D01*
X0397273Y0043640D01*
X0397401Y0043728D01*
X0397530Y0043813D01*
X0397661Y0043894D01*
X0397795Y0043972D01*
X0397930Y0044046D01*
X0398067Y0044117D01*
X0398207Y0044184D01*
X0398347Y0044248D01*
X0398490Y0044308D01*
X0398633Y0044364D01*
X0398779Y0044417D01*
X0398925Y0044466D01*
X0399073Y0044511D01*
X0399222Y0044552D01*
X0399372Y0044590D01*
X0399523Y0044623D01*
X0399674Y0044653D01*
X0399827Y0044679D01*
X0399980Y0044700D01*
X0400133Y0044718D01*
X0400287Y0044732D01*
X0400441Y0044742D01*
X0400596Y0044748D01*
X0400750Y0044750D01*
X0400904Y0044748D01*
X0401059Y0044742D01*
X0401213Y0044732D01*
X0401367Y0044718D01*
X0401520Y0044700D01*
X0401673Y0044679D01*
X0401826Y0044653D01*
X0401977Y0044623D01*
X0402128Y0044590D01*
X0402278Y0044552D01*
X0402427Y0044511D01*
X0402575Y0044466D01*
X0402721Y0044417D01*
X0402867Y0044364D01*
X0403010Y0044308D01*
X0403153Y0044248D01*
X0403293Y0044184D01*
X0403433Y0044117D01*
X0403570Y0044046D01*
X0403705Y0043972D01*
X0403839Y0043894D01*
X0403970Y0043813D01*
X0404099Y0043728D01*
X0404227Y0043640D01*
X0404351Y0043549D01*
X0404474Y0043455D01*
X0404594Y0043357D01*
X0404711Y0043257D01*
X0404826Y0043153D01*
X0404938Y0043047D01*
X0405047Y0042938D01*
X0405153Y0042826D01*
X0405257Y0042711D01*
X0405357Y0042594D01*
X0405455Y0042474D01*
X0405549Y0042351D01*
X0405640Y0042227D01*
X0405728Y0042099D01*
X0405813Y0041970D01*
X0405894Y0041839D01*
X0405972Y0041705D01*
X0406046Y0041570D01*
X0406117Y0041433D01*
X0406184Y0041293D01*
X0406248Y0041153D01*
X0406308Y0041010D01*
X0406364Y0040867D01*
X0406417Y0040721D01*
X0406466Y0040575D01*
X0406511Y0040427D01*
X0406552Y0040278D01*
X0406590Y0040128D01*
X0406623Y0039977D01*
X0406653Y0039826D01*
X0406679Y0039673D01*
X0406700Y0039520D01*
X0406718Y0039367D01*
X0406732Y0039213D01*
X0406742Y0039059D01*
X0406748Y0038904D01*
X0406750Y0038750D01*
X0406748Y0038596D01*
X0406742Y0038441D01*
X0406732Y0038287D01*
X0406718Y0038133D01*
X0406700Y0037980D01*
X0406679Y0037827D01*
X0406653Y0037674D01*
X0406623Y0037523D01*
X0406590Y0037372D01*
X0406552Y0037222D01*
X0406511Y0037073D01*
X0406466Y0036925D01*
X0406417Y0036779D01*
X0406364Y0036633D01*
X0406308Y0036490D01*
X0406248Y0036347D01*
X0406184Y0036207D01*
X0406117Y0036067D01*
X0406046Y0035930D01*
X0405972Y0035795D01*
X0405894Y0035661D01*
X0405813Y0035530D01*
X0405728Y0035401D01*
X0405640Y0035273D01*
X0405549Y0035149D01*
X0405455Y0035026D01*
X0405357Y0034906D01*
X0405257Y0034789D01*
X0405153Y0034674D01*
X0405047Y0034562D01*
X0404938Y0034453D01*
X0404826Y0034347D01*
X0404711Y0034243D01*
X0404594Y0034143D01*
X0404474Y0034045D01*
X0404351Y0033951D01*
X0404227Y0033860D01*
X0404099Y0033772D01*
X0403970Y0033687D01*
X0403839Y0033606D01*
X0403705Y0033528D01*
X0403570Y0033454D01*
X0403433Y0033383D01*
X0403293Y0033316D01*
X0403153Y0033252D01*
X0403010Y0033192D01*
X0402867Y0033136D01*
X0402721Y0033083D01*
X0402575Y0033034D01*
X0402427Y0032989D01*
X0402278Y0032948D01*
X0402128Y0032910D01*
X0401977Y0032877D01*
X0401826Y0032847D01*
X0401673Y0032821D01*
X0401520Y0032800D01*
X0401367Y0032782D01*
X0401213Y0032768D01*
X0401059Y0032758D01*
X0400904Y0032752D01*
X0400750Y0032750D01*
X0400596Y0032752D01*
X0400441Y0032758D01*
X0400287Y0032768D01*
X0400133Y0032782D01*
X0399980Y0032800D01*
X0399827Y0032821D01*
X0399674Y0032847D01*
X0399523Y0032877D01*
X0399372Y0032910D01*
X0399222Y0032948D01*
X0399073Y0032989D01*
X0398925Y0033034D01*
X0398779Y0033083D01*
X0398633Y0033136D01*
X0398490Y0033192D01*
X0398347Y0033252D01*
X0398207Y0033316D01*
X0398067Y0033383D01*
X0397930Y0033454D01*
X0397795Y0033528D01*
X0397661Y0033606D01*
X0397530Y0033687D01*
X0397401Y0033772D01*
X0397273Y0033860D01*
X0397149Y0033951D01*
X0397026Y0034045D01*
X0396906Y0034143D01*
X0396789Y0034243D01*
X0396674Y0034347D01*
X0396562Y0034453D01*
X0396453Y0034562D01*
X0396347Y0034674D01*
X0396243Y0034789D01*
X0396143Y0034906D01*
X0396045Y0035026D01*
X0395951Y0035149D01*
X0395860Y0035273D01*
X0395772Y0035401D01*
X0395687Y0035530D01*
X0395606Y0035661D01*
X0395528Y0035795D01*
X0395454Y0035930D01*
X0395383Y0036067D01*
X0395316Y0036207D01*
X0395252Y0036347D01*
X0395192Y0036490D01*
X0395136Y0036633D01*
X0395083Y0036779D01*
X0395034Y0036925D01*
X0394989Y0037073D01*
X0394948Y0037222D01*
X0394910Y0037372D01*
X0394877Y0037523D01*
X0394847Y0037674D01*
X0394821Y0037827D01*
X0394800Y0037980D01*
X0394782Y0038133D01*
X0394768Y0038287D01*
X0394758Y0038441D01*
X0394752Y0038596D01*
X0394750Y0038750D01*
X0224750Y0038750D02*
X0224752Y0038904D01*
X0224758Y0039059D01*
X0224768Y0039213D01*
X0224782Y0039367D01*
X0224800Y0039520D01*
X0224821Y0039673D01*
X0224847Y0039826D01*
X0224877Y0039977D01*
X0224910Y0040128D01*
X0224948Y0040278D01*
X0224989Y0040427D01*
X0225034Y0040575D01*
X0225083Y0040721D01*
X0225136Y0040867D01*
X0225192Y0041010D01*
X0225252Y0041153D01*
X0225316Y0041293D01*
X0225383Y0041433D01*
X0225454Y0041570D01*
X0225528Y0041705D01*
X0225606Y0041839D01*
X0225687Y0041970D01*
X0225772Y0042099D01*
X0225860Y0042227D01*
X0225951Y0042351D01*
X0226045Y0042474D01*
X0226143Y0042594D01*
X0226243Y0042711D01*
X0226347Y0042826D01*
X0226453Y0042938D01*
X0226562Y0043047D01*
X0226674Y0043153D01*
X0226789Y0043257D01*
X0226906Y0043357D01*
X0227026Y0043455D01*
X0227149Y0043549D01*
X0227273Y0043640D01*
X0227401Y0043728D01*
X0227530Y0043813D01*
X0227661Y0043894D01*
X0227795Y0043972D01*
X0227930Y0044046D01*
X0228067Y0044117D01*
X0228207Y0044184D01*
X0228347Y0044248D01*
X0228490Y0044308D01*
X0228633Y0044364D01*
X0228779Y0044417D01*
X0228925Y0044466D01*
X0229073Y0044511D01*
X0229222Y0044552D01*
X0229372Y0044590D01*
X0229523Y0044623D01*
X0229674Y0044653D01*
X0229827Y0044679D01*
X0229980Y0044700D01*
X0230133Y0044718D01*
X0230287Y0044732D01*
X0230441Y0044742D01*
X0230596Y0044748D01*
X0230750Y0044750D01*
X0230904Y0044748D01*
X0231059Y0044742D01*
X0231213Y0044732D01*
X0231367Y0044718D01*
X0231520Y0044700D01*
X0231673Y0044679D01*
X0231826Y0044653D01*
X0231977Y0044623D01*
X0232128Y0044590D01*
X0232278Y0044552D01*
X0232427Y0044511D01*
X0232575Y0044466D01*
X0232721Y0044417D01*
X0232867Y0044364D01*
X0233010Y0044308D01*
X0233153Y0044248D01*
X0233293Y0044184D01*
X0233433Y0044117D01*
X0233570Y0044046D01*
X0233705Y0043972D01*
X0233839Y0043894D01*
X0233970Y0043813D01*
X0234099Y0043728D01*
X0234227Y0043640D01*
X0234351Y0043549D01*
X0234474Y0043455D01*
X0234594Y0043357D01*
X0234711Y0043257D01*
X0234826Y0043153D01*
X0234938Y0043047D01*
X0235047Y0042938D01*
X0235153Y0042826D01*
X0235257Y0042711D01*
X0235357Y0042594D01*
X0235455Y0042474D01*
X0235549Y0042351D01*
X0235640Y0042227D01*
X0235728Y0042099D01*
X0235813Y0041970D01*
X0235894Y0041839D01*
X0235972Y0041705D01*
X0236046Y0041570D01*
X0236117Y0041433D01*
X0236184Y0041293D01*
X0236248Y0041153D01*
X0236308Y0041010D01*
X0236364Y0040867D01*
X0236417Y0040721D01*
X0236466Y0040575D01*
X0236511Y0040427D01*
X0236552Y0040278D01*
X0236590Y0040128D01*
X0236623Y0039977D01*
X0236653Y0039826D01*
X0236679Y0039673D01*
X0236700Y0039520D01*
X0236718Y0039367D01*
X0236732Y0039213D01*
X0236742Y0039059D01*
X0236748Y0038904D01*
X0236750Y0038750D01*
X0236748Y0038596D01*
X0236742Y0038441D01*
X0236732Y0038287D01*
X0236718Y0038133D01*
X0236700Y0037980D01*
X0236679Y0037827D01*
X0236653Y0037674D01*
X0236623Y0037523D01*
X0236590Y0037372D01*
X0236552Y0037222D01*
X0236511Y0037073D01*
X0236466Y0036925D01*
X0236417Y0036779D01*
X0236364Y0036633D01*
X0236308Y0036490D01*
X0236248Y0036347D01*
X0236184Y0036207D01*
X0236117Y0036067D01*
X0236046Y0035930D01*
X0235972Y0035795D01*
X0235894Y0035661D01*
X0235813Y0035530D01*
X0235728Y0035401D01*
X0235640Y0035273D01*
X0235549Y0035149D01*
X0235455Y0035026D01*
X0235357Y0034906D01*
X0235257Y0034789D01*
X0235153Y0034674D01*
X0235047Y0034562D01*
X0234938Y0034453D01*
X0234826Y0034347D01*
X0234711Y0034243D01*
X0234594Y0034143D01*
X0234474Y0034045D01*
X0234351Y0033951D01*
X0234227Y0033860D01*
X0234099Y0033772D01*
X0233970Y0033687D01*
X0233839Y0033606D01*
X0233705Y0033528D01*
X0233570Y0033454D01*
X0233433Y0033383D01*
X0233293Y0033316D01*
X0233153Y0033252D01*
X0233010Y0033192D01*
X0232867Y0033136D01*
X0232721Y0033083D01*
X0232575Y0033034D01*
X0232427Y0032989D01*
X0232278Y0032948D01*
X0232128Y0032910D01*
X0231977Y0032877D01*
X0231826Y0032847D01*
X0231673Y0032821D01*
X0231520Y0032800D01*
X0231367Y0032782D01*
X0231213Y0032768D01*
X0231059Y0032758D01*
X0230904Y0032752D01*
X0230750Y0032750D01*
X0230596Y0032752D01*
X0230441Y0032758D01*
X0230287Y0032768D01*
X0230133Y0032782D01*
X0229980Y0032800D01*
X0229827Y0032821D01*
X0229674Y0032847D01*
X0229523Y0032877D01*
X0229372Y0032910D01*
X0229222Y0032948D01*
X0229073Y0032989D01*
X0228925Y0033034D01*
X0228779Y0033083D01*
X0228633Y0033136D01*
X0228490Y0033192D01*
X0228347Y0033252D01*
X0228207Y0033316D01*
X0228067Y0033383D01*
X0227930Y0033454D01*
X0227795Y0033528D01*
X0227661Y0033606D01*
X0227530Y0033687D01*
X0227401Y0033772D01*
X0227273Y0033860D01*
X0227149Y0033951D01*
X0227026Y0034045D01*
X0226906Y0034143D01*
X0226789Y0034243D01*
X0226674Y0034347D01*
X0226562Y0034453D01*
X0226453Y0034562D01*
X0226347Y0034674D01*
X0226243Y0034789D01*
X0226143Y0034906D01*
X0226045Y0035026D01*
X0225951Y0035149D01*
X0225860Y0035273D01*
X0225772Y0035401D01*
X0225687Y0035530D01*
X0225606Y0035661D01*
X0225528Y0035795D01*
X0225454Y0035930D01*
X0225383Y0036067D01*
X0225316Y0036207D01*
X0225252Y0036347D01*
X0225192Y0036490D01*
X0225136Y0036633D01*
X0225083Y0036779D01*
X0225034Y0036925D01*
X0224989Y0037073D01*
X0224948Y0037222D01*
X0224910Y0037372D01*
X0224877Y0037523D01*
X0224847Y0037674D01*
X0224821Y0037827D01*
X0224800Y0037980D01*
X0224782Y0038133D01*
X0224768Y0038287D01*
X0224758Y0038441D01*
X0224752Y0038596D01*
X0224750Y0038750D01*
X0202750Y0038750D02*
X0202752Y0038904D01*
X0202758Y0039059D01*
X0202768Y0039213D01*
X0202782Y0039367D01*
X0202800Y0039520D01*
X0202821Y0039673D01*
X0202847Y0039826D01*
X0202877Y0039977D01*
X0202910Y0040128D01*
X0202948Y0040278D01*
X0202989Y0040427D01*
X0203034Y0040575D01*
X0203083Y0040721D01*
X0203136Y0040867D01*
X0203192Y0041010D01*
X0203252Y0041153D01*
X0203316Y0041293D01*
X0203383Y0041433D01*
X0203454Y0041570D01*
X0203528Y0041705D01*
X0203606Y0041839D01*
X0203687Y0041970D01*
X0203772Y0042099D01*
X0203860Y0042227D01*
X0203951Y0042351D01*
X0204045Y0042474D01*
X0204143Y0042594D01*
X0204243Y0042711D01*
X0204347Y0042826D01*
X0204453Y0042938D01*
X0204562Y0043047D01*
X0204674Y0043153D01*
X0204789Y0043257D01*
X0204906Y0043357D01*
X0205026Y0043455D01*
X0205149Y0043549D01*
X0205273Y0043640D01*
X0205401Y0043728D01*
X0205530Y0043813D01*
X0205661Y0043894D01*
X0205795Y0043972D01*
X0205930Y0044046D01*
X0206067Y0044117D01*
X0206207Y0044184D01*
X0206347Y0044248D01*
X0206490Y0044308D01*
X0206633Y0044364D01*
X0206779Y0044417D01*
X0206925Y0044466D01*
X0207073Y0044511D01*
X0207222Y0044552D01*
X0207372Y0044590D01*
X0207523Y0044623D01*
X0207674Y0044653D01*
X0207827Y0044679D01*
X0207980Y0044700D01*
X0208133Y0044718D01*
X0208287Y0044732D01*
X0208441Y0044742D01*
X0208596Y0044748D01*
X0208750Y0044750D01*
X0208904Y0044748D01*
X0209059Y0044742D01*
X0209213Y0044732D01*
X0209367Y0044718D01*
X0209520Y0044700D01*
X0209673Y0044679D01*
X0209826Y0044653D01*
X0209977Y0044623D01*
X0210128Y0044590D01*
X0210278Y0044552D01*
X0210427Y0044511D01*
X0210575Y0044466D01*
X0210721Y0044417D01*
X0210867Y0044364D01*
X0211010Y0044308D01*
X0211153Y0044248D01*
X0211293Y0044184D01*
X0211433Y0044117D01*
X0211570Y0044046D01*
X0211705Y0043972D01*
X0211839Y0043894D01*
X0211970Y0043813D01*
X0212099Y0043728D01*
X0212227Y0043640D01*
X0212351Y0043549D01*
X0212474Y0043455D01*
X0212594Y0043357D01*
X0212711Y0043257D01*
X0212826Y0043153D01*
X0212938Y0043047D01*
X0213047Y0042938D01*
X0213153Y0042826D01*
X0213257Y0042711D01*
X0213357Y0042594D01*
X0213455Y0042474D01*
X0213549Y0042351D01*
X0213640Y0042227D01*
X0213728Y0042099D01*
X0213813Y0041970D01*
X0213894Y0041839D01*
X0213972Y0041705D01*
X0214046Y0041570D01*
X0214117Y0041433D01*
X0214184Y0041293D01*
X0214248Y0041153D01*
X0214308Y0041010D01*
X0214364Y0040867D01*
X0214417Y0040721D01*
X0214466Y0040575D01*
X0214511Y0040427D01*
X0214552Y0040278D01*
X0214590Y0040128D01*
X0214623Y0039977D01*
X0214653Y0039826D01*
X0214679Y0039673D01*
X0214700Y0039520D01*
X0214718Y0039367D01*
X0214732Y0039213D01*
X0214742Y0039059D01*
X0214748Y0038904D01*
X0214750Y0038750D01*
X0214748Y0038596D01*
X0214742Y0038441D01*
X0214732Y0038287D01*
X0214718Y0038133D01*
X0214700Y0037980D01*
X0214679Y0037827D01*
X0214653Y0037674D01*
X0214623Y0037523D01*
X0214590Y0037372D01*
X0214552Y0037222D01*
X0214511Y0037073D01*
X0214466Y0036925D01*
X0214417Y0036779D01*
X0214364Y0036633D01*
X0214308Y0036490D01*
X0214248Y0036347D01*
X0214184Y0036207D01*
X0214117Y0036067D01*
X0214046Y0035930D01*
X0213972Y0035795D01*
X0213894Y0035661D01*
X0213813Y0035530D01*
X0213728Y0035401D01*
X0213640Y0035273D01*
X0213549Y0035149D01*
X0213455Y0035026D01*
X0213357Y0034906D01*
X0213257Y0034789D01*
X0213153Y0034674D01*
X0213047Y0034562D01*
X0212938Y0034453D01*
X0212826Y0034347D01*
X0212711Y0034243D01*
X0212594Y0034143D01*
X0212474Y0034045D01*
X0212351Y0033951D01*
X0212227Y0033860D01*
X0212099Y0033772D01*
X0211970Y0033687D01*
X0211839Y0033606D01*
X0211705Y0033528D01*
X0211570Y0033454D01*
X0211433Y0033383D01*
X0211293Y0033316D01*
X0211153Y0033252D01*
X0211010Y0033192D01*
X0210867Y0033136D01*
X0210721Y0033083D01*
X0210575Y0033034D01*
X0210427Y0032989D01*
X0210278Y0032948D01*
X0210128Y0032910D01*
X0209977Y0032877D01*
X0209826Y0032847D01*
X0209673Y0032821D01*
X0209520Y0032800D01*
X0209367Y0032782D01*
X0209213Y0032768D01*
X0209059Y0032758D01*
X0208904Y0032752D01*
X0208750Y0032750D01*
X0208596Y0032752D01*
X0208441Y0032758D01*
X0208287Y0032768D01*
X0208133Y0032782D01*
X0207980Y0032800D01*
X0207827Y0032821D01*
X0207674Y0032847D01*
X0207523Y0032877D01*
X0207372Y0032910D01*
X0207222Y0032948D01*
X0207073Y0032989D01*
X0206925Y0033034D01*
X0206779Y0033083D01*
X0206633Y0033136D01*
X0206490Y0033192D01*
X0206347Y0033252D01*
X0206207Y0033316D01*
X0206067Y0033383D01*
X0205930Y0033454D01*
X0205795Y0033528D01*
X0205661Y0033606D01*
X0205530Y0033687D01*
X0205401Y0033772D01*
X0205273Y0033860D01*
X0205149Y0033951D01*
X0205026Y0034045D01*
X0204906Y0034143D01*
X0204789Y0034243D01*
X0204674Y0034347D01*
X0204562Y0034453D01*
X0204453Y0034562D01*
X0204347Y0034674D01*
X0204243Y0034789D01*
X0204143Y0034906D01*
X0204045Y0035026D01*
X0203951Y0035149D01*
X0203860Y0035273D01*
X0203772Y0035401D01*
X0203687Y0035530D01*
X0203606Y0035661D01*
X0203528Y0035795D01*
X0203454Y0035930D01*
X0203383Y0036067D01*
X0203316Y0036207D01*
X0203252Y0036347D01*
X0203192Y0036490D01*
X0203136Y0036633D01*
X0203083Y0036779D01*
X0203034Y0036925D01*
X0202989Y0037073D01*
X0202948Y0037222D01*
X0202910Y0037372D01*
X0202877Y0037523D01*
X0202847Y0037674D01*
X0202821Y0037827D01*
X0202800Y0037980D01*
X0202782Y0038133D01*
X0202768Y0038287D01*
X0202758Y0038441D01*
X0202752Y0038596D01*
X0202750Y0038750D01*
X0032750Y0038750D02*
X0032752Y0038904D01*
X0032758Y0039059D01*
X0032768Y0039213D01*
X0032782Y0039367D01*
X0032800Y0039520D01*
X0032821Y0039673D01*
X0032847Y0039826D01*
X0032877Y0039977D01*
X0032910Y0040128D01*
X0032948Y0040278D01*
X0032989Y0040427D01*
X0033034Y0040575D01*
X0033083Y0040721D01*
X0033136Y0040867D01*
X0033192Y0041010D01*
X0033252Y0041153D01*
X0033316Y0041293D01*
X0033383Y0041433D01*
X0033454Y0041570D01*
X0033528Y0041705D01*
X0033606Y0041839D01*
X0033687Y0041970D01*
X0033772Y0042099D01*
X0033860Y0042227D01*
X0033951Y0042351D01*
X0034045Y0042474D01*
X0034143Y0042594D01*
X0034243Y0042711D01*
X0034347Y0042826D01*
X0034453Y0042938D01*
X0034562Y0043047D01*
X0034674Y0043153D01*
X0034789Y0043257D01*
X0034906Y0043357D01*
X0035026Y0043455D01*
X0035149Y0043549D01*
X0035273Y0043640D01*
X0035401Y0043728D01*
X0035530Y0043813D01*
X0035661Y0043894D01*
X0035795Y0043972D01*
X0035930Y0044046D01*
X0036067Y0044117D01*
X0036207Y0044184D01*
X0036347Y0044248D01*
X0036490Y0044308D01*
X0036633Y0044364D01*
X0036779Y0044417D01*
X0036925Y0044466D01*
X0037073Y0044511D01*
X0037222Y0044552D01*
X0037372Y0044590D01*
X0037523Y0044623D01*
X0037674Y0044653D01*
X0037827Y0044679D01*
X0037980Y0044700D01*
X0038133Y0044718D01*
X0038287Y0044732D01*
X0038441Y0044742D01*
X0038596Y0044748D01*
X0038750Y0044750D01*
X0038904Y0044748D01*
X0039059Y0044742D01*
X0039213Y0044732D01*
X0039367Y0044718D01*
X0039520Y0044700D01*
X0039673Y0044679D01*
X0039826Y0044653D01*
X0039977Y0044623D01*
X0040128Y0044590D01*
X0040278Y0044552D01*
X0040427Y0044511D01*
X0040575Y0044466D01*
X0040721Y0044417D01*
X0040867Y0044364D01*
X0041010Y0044308D01*
X0041153Y0044248D01*
X0041293Y0044184D01*
X0041433Y0044117D01*
X0041570Y0044046D01*
X0041705Y0043972D01*
X0041839Y0043894D01*
X0041970Y0043813D01*
X0042099Y0043728D01*
X0042227Y0043640D01*
X0042351Y0043549D01*
X0042474Y0043455D01*
X0042594Y0043357D01*
X0042711Y0043257D01*
X0042826Y0043153D01*
X0042938Y0043047D01*
X0043047Y0042938D01*
X0043153Y0042826D01*
X0043257Y0042711D01*
X0043357Y0042594D01*
X0043455Y0042474D01*
X0043549Y0042351D01*
X0043640Y0042227D01*
X0043728Y0042099D01*
X0043813Y0041970D01*
X0043894Y0041839D01*
X0043972Y0041705D01*
X0044046Y0041570D01*
X0044117Y0041433D01*
X0044184Y0041293D01*
X0044248Y0041153D01*
X0044308Y0041010D01*
X0044364Y0040867D01*
X0044417Y0040721D01*
X0044466Y0040575D01*
X0044511Y0040427D01*
X0044552Y0040278D01*
X0044590Y0040128D01*
X0044623Y0039977D01*
X0044653Y0039826D01*
X0044679Y0039673D01*
X0044700Y0039520D01*
X0044718Y0039367D01*
X0044732Y0039213D01*
X0044742Y0039059D01*
X0044748Y0038904D01*
X0044750Y0038750D01*
X0044748Y0038596D01*
X0044742Y0038441D01*
X0044732Y0038287D01*
X0044718Y0038133D01*
X0044700Y0037980D01*
X0044679Y0037827D01*
X0044653Y0037674D01*
X0044623Y0037523D01*
X0044590Y0037372D01*
X0044552Y0037222D01*
X0044511Y0037073D01*
X0044466Y0036925D01*
X0044417Y0036779D01*
X0044364Y0036633D01*
X0044308Y0036490D01*
X0044248Y0036347D01*
X0044184Y0036207D01*
X0044117Y0036067D01*
X0044046Y0035930D01*
X0043972Y0035795D01*
X0043894Y0035661D01*
X0043813Y0035530D01*
X0043728Y0035401D01*
X0043640Y0035273D01*
X0043549Y0035149D01*
X0043455Y0035026D01*
X0043357Y0034906D01*
X0043257Y0034789D01*
X0043153Y0034674D01*
X0043047Y0034562D01*
X0042938Y0034453D01*
X0042826Y0034347D01*
X0042711Y0034243D01*
X0042594Y0034143D01*
X0042474Y0034045D01*
X0042351Y0033951D01*
X0042227Y0033860D01*
X0042099Y0033772D01*
X0041970Y0033687D01*
X0041839Y0033606D01*
X0041705Y0033528D01*
X0041570Y0033454D01*
X0041433Y0033383D01*
X0041293Y0033316D01*
X0041153Y0033252D01*
X0041010Y0033192D01*
X0040867Y0033136D01*
X0040721Y0033083D01*
X0040575Y0033034D01*
X0040427Y0032989D01*
X0040278Y0032948D01*
X0040128Y0032910D01*
X0039977Y0032877D01*
X0039826Y0032847D01*
X0039673Y0032821D01*
X0039520Y0032800D01*
X0039367Y0032782D01*
X0039213Y0032768D01*
X0039059Y0032758D01*
X0038904Y0032752D01*
X0038750Y0032750D01*
X0038596Y0032752D01*
X0038441Y0032758D01*
X0038287Y0032768D01*
X0038133Y0032782D01*
X0037980Y0032800D01*
X0037827Y0032821D01*
X0037674Y0032847D01*
X0037523Y0032877D01*
X0037372Y0032910D01*
X0037222Y0032948D01*
X0037073Y0032989D01*
X0036925Y0033034D01*
X0036779Y0033083D01*
X0036633Y0033136D01*
X0036490Y0033192D01*
X0036347Y0033252D01*
X0036207Y0033316D01*
X0036067Y0033383D01*
X0035930Y0033454D01*
X0035795Y0033528D01*
X0035661Y0033606D01*
X0035530Y0033687D01*
X0035401Y0033772D01*
X0035273Y0033860D01*
X0035149Y0033951D01*
X0035026Y0034045D01*
X0034906Y0034143D01*
X0034789Y0034243D01*
X0034674Y0034347D01*
X0034562Y0034453D01*
X0034453Y0034562D01*
X0034347Y0034674D01*
X0034243Y0034789D01*
X0034143Y0034906D01*
X0034045Y0035026D01*
X0033951Y0035149D01*
X0033860Y0035273D01*
X0033772Y0035401D01*
X0033687Y0035530D01*
X0033606Y0035661D01*
X0033528Y0035795D01*
X0033454Y0035930D01*
X0033383Y0036067D01*
X0033316Y0036207D01*
X0033252Y0036347D01*
X0033192Y0036490D01*
X0033136Y0036633D01*
X0033083Y0036779D01*
X0033034Y0036925D01*
X0032989Y0037073D01*
X0032948Y0037222D01*
X0032910Y0037372D01*
X0032877Y0037523D01*
X0032847Y0037674D01*
X0032821Y0037827D01*
X0032800Y0037980D01*
X0032782Y0038133D01*
X0032768Y0038287D01*
X0032758Y0038441D01*
X0032752Y0038596D01*
X0032750Y0038750D01*
M02*
