%
M48
M72
T01C0.0150
T02C0.0354
T03C0.0400
T04C0.1200
%
T01
X4025Y13875
X4025Y14875
X4025Y15875
X4025Y16875
X4025Y17875
X4025Y30075
X4025Y31075
X4025Y32075
X4025Y33075
X4025Y34075
X4025Y46275
X4025Y47275
X4025Y48275
X4025Y49275
X4025Y50275
X20725Y42275
X20725Y41275
X20725Y40275
X20725Y39275
X20725Y38275
X23225Y34075
X23225Y33075
X23225Y32075
X23225Y31075
X23225Y30075
X20725Y26075
X20725Y25075
X20725Y24075
X20725Y23075
X20725Y22075
X23225Y17875
X23225Y16875
X23225Y15875
X23225Y14875
X23225Y13875
X20725Y9875
X20725Y8875
X20725Y7875
X20725Y6875
X20725Y5875
X39925Y5875
X39925Y6875
X39925Y7875
X39925Y8875
X39925Y9875
X42425Y13875
X42425Y14875
X42425Y15875
X42425Y16875
X42425Y17875
X39925Y22075
X39925Y23075
X39925Y24075
X39925Y25075
X39925Y26075
X42425Y30075
X42425Y31075
X42425Y32075
X42425Y33075
X42425Y34075
X39925Y38275
X39925Y39275
X39925Y40275
X39925Y41275
X39925Y42275
X42425Y46275
X42425Y47275
X42425Y48275
X42425Y49275
X42425Y50275
X59125Y42275
X59125Y41275
X59125Y40275
X59125Y39275
X59125Y38275
X59125Y26075
X59125Y25075
X59125Y24075
X59125Y23075
X59125Y22075
X59125Y9875
X59125Y8875
X59125Y7875
X59125Y6875
X59125Y5875
X23225Y46275
X23225Y47275
X23225Y48275
X23225Y49275
X23225Y50275
T02
X22575Y48759
X21375Y48759
X21375Y46791
X22575Y46791
X22575Y42275
X21375Y42275
X21375Y39275
X22575Y39275
X22575Y32559
X21375Y32559
X21375Y30591
X22575Y30591
X22575Y26075
X21375Y26075
X21375Y23075
X22575Y23075
X22575Y16359
X21375Y16359
X21375Y14391
X22575Y14391
X22575Y9875
X21375Y9875
X21375Y6875
X22575Y6875
X40575Y6875
X41775Y6875
X41775Y9875
X40575Y9875
X40575Y14391
X41775Y14391
X41775Y16359
X40575Y16359
X40575Y23075
X41775Y23075
X41775Y26075
X40575Y26075
X40575Y30591
X41775Y30591
X41775Y32559
X40575Y32559
X40575Y39275
X41775Y39275
X41775Y42275
X40575Y42275
X40575Y46791
X41775Y46791
X41775Y48759
X40575Y48759
X59775Y48759
X59775Y46791
X59775Y42275
X59775Y39275
X59775Y32559
X59775Y30591
X59775Y26075
X59775Y23075
X59775Y16359
X59775Y14391
X59775Y9875
X59775Y6875
X3375Y6875
X3375Y9875
X3375Y14391
X3375Y16359
X3375Y23075
X3375Y26075
X3375Y30591
X3375Y32559
X3375Y39275
X3375Y42275
X3375Y46791
X3375Y48759
T03
X10875Y35775
X11875Y35775
X12875Y35775
X13875Y35775
X30075Y35775
X31075Y35775
X32075Y35775
X33075Y35775
X49275Y35775
X50275Y35775
X51275Y35775
X52275Y35775
X52275Y19575
X51275Y19575
X50275Y19575
X49275Y19575
X33075Y19575
X32075Y19575
X31075Y19575
X30075Y19575
X13875Y19575
X12875Y19575
X11875Y19575
X10875Y19575
X10875Y3375
X11875Y3375
X12875Y3375
X13875Y3375
X30075Y3375
X31075Y3375
X32075Y3375
X33075Y3375
X49275Y3375
X50275Y3375
X51275Y3375
X52275Y3375
T04
X3875Y3875
X20875Y3875
X23075Y3875
X40075Y3875
X42275Y3875
X59275Y3875
X59275Y20075
X42275Y20075
X40075Y20075
X23075Y20075
X20875Y20075
X3875Y20075
X3875Y36275
X20875Y36275
X23075Y36275
X40075Y36275
X42275Y36275
X59275Y36275
M30
